<?xml version="1.0" encoding="UTF-8" standalone="no"?>
<!-- Created with Inkscape (http://www.inkscape.org/) -->
<svg xmlns:inkscape="http://www.inkscape.org/namespaces/inkscape" xmlns:rdf="http://www.w3.org/1999/02/22-rdf-syntax-ns#" xmlns="http://www.w3.org/2000/svg" xmlns:cc="http://creativecommons.org/ns#" xmlns:dc="http://purl.org/dc/elements/1.1/" xmlns:sodipodi="http://sodipodi.sourceforge.net/DTD/sodipodi-0.dtd" xmlns:svg="http://www.w3.org/2000/svg" xmlns:ns1="http://sozi.baierouge.fr" xmlns:xlink="http://www.w3.org/1999/xlink" id="svg4356" sodipodi:docname="cahiers de labo.svg" viewBox="0 0 454.81 483.41" version="1.1" inkscape:version="0.48.0 r9654">
  <sodipodi:namedview id="base" fit-margin-left="0" inkscape:zoom="0.35355339" borderopacity="1.0" inkscape:current-layer="layer2" inkscape:cx="600.53436" inkscape:cy="173.48806" inkscape:window-maximized="0" showgrid="false" fit-margin-right="0" showguides="true" bordercolor="#666666" inkscape:window-x="22" inkscape:guide-bbox="true" inkscape:window-y="22" fit-margin-bottom="0" inkscape:window-width="1454" inkscape:pageopacity="0.0" inkscape:pageshadow="2" pagecolor="#ffffff" inkscape:document-units="px" inkscape:window-height="900" fit-margin-top="0">
    <sodipodi:guide id="guide6865" position="825.1358,738.2188" orientation="0,1"/>
  </sodipodi:namedview>
  <g id="layer2" inkscape:label="cahiers" inkscape:groupmode="layer" transform="translate(-488.06 -381.88)">
    <g id="g15726">
      <path id="path15700" d="m669.5 544.75s-7.5073 15.599-9.875 27.438c-2.7438 13.719-13.161 27.446-20.844 34.031-7.6828 6.5852-32.927 4.3802-45-1.6562-3.5851-1.7926-9.3316-0.14497-13-10.125-6.74-17.79-23.94-30.44-44.09-30.44-26.036 0-47.125 21.121-47.125 47.156 0 26.036 21.089 47.125 47.125 47.125 18.981 0 35.34-11.208 42.812-27.375 8.7803-9.8779 18.108-10.969 41.156-10.969s24.143 15.357 32.375 29.625c8.2316 14.268 0 35.125 0 35.125l14.812 20.312 30.75-37.875s-35.117-14.262-37.312-19.75c-2.1951-5.4877-6.0625-25.812-6.0625-25.812s12.081 0.004 20.312-1.0938c8.2316-1.0975 18.656 3.3125 18.656 3.3125l8.7812 2.75 17.04-13.2-15.38-16.46s-16.464 9.3362-22.5 11.531c-6.0365 2.1951-27.438 3.8438-27.438 3.8438s9.3149-17.021 13.156-29.094c3.8414-12.073 18.125-27.969 18.125-27.969z" sodipodi:nodetypes="cssscssscsscccscsccccscscc" style="stroke:#000000;stroke-width:3;fill:#aded94" inkscape:connector-curvature="0"/>
      <path id="path15686" d="m753.97 383.47c-26.741 0-48.438 21.665-48.438 48.406 0 17.282 12.906 33.53 22.688 41 7.4618 7.1034 15.444 17.084 16.031 32.344 0.36303 9.4344-3.8748 17.073-8.5312 23.281-4.6565 6.2086-10.329 14.341-36.875 14.562-9.7086 0.0811-18.214-4.0165-23.125-3.2188-6.113 0.32615-10.969 5.3682-10.969 11.562 0 6.4049 5.1888 11.594 11.594 11.594 3.7146 0 7.0337-1.7522 9.1562-4.4688 5.0886-3.5148 13.954-8.9018 22.656-10.438 13.193-2.3282 26.781 0.40625 26.781 0.40625s2.1461 14.343-4.0625 23.656c-6.2086 9.3129-13.765 16.875-20.75 21.531-6.9847 4.6565 13.188 21.75 13.188 21.75l22.312-12.031s-8.3386-16.697-7.5625-27.562c0.77608-10.865 9.3125-23.281 9.3125-23.281s15.323 7.3383 20.156 14.75c5.8206 8.9249 8.7552 20.755 9.5312 30.844 0.77608 10.089 35.5 15.729 35.5 12.625 0-3.1043-8.3438-36.281-8.3438-36.281s-18.126-0.97207-28.719-9.7188c-10.454-8.6318-26.391-35.301-24.062-57.031 2.0469-19.105 11.722-25.756 18.781-30.25 13.795-5.5878 32.156-24.594 32.156-45.625 0-26.741-21.665-48.406-48.406-48.406z" sodipodi:nodetypes="sscssscsscscssccscssscsscss" style="stroke-linejoin:round;color:#000000;stroke:#000000;stroke-linecap:round;stroke-miterlimit:10;stroke-width:3.1723;fill:#ff00ff" inkscape:connector-curvature="0"/>
      <path id="path15704" d="m797.81 601.47-18.625 17.844s13.183 5.4209 3.0938 26.375-12.406 13.969-12.406 13.969-16.307-11.64-20.188-23.281c-3.8804-11.641-7.75-24.812-7.75-24.812l-22.5 28.688s23.27 0.79115 31.031 11.656c7.7608 10.865 11.625 20.188 11.625 20.188s-27.145 10.865-39.562 4.6562c-8.3709-11.753-22.128-19.406-37.656-19.406-25.503 0-46.156 20.654-46.156 46.156 0 25.503 20.654 46.188 46.156 46.188 24.472 0 44.483-19.021 46.062-43.094 0.002-0.009-0.002-0.0219 0-0.0312 1.2773-5.6415 5.0027-15.24 15.656-18.969 15.522-5.4326 25.8-2.5104 32.594 3.9062 13.969 13.193 30 28.53 21.923 49.888-3.8339 24.187-11.122 20.012-11.829 46.33-1.1281 41.989 34.027 76.062 76.031 76.062s76.062-34.058 76.062-76.062-34.058-76.062-76.062-76.062c-11.242 0-21.898 2.4659-31.5 6.8438l-11.036-1.3321s-6.3436-3.1778-16.433-14.043-20.964-25.614-20.188-38.031c0.77608-12.417 3.1194-27.948 11.656-34.156 8.5369-6.2086 22.5-12.406 22.5-12.406z" sodipodi:nodetypes="ccscsccsccsssccsscssssccssscc" style="stroke-linejoin:round;color:#000000;stroke:#000000;stroke-linecap:round;stroke-width:3;fill:#8f96f9" inkscape:connector-curvature="0"/>
      <path id="path15693" sodipodi:rx="27.438511" sodipodi:ry="27.164127" style="stroke-linejoin:round;color:#000000;stroke:#000000;stroke-linecap:round;stroke-miterlimit:10;stroke-width:3;fill:#8f56b9" sodipodi:type="arc" d="m750.72 611.43c0 15.002-12.285 27.164-27.439 27.164s-27.439-12.162-27.439-27.164 12.285-27.164 27.439-27.164 27.439 12.162 27.439 27.164z" transform="translate(-1.0975 4.3902)" sodipodi:cy="611.42529" sodipodi:cx="723.27917"/>
      <path id="path15691" sodipodi:rx="27.438511" sodipodi:ry="27.164127" style="stroke-linejoin:round;color:#000000;stroke:#000000;stroke-linecap:round;stroke-miterlimit:10;stroke-width:3;fill:#8f56b9" sodipodi:type="arc" d="m750.72 611.43c0 15.002-12.285 27.164-27.439 27.164s-27.439-12.162-27.439-27.164 12.285-27.164 27.439-27.164 27.439 12.162 27.439 27.164z" transform="matrix(1.0278 0 0 1.0278 57.006 -29.346)" sodipodi:cy="611.42529" sodipodi:cx="723.27917"/>
      <rect id="rect15710" style="stroke-linejoin:round;color:#000000;stroke:#000000;stroke-linecap:round;stroke-width:3;fill:#800080" rx="10.985" ry="8.6565" height="21.73" width="90.801" y="502.9" x="697.69"/>
      <rect id="rect15716" style="stroke-linejoin:round;color:#000000;stroke:#000000;stroke-linecap:round;stroke-width:3;fill:#008000" rx="10.985" ry="8.6565" height="21.73" width="90.801" y="603.01" x="592.92"/>
      <rect id="rect15708" style="stroke-linejoin:round;color:#000000;stroke:#000000;stroke-linecap:round;stroke-width:3;fill:#0000ff" rx="10.985" ry="8.6565" height="21.73" width="90.801" y="665.1" x="738.83"/>
      <path id="path15446" sodipodi:rx="7.8571429" sodipodi:ry="7.8571429" style="color:#000000;stroke:#000000;stroke-width:3;fill:#ffff00" sodipodi:type="arc" d="m560 913.08c0 4.3394-3.5178 7.8571-7.8572 7.8571s-7.8571-3.5178-7.8571-7.8571c0-4.3394 3.5178-7.8572 7.8571-7.8572 4.3394 0 7.8572 3.5178 7.8572 7.8572z" inkscape:tile-x0="970.97721" transform="matrix(.75118 0 0 .75118 385.76 117.93)" sodipodi:cy="913.07648" sodipodi:cx="552.14288" inkscape:tile-y0="921.91982"/>
      <path id="path15448" sodipodi:rx="7.8571429" sodipodi:ry="7.8571429" style="color:#000000;stroke:#000000;stroke-width:3;fill:#ffff00" sodipodi:type="arc" d="m560 913.08c0 4.3394-3.5178 7.8571-7.8572 7.8571s-7.8571-3.5178-7.8571-7.8571c0-4.3394 3.5178-7.8572 7.8571-7.8572 4.3394 0 7.8572 3.5178 7.8572 7.8572z" inkscape:tile-x0="970.97721" transform="matrix(.75118 0 0 .75118 392.25 104.71)" sodipodi:cy="913.07648" sodipodi:cx="552.14288" inkscape:tile-y0="921.91982"/>
      <path id="path15450" sodipodi:rx="7.8571429" sodipodi:ry="7.8571429" style="color:#000000;stroke:#000000;stroke-width:3;fill:#ffff00" sodipodi:type="arc" d="m560 913.08c0 4.3394-3.5178 7.8571-7.8572 7.8571s-7.8571-3.5178-7.8571-7.8571c0-4.3394 3.5178-7.8572 7.8571-7.8572 4.3394 0 7.8572 3.5178 7.8572 7.8572z" inkscape:tile-x0="970.97721" transform="matrix(.75118 0 0 .75118 399.34 117.93)" sodipodi:cy="913.07648" sodipodi:cx="552.14288" inkscape:tile-y0="921.91982"/>
      <path id="path15452" sodipodi:rx="7.8571429" sodipodi:ry="7.8571429" style="color:#000000;stroke:#000000;stroke-width:3;fill:#ffff00" sodipodi:type="arc" d="m560 913.08c0 4.3394-3.5178 7.8571-7.8572 7.8571s-7.8571-3.5178-7.8571-7.8571c0-4.3394 3.5178-7.8572 7.8571-7.8572 4.3394 0 7.8572 3.5178 7.8572 7.8572z" inkscape:tile-x0="970.97721" transform="matrix(.75118 0 0 .75118 406.42 131.15)" sodipodi:cy="913.07648" sodipodi:cx="552.14288" inkscape:tile-y0="921.91982"/>
      <path id="path15454" sodipodi:rx="7.8571429" sodipodi:ry="7.8571429" style="color:#000000;stroke:#000000;stroke-width:3;fill:#ffff00" sodipodi:type="arc" d="m560 913.08c0 4.3394-3.5178 7.8571-7.8572 7.8571s-7.8571-3.5178-7.8571-7.8571c0-4.3394 3.5178-7.8572 7.8571-7.8572 4.3394 0 7.8572 3.5178 7.8572 7.8572z" inkscape:tile-x0="970.97721" transform="matrix(.75118 0 0 .75118 413.5 144.37)" sodipodi:cy="913.07648" sodipodi:cx="552.14288" inkscape:tile-y0="921.91982"/>
      <path id="path15456" sodipodi:rx="7.8571429" sodipodi:ry="7.8571429" style="color:#000000;stroke:#000000;stroke-width:3;fill:#ffff00" sodipodi:type="arc" d="m560 913.08c0 4.3394-3.5178 7.8571-7.8572 7.8571s-7.8571-3.5178-7.8571-7.8571c0-4.3394 3.5178-7.8572 7.8571-7.8572 4.3394 0 7.8572 3.5178 7.8572 7.8572z" inkscape:tile-x0="970.97721" transform="matrix(.75118 0 0 .75118 420.58 157.59)" sodipodi:cy="913.07648" sodipodi:cx="552.14288" inkscape:tile-y0="921.91982"/>
      <path id="path15458" sodipodi:rx="7.8571429" sodipodi:ry="7.8571429" style="color:#000000;stroke:#000000;stroke-width:3;fill:#ffff00" sodipodi:type="arc" d="m560 913.08c0 4.3394-3.5178 7.8571-7.8572 7.8571s-7.8571-3.5178-7.8571-7.8571c0-4.3394 3.5178-7.8572 7.8571-7.8572 4.3394 0 7.8572 3.5178 7.8572 7.8572z" inkscape:tile-x0="970.97721" transform="matrix(.75118 0 0 .75118 398.75 91.487)" sodipodi:cy="913.07648" sodipodi:cx="552.14288" inkscape:tile-y0="921.91982"/>
      <path id="path15624" sodipodi:rx="7.8571429" inkscape:tile-x0="970.97721" style="color:#000000;stroke:#000000;stroke-width:3;fill:#ffff00" sodipodi:type="arc" d="m560 913.08c0 4.3394-3.5178 7.8571-7.8572 7.8571s-7.8571-3.5178-7.8571-7.8571c0-4.3394 3.5178-7.8572 7.8571-7.8572 4.3394 0 7.8572 3.5178 7.8572 7.8572z" sodipodi:ry="7.8571429" transform="matrix(.75118 0 0 .75118 302.51 -259.63)" sodipodi:cy="913.07648" sodipodi:cx="552.14288" inkscape:tile-y0="921.91982"/>
      <path id="path15568" sodipodi:rx="7.8571429" sodipodi:ry="7.8571429" style="color:#000000;stroke:#000000;stroke-width:3;fill:#ffff00" sodipodi:type="arc" d="m560 913.08c0 4.3394-3.5178 7.8571-7.8572 7.8571s-7.8571-3.5178-7.8571-7.8571c0-4.3394 3.5178-7.8572 7.8571-7.8572 4.3394 0 7.8572 3.5178 7.8572 7.8572z" inkscape:tile-x0="970.97721" transform="matrix(.75118 0 0 .75118 367.7 -78.474)" sodipodi:cy="913.07648" sodipodi:cx="552.14288" inkscape:tile-y0="921.91982"/>
      <path id="path15460" sodipodi:rx="7.8571429" sodipodi:ry="7.8571429" style="color:#000000;stroke:#000000;stroke-width:3;fill:#ffff00" sodipodi:type="arc" d="m560 913.08c0 4.3394-3.5178 7.8571-7.8572 7.8571s-7.8571-3.5178-7.8571-7.8571c0-4.3394 3.5178-7.8572 7.8571-7.8572 4.3394 0 7.8572 3.5178 7.8572 7.8572z" inkscape:tile-x0="970.97721" transform="matrix(.75118 0 0 .75118 405.83 104.71)" sodipodi:cy="913.07648" sodipodi:cx="552.14288" inkscape:tile-y0="921.91982"/>
      <path id="path15626" sodipodi:rx="7.8571429" inkscape:tile-x0="970.97721" style="color:#000000;stroke:#000000;stroke-width:3;fill:#ffff00" sodipodi:type="arc" d="m560 913.08c0 4.3394-3.5178 7.8571-7.8572 7.8571s-7.8571-3.5178-7.8571-7.8571c0-4.3394 3.5178-7.8572 7.8571-7.8572 4.3394 0 7.8572 3.5178 7.8572 7.8572z" sodipodi:ry="7.8571429" transform="matrix(.75118 0 0 .75118 309.59 -246.41)" sodipodi:cy="913.07648" sodipodi:cx="552.14288" inkscape:tile-y0="921.91982"/>
      <path id="path15570" sodipodi:rx="7.8571429" sodipodi:ry="7.8571429" style="color:#000000;stroke:#000000;stroke-width:3;fill:#ffff00" sodipodi:type="arc" d="m560 913.08c0 4.3394-3.5178 7.8571-7.8572 7.8571s-7.8571-3.5178-7.8571-7.8571c0-4.3394 3.5178-7.8572 7.8571-7.8572 4.3394 0 7.8572 3.5178 7.8572 7.8572z" inkscape:tile-x0="970.97721" transform="matrix(.75118 0 0 .75118 374.79 -65.253)" sodipodi:cy="913.07648" sodipodi:cx="552.14288" inkscape:tile-y0="921.91982"/>
      <path id="path15462" sodipodi:rx="7.8571429" sodipodi:ry="7.8571429" style="color:#000000;stroke:#000000;stroke-width:3;fill:#ffff00" sodipodi:type="arc" d="m560 913.08c0 4.3394-3.5178 7.8571-7.8572 7.8571s-7.8571-3.5178-7.8571-7.8571c0-4.3394 3.5178-7.8572 7.8571-7.8572 4.3394 0 7.8572 3.5178 7.8572 7.8572z" inkscape:tile-x0="970.97721" transform="matrix(.75118 0 0 .75118 412.91 117.93)" sodipodi:cy="913.07648" sodipodi:cx="552.14288" inkscape:tile-y0="921.91982"/>
      <path id="path15628" sodipodi:rx="7.8571429" inkscape:tile-x0="970.97721" style="color:#000000;stroke:#000000;stroke-width:3;fill:#ffff00" sodipodi:type="arc" d="m560 913.08c0 4.3394-3.5178 7.8571-7.8572 7.8571s-7.8571-3.5178-7.8571-7.8571c0-4.3394 3.5178-7.8572 7.8571-7.8572 4.3394 0 7.8572 3.5178 7.8572 7.8572z" sodipodi:ry="7.8571429" transform="matrix(.75118 0 0 .75118 316.68 -233.19)" sodipodi:cy="913.07648" sodipodi:cx="552.14288" inkscape:tile-y0="921.91982"/>
      <path id="path15328" sodipodi:rx="7.8571429" inkscape:tile-x0="970.97721" style="color:#000000;stroke:#000000;stroke-width:3;fill:#ffff00" sodipodi:type="arc" d="m560 913.08c0 4.3394-3.5178 7.8571-7.8572 7.8571s-7.8571-3.5178-7.8571-7.8571c0-4.3394 3.5178-7.8572 7.8571-7.8572 4.3394 0 7.8572 3.5178 7.8572 7.8572z" sodipodi:ry="7.8571429" transform="matrix(.75118 0 0 .75118 293.4 -72.211)" sodipodi:cy="913.07648" sodipodi:cx="552.14288" inkscape:tile-y0="921.91982"/>
      <path id="path15464" sodipodi:rx="7.8571429" sodipodi:ry="7.8571429" style="color:#000000;stroke:#000000;stroke-width:3;fill:#ffff00" sodipodi:type="arc" d="m560 913.08c0 4.3394-3.5178 7.8571-7.8572 7.8571s-7.8571-3.5178-7.8571-7.8571c0-4.3394 3.5178-7.8572 7.8571-7.8572 4.3394 0 7.8572 3.5178 7.8572 7.8572z" inkscape:tile-x0="970.97721" transform="matrix(.75118 0 0 .75118 419.99 131.15)" sodipodi:cy="913.07648" sodipodi:cx="552.14288" inkscape:tile-y0="921.91982"/>
      <path id="path15630" sodipodi:rx="7.8571429" inkscape:tile-x0="970.97721" style="color:#000000;stroke:#000000;stroke-width:3;fill:#ffff00" sodipodi:type="arc" d="m560 913.08c0 4.3394-3.5178 7.8571-7.8572 7.8571s-7.8571-3.5178-7.8571-7.8571c0-4.3394 3.5178-7.8572 7.8571-7.8572 4.3394 0 7.8572 3.5178 7.8572 7.8572z" sodipodi:ry="7.8571429" transform="matrix(.75118 0 0 .75118 323.76 -219.97)" sodipodi:cy="913.07648" sodipodi:cx="552.14288" inkscape:tile-y0="921.91982"/>
      <path id="path15330" sodipodi:rx="7.8571429" inkscape:tile-x0="970.97721" style="color:#000000;stroke:#000000;stroke-width:3;fill:#ffff00" sodipodi:type="arc" d="m560 913.08c0 4.3394-3.5178 7.8571-7.8572 7.8571s-7.8571-3.5178-7.8571-7.8571c0-4.3394 3.5178-7.8572 7.8571-7.8572 4.3394 0 7.8572 3.5178 7.8572 7.8572z" sodipodi:ry="7.8571429" transform="matrix(.75118 0 0 .75118 300.48 -58.99)" sodipodi:cy="913.07648" sodipodi:cx="552.14288" inkscape:tile-y0="921.91982"/>
      <path id="path15466" sodipodi:rx="7.8571429" sodipodi:ry="7.8571429" style="color:#000000;stroke:#000000;stroke-width:3;fill:#ffff00" sodipodi:type="arc" d="m560 913.08c0 4.3394-3.5178 7.8571-7.8572 7.8571s-7.8571-3.5178-7.8571-7.8571c0-4.3394 3.5178-7.8572 7.8571-7.8572 4.3394 0 7.8572 3.5178 7.8572 7.8572z" inkscape:tile-x0="970.97721" transform="matrix(.75118 0 0 .75118 427.08 144.37)" sodipodi:cy="913.07648" sodipodi:cx="552.14288" inkscape:tile-y0="921.91982"/>
      <path id="path15468" sodipodi:rx="7.8571429" sodipodi:ry="7.8571429" style="color:#000000;stroke:#000000;stroke-width:3;fill:#ffff00" sodipodi:type="arc" d="m560 913.08c0 4.3394-3.5178 7.8571-7.8572 7.8571s-7.8571-3.5178-7.8571-7.8571c0-4.3394 3.5178-7.8572 7.8571-7.8572 4.3394 0 7.8572 3.5178 7.8572 7.8572z" inkscape:tile-x0="970.97721" transform="matrix(.75118 0 0 .75118 434.16 157.59)" sodipodi:cy="913.07648" sodipodi:cx="552.14288" inkscape:tile-y0="921.91982"/>
      <path id="path15470" sodipodi:rx="7.8571429" sodipodi:ry="7.8571429" style="color:#000000;stroke:#000000;stroke-width:3;fill:#ffff00" sodipodi:type="arc" d="m560 913.08c0 4.3394-3.5178 7.8571-7.8572 7.8571s-7.8571-3.5178-7.8571-7.8571c0-4.3394 3.5178-7.8572 7.8571-7.8572 4.3394 0 7.8572 3.5178 7.8572 7.8572z" inkscape:tile-x0="970.97721" transform="matrix(.75118 0 0 .75118 405.24 78.266)" sodipodi:cy="913.07648" sodipodi:cx="552.14288" inkscape:tile-y0="921.91982"/>
      <path id="path15632" sodipodi:rx="7.8571429" inkscape:tile-x0="970.97721" style="color:#000000;stroke:#000000;stroke-width:3;fill:#ffff00" sodipodi:type="arc" d="m560 913.08c0 4.3394-3.5178 7.8571-7.8572 7.8571s-7.8571-3.5178-7.8571-7.8571c0-4.3394 3.5178-7.8572 7.8571-7.8572 4.3394 0 7.8572 3.5178 7.8572 7.8572z" sodipodi:ry="7.8571429" transform="matrix(.75118 0 0 .75118 309 -272.85)" sodipodi:cy="913.07648" sodipodi:cx="552.14288" inkscape:tile-y0="921.91982"/>
      <path id="path15576" sodipodi:rx="7.8571429" sodipodi:ry="7.8571429" style="color:#000000;stroke:#000000;stroke-width:3;fill:#ffff00" sodipodi:type="arc" d="m560 913.08c0 4.3394-3.5178 7.8571-7.8572 7.8571s-7.8571-3.5178-7.8571-7.8571c0-4.3394 3.5178-7.8572 7.8571-7.8572 4.3394 0 7.8572 3.5178 7.8572 7.8572z" inkscape:tile-x0="970.97721" transform="matrix(.75118 0 0 .75118 374.2 -91.695)" sodipodi:cy="913.07648" sodipodi:cx="552.14288" inkscape:tile-y0="921.91982"/>
      <path id="path15472" sodipodi:rx="7.8571429" sodipodi:ry="7.8571429" style="color:#000000;stroke:#000000;stroke-width:3;fill:#ffff00" sodipodi:type="arc" d="m560 913.08c0 4.3394-3.5178 7.8571-7.8572 7.8571s-7.8571-3.5178-7.8571-7.8571c0-4.3394 3.5178-7.8572 7.8571-7.8572 4.3394 0 7.8572 3.5178 7.8572 7.8572z" inkscape:tile-x0="970.97721" transform="matrix(.75118 0 0 .75118 412.32 91.487)" sodipodi:cy="913.07648" sodipodi:cx="552.14288" inkscape:tile-y0="921.91982"/>
      <path id="path15634" sodipodi:rx="7.8571429" inkscape:tile-x0="970.97721" style="color:#000000;stroke:#000000;stroke-width:3;fill:#ffff00" sodipodi:type="arc" d="m560 913.08c0 4.3394-3.5178 7.8571-7.8572 7.8571s-7.8571-3.5178-7.8571-7.8571c0-4.3394 3.5178-7.8572 7.8571-7.8572 4.3394 0 7.8572 3.5178 7.8572 7.8572z" sodipodi:ry="7.8571429" transform="matrix(.75118 0 0 .75118 316.09 -259.63)" sodipodi:cy="913.07648" sodipodi:cx="552.14288" inkscape:tile-y0="921.91982"/>
      <path id="path15578" sodipodi:rx="7.8571429" sodipodi:ry="7.8571429" style="color:#000000;stroke:#000000;stroke-width:3;fill:#ffff00" sodipodi:type="arc" d="m560 913.08c0 4.3394-3.5178 7.8571-7.8572 7.8571s-7.8571-3.5178-7.8571-7.8571c0-4.3394 3.5178-7.8572 7.8571-7.8572 4.3394 0 7.8572 3.5178 7.8572 7.8572z" inkscape:tile-x0="970.97721" transform="matrix(.75118 0 0 .75118 381.28 -78.474)" sodipodi:cy="913.07648" sodipodi:cx="552.14288" inkscape:tile-y0="921.91982"/>
      <path id="path15474" sodipodi:rx="7.8571429" sodipodi:ry="7.8571429" style="color:#000000;stroke:#000000;stroke-width:3;fill:#ffff00" sodipodi:type="arc" d="m560 913.08c0 4.3394-3.5178 7.8571-7.8572 7.8571s-7.8571-3.5178-7.8571-7.8571c0-4.3394 3.5178-7.8572 7.8571-7.8572 4.3394 0 7.8572 3.5178 7.8572 7.8572z" inkscape:tile-x0="970.97721" transform="matrix(.75118 0 0 .75118 419.4 104.71)" sodipodi:cy="913.07648" sodipodi:cx="552.14288" inkscape:tile-y0="921.91982"/>
      <path id="path15636" sodipodi:rx="7.8571429" inkscape:tile-x0="970.97721" style="color:#000000;stroke:#000000;stroke-width:3;fill:#ffff00" sodipodi:type="arc" d="m560 913.08c0 4.3394-3.5178 7.8571-7.8572 7.8571s-7.8571-3.5178-7.8571-7.8571c0-4.3394 3.5178-7.8572 7.8571-7.8572 4.3394 0 7.8572 3.5178 7.8572 7.8572z" sodipodi:ry="7.8571429" transform="matrix(.75118 0 0 .75118 323.17 -246.41)" sodipodi:cy="913.07648" sodipodi:cx="552.14288" inkscape:tile-y0="921.91982"/>
      <path id="path15580" sodipodi:rx="7.8571429" sodipodi:ry="7.8571429" style="color:#000000;stroke:#000000;stroke-width:3;fill:#ffff00" sodipodi:type="arc" d="m560 913.08c0 4.3394-3.5178 7.8571-7.8572 7.8571s-7.8571-3.5178-7.8571-7.8571c0-4.3394 3.5178-7.8572 7.8571-7.8572 4.3394 0 7.8572 3.5178 7.8572 7.8572z" inkscape:tile-x0="970.97721" transform="matrix(.75118 0 0 .75118 388.36 -65.253)" sodipodi:cy="913.07648" sodipodi:cx="552.14288" inkscape:tile-y0="921.91982"/>
      <path id="path15340" sodipodi:rx="7.8571429" inkscape:tile-x0="970.97721" style="color:#000000;stroke:#000000;stroke-width:3;fill:#ffff00" sodipodi:type="arc" d="m560 913.08c0 4.3394-3.5178 7.8571-7.8572 7.8571s-7.8571-3.5178-7.8571-7.8571c0-4.3394 3.5178-7.8572 7.8571-7.8572 4.3394 0 7.8572 3.5178 7.8572 7.8572z" sodipodi:ry="7.8571429" transform="matrix(.75118 0 0 .75118 299.89 -85.432)" sodipodi:cy="913.07648" sodipodi:cx="552.14288" inkscape:tile-y0="921.91982"/>
      <path id="path15476" sodipodi:rx="7.8571429" sodipodi:ry="7.8571429" style="color:#000000;stroke:#000000;stroke-width:3;fill:#ffff00" sodipodi:type="arc" d="m560 913.08c0 4.3394-3.5178 7.8571-7.8572 7.8571s-7.8571-3.5178-7.8571-7.8571c0-4.3394 3.5178-7.8572 7.8571-7.8572 4.3394 0 7.8572 3.5178 7.8572 7.8572z" inkscape:tile-x0="970.97721" transform="matrix(.75118 0 0 .75118 426.49 117.93)" sodipodi:cy="913.07648" sodipodi:cx="552.14288" inkscape:tile-y0="921.91982"/>
      <path id="path15638" sodipodi:rx="7.8571429" inkscape:tile-x0="970.97721" style="color:#000000;stroke:#000000;stroke-width:3;fill:#ffff00" sodipodi:type="arc" d="m560 913.08c0 4.3394-3.5178 7.8571-7.8572 7.8571s-7.8571-3.5178-7.8571-7.8571c0-4.3394 3.5178-7.8572 7.8571-7.8572 4.3394 0 7.8572 3.5178 7.8572 7.8572z" sodipodi:ry="7.8571429" transform="matrix(.75118 0 0 .75118 330.25 -233.19)" sodipodi:cy="913.07648" sodipodi:cx="552.14288" inkscape:tile-y0="921.91982"/>
      <path id="path15342" sodipodi:rx="7.8571429" inkscape:tile-x0="970.97721" style="color:#000000;stroke:#000000;stroke-width:3;fill:#ffff00" sodipodi:type="arc" d="m560 913.08c0 4.3394-3.5178 7.8571-7.8572 7.8571s-7.8571-3.5178-7.8571-7.8571c0-4.3394 3.5178-7.8572 7.8571-7.8572 4.3394 0 7.8572 3.5178 7.8572 7.8572z" sodipodi:ry="7.8571429" transform="matrix(.75118 0 0 .75118 306.97 -72.211)" sodipodi:cy="913.07648" sodipodi:cx="552.14288" inkscape:tile-y0="921.91982"/>
      <path id="path15478" sodipodi:rx="7.8571429" sodipodi:ry="7.8571429" style="color:#000000;stroke:#000000;stroke-width:3;fill:#ffff00" sodipodi:type="arc" d="m560 913.08c0 4.3394-3.5178 7.8571-7.8572 7.8571s-7.8571-3.5178-7.8571-7.8571c0-4.3394 3.5178-7.8572 7.8571-7.8572 4.3394 0 7.8572 3.5178 7.8572 7.8572z" inkscape:tile-x0="970.97721" transform="matrix(.75118 0 0 .75118 433.57 131.15)" sodipodi:cy="913.07648" sodipodi:cx="552.14288" inkscape:tile-y0="921.91982"/>
      <path id="path15640" sodipodi:rx="7.8571429" inkscape:tile-x0="970.97721" style="color:#000000;stroke:#000000;stroke-width:3;fill:#ffff00" sodipodi:type="arc" d="m560 913.08c0 4.3394-3.5178 7.8571-7.8572 7.8571s-7.8571-3.5178-7.8571-7.8571c0-4.3394 3.5178-7.8572 7.8571-7.8572 4.3394 0 7.8572 3.5178 7.8572 7.8572z" sodipodi:ry="7.8571429" transform="matrix(.75118 0 0 .75118 337.34 -219.97)" sodipodi:cy="913.07648" sodipodi:cx="552.14288" inkscape:tile-y0="921.91982"/>
      <path id="path15344" sodipodi:rx="7.8571429" inkscape:tile-x0="970.97721" style="color:#000000;stroke:#000000;stroke-width:3;fill:#ffff00" sodipodi:type="arc" d="m560 913.08c0 4.3394-3.5178 7.8571-7.8572 7.8571s-7.8571-3.5178-7.8571-7.8571c0-4.3394 3.5178-7.8572 7.8571-7.8572 4.3394 0 7.8572 3.5178 7.8572 7.8572z" sodipodi:ry="7.8571429" transform="matrix(.75118 0 0 .75118 314.05 -58.99)" sodipodi:cy="913.07648" sodipodi:cx="552.14288" inkscape:tile-y0="921.91982"/>
      <path id="path15480" sodipodi:rx="7.8571429" sodipodi:ry="7.8571429" style="color:#000000;stroke:#000000;stroke-width:3;fill:#ffff00" sodipodi:type="arc" d="m560 913.08c0 4.3394-3.5178 7.8571-7.8572 7.8571s-7.8571-3.5178-7.8571-7.8571c0-4.3394 3.5178-7.8572 7.8571-7.8572 4.3394 0 7.8572 3.5178 7.8572 7.8572z" inkscape:tile-x0="970.97721" transform="matrix(.75118 0 0 .75118 440.65 144.37)" sodipodi:cy="913.07648" sodipodi:cx="552.14288" inkscape:tile-y0="921.91982"/>
      <path id="path15482" sodipodi:rx="7.8571429" sodipodi:ry="7.8571429" style="color:#000000;stroke:#000000;stroke-width:3;fill:#ffff00" sodipodi:type="arc" d="m560 913.08c0 4.3394-3.5178 7.8571-7.8572 7.8571s-7.8571-3.5178-7.8571-7.8571c0-4.3394 3.5178-7.8572 7.8571-7.8572 4.3394 0 7.8572 3.5178 7.8572 7.8572z" inkscape:tile-x0="970.97721" transform="matrix(.75118 0 0 .75118 447.73 157.59)" sodipodi:cy="913.07648" sodipodi:cx="552.14288" inkscape:tile-y0="921.91982"/>
      <path id="path15484" sodipodi:rx="7.8571429" sodipodi:ry="7.8571429" style="color:#000000;stroke:#000000;stroke-width:3;fill:#ffff00" sodipodi:type="arc" d="m560 913.08c0 4.3394-3.5178 7.8571-7.8572 7.8571s-7.8571-3.5178-7.8571-7.8571c0-4.3394 3.5178-7.8572 7.8571-7.8572 4.3394 0 7.8572 3.5178 7.8572 7.8572z" inkscape:tile-x0="970.97721" transform="matrix(.75118 0 0 .75118 411.73 65.045)" sodipodi:cy="913.07648" sodipodi:cx="552.14288" inkscape:tile-y0="921.91982"/>
      <path id="path15642" sodipodi:rx="7.8571429" inkscape:tile-x0="970.97721" style="color:#000000;stroke:#000000;stroke-width:3;fill:#ffff00" sodipodi:type="arc" d="m560 913.08c0 4.3394-3.5178 7.8571-7.8572 7.8571s-7.8571-3.5178-7.8571-7.8571c0-4.3394 3.5178-7.8572 7.8571-7.8572 4.3394 0 7.8572 3.5178 7.8572 7.8572z" sodipodi:ry="7.8571429" transform="matrix(.75118 0 0 .75118 315.5 -286.07)" sodipodi:cy="913.07648" sodipodi:cx="552.14288" inkscape:tile-y0="921.91982"/>
      <path id="path15586" sodipodi:rx="7.8571429" sodipodi:ry="7.8571429" style="color:#000000;stroke:#000000;stroke-width:3;fill:#ffff00" sodipodi:type="arc" d="m560 913.08c0 4.3394-3.5178 7.8571-7.8572 7.8571s-7.8571-3.5178-7.8571-7.8571c0-4.3394 3.5178-7.8572 7.8571-7.8572 4.3394 0 7.8572 3.5178 7.8572 7.8572z" inkscape:tile-x0="970.97721" transform="matrix(.75118 0 0 .75118 380.69 -104.92)" sodipodi:cy="913.07648" sodipodi:cx="552.14288" inkscape:tile-y0="921.91982"/>
      <path id="path15486" sodipodi:rx="7.8571429" sodipodi:ry="7.8571429" style="color:#000000;stroke:#000000;stroke-width:3;fill:#ffff00" sodipodi:type="arc" d="m560 913.08c0 4.3394-3.5178 7.8571-7.8572 7.8571s-7.8571-3.5178-7.8571-7.8571c0-4.3394 3.5178-7.8572 7.8571-7.8572 4.3394 0 7.8572 3.5178 7.8572 7.8572z" inkscape:tile-x0="970.97721" transform="matrix(.75118 0 0 .75118 418.81 78.266)" sodipodi:cy="913.07648" sodipodi:cx="552.14288" inkscape:tile-y0="921.91982"/>
      <path id="path15644" sodipodi:rx="7.8571429" inkscape:tile-x0="970.97721" style="color:#000000;stroke:#000000;stroke-width:3;fill:#ffff00" sodipodi:type="arc" d="m560 913.08c0 4.3394-3.5178 7.8571-7.8572 7.8571s-7.8571-3.5178-7.8571-7.8571c0-4.3394 3.5178-7.8572 7.8571-7.8572 4.3394 0 7.8572 3.5178 7.8572 7.8572z" sodipodi:ry="7.8571429" transform="matrix(.75118 0 0 .75118 322.58 -272.85)" sodipodi:cy="913.07648" sodipodi:cx="552.14288" inkscape:tile-y0="921.91982"/>
      <path id="path15588" sodipodi:rx="7.8571429" sodipodi:ry="7.8571429" style="color:#000000;stroke:#000000;stroke-width:3;fill:#ffff00" sodipodi:type="arc" d="m560 913.08c0 4.3394-3.5178 7.8571-7.8572 7.8571s-7.8571-3.5178-7.8571-7.8571c0-4.3394 3.5178-7.8572 7.8571-7.8572 4.3394 0 7.8572 3.5178 7.8572 7.8572z" inkscape:tile-x0="970.97721" transform="matrix(.75118 0 0 .75118 387.77 -91.695)" sodipodi:cy="913.07648" sodipodi:cx="552.14288" inkscape:tile-y0="921.91982"/>
      <path id="path15488" sodipodi:rx="7.8571429" sodipodi:ry="7.8571429" style="color:#000000;stroke:#000000;stroke-width:3;fill:#ffff00" sodipodi:type="arc" d="m560 913.08c0 4.3394-3.5178 7.8571-7.8572 7.8571s-7.8571-3.5178-7.8571-7.8571c0-4.3394 3.5178-7.8572 7.8571-7.8572 4.3394 0 7.8572 3.5178 7.8572 7.8572z" inkscape:tile-x0="970.97721" transform="matrix(.75118 0 0 .75118 425.9 91.487)" sodipodi:cy="913.07648" sodipodi:cx="552.14288" inkscape:tile-y0="921.91982"/>
      <path id="path15646" sodipodi:rx="7.8571429" inkscape:tile-x0="970.97721" style="color:#000000;stroke:#000000;stroke-width:3;fill:#ffff00" sodipodi:type="arc" d="m560 913.08c0 4.3394-3.5178 7.8571-7.8572 7.8571s-7.8571-3.5178-7.8571-7.8571c0-4.3394 3.5178-7.8572 7.8571-7.8572 4.3394 0 7.8572 3.5178 7.8572 7.8572z" sodipodi:ry="7.8571429" transform="matrix(.75118 0 0 .75118 329.66 -259.63)" sodipodi:cy="913.07648" sodipodi:cx="552.14288" inkscape:tile-y0="921.91982"/>
      <path id="path15590" sodipodi:rx="7.8571429" sodipodi:ry="7.8571429" style="color:#000000;stroke:#000000;stroke-width:3;fill:#ffff00" sodipodi:type="arc" d="m560 913.08c0 4.3394-3.5178 7.8571-7.8572 7.8571s-7.8571-3.5178-7.8571-7.8571c0-4.3394 3.5178-7.8572 7.8571-7.8572 4.3394 0 7.8572 3.5178 7.8572 7.8572z" inkscape:tile-x0="970.97721" transform="matrix(.75118 0 0 .75118 394.85 -78.474)" sodipodi:cy="913.07648" sodipodi:cx="552.14288" inkscape:tile-y0="921.91982"/>
      <path id="path15490" sodipodi:rx="7.8571429" sodipodi:ry="7.8571429" style="color:#000000;stroke:#000000;stroke-width:3;fill:#ffff00" sodipodi:type="arc" d="m560 913.08c0 4.3394-3.5178 7.8571-7.8572 7.8571s-7.8571-3.5178-7.8571-7.8571c0-4.3394 3.5178-7.8572 7.8571-7.8572 4.3394 0 7.8572 3.5178 7.8572 7.8572z" inkscape:tile-x0="970.97721" transform="matrix(.75118 0 0 .75118 432.98 104.71)" sodipodi:cy="913.07648" sodipodi:cx="552.14288" inkscape:tile-y0="921.91982"/>
      <path id="path15648" sodipodi:rx="7.8571429" inkscape:tile-x0="970.97721" style="color:#000000;stroke:#000000;stroke-width:3;fill:#ffff00" sodipodi:type="arc" d="m560 913.08c0 4.3394-3.5178 7.8571-7.8572 7.8571s-7.8571-3.5178-7.8571-7.8571c0-4.3394 3.5178-7.8572 7.8571-7.8572 4.3394 0 7.8572 3.5178 7.8572 7.8572z" sodipodi:ry="7.8571429" transform="matrix(.75118 0 0 .75118 336.74 -246.41)" sodipodi:cy="913.07648" sodipodi:cx="552.14288" inkscape:tile-y0="921.91982"/>
      <path id="path15356" sodipodi:rx="7.8571429" inkscape:tile-x0="970.97721" style="color:#000000;stroke:#000000;stroke-width:3;fill:#ffff00" sodipodi:type="arc" d="m560 913.08c0 4.3394-3.5178 7.8571-7.8572 7.8571s-7.8571-3.5178-7.8571-7.8571c0-4.3394 3.5178-7.8572 7.8571-7.8572 4.3394 0 7.8572 3.5178 7.8572 7.8572z" sodipodi:ry="7.8571429" transform="matrix(.75118 0 0 .75118 313.46 -85.432)" sodipodi:cy="913.07648" sodipodi:cx="552.14288" inkscape:tile-y0="921.91982"/>
      <path id="path15492" sodipodi:rx="7.8571429" sodipodi:ry="7.8571429" style="color:#000000;stroke:#000000;stroke-width:3;fill:#ffff00" sodipodi:type="arc" d="m560 913.08c0 4.3394-3.5178 7.8571-7.8572 7.8571s-7.8571-3.5178-7.8571-7.8571c0-4.3394 3.5178-7.8572 7.8571-7.8572 4.3394 0 7.8572 3.5178 7.8572 7.8572z" inkscape:tile-x0="970.97721" transform="matrix(.75118 0 0 .75118 440.06 117.93)" sodipodi:cy="913.07648" sodipodi:cx="552.14288" inkscape:tile-y0="921.91982"/>
      <path id="path15650" sodipodi:rx="7.8571429" inkscape:tile-x0="970.97721" style="color:#000000;stroke:#000000;stroke-width:3;fill:#ffff00" sodipodi:type="arc" d="m560 913.08c0 4.3394-3.5178 7.8571-7.8572 7.8571s-7.8571-3.5178-7.8571-7.8571c0-4.3394 3.5178-7.8572 7.8571-7.8572 4.3394 0 7.8572 3.5178 7.8572 7.8572z" sodipodi:ry="7.8571429" transform="matrix(.75118 0 0 .75118 343.83 -233.19)" sodipodi:cy="913.07648" sodipodi:cx="552.14288" inkscape:tile-y0="921.91982"/>
      <path id="path15358" sodipodi:rx="7.8571429" inkscape:tile-x0="970.97721" style="color:#000000;stroke:#000000;stroke-width:3;fill:#ffff00" sodipodi:type="arc" d="m560 913.08c0 4.3394-3.5178 7.8571-7.8572 7.8571s-7.8571-3.5178-7.8571-7.8571c0-4.3394 3.5178-7.8572 7.8571-7.8572 4.3394 0 7.8572 3.5178 7.8572 7.8572z" sodipodi:ry="7.8571429" transform="matrix(.75118 0 0 .75118 320.54 -72.211)" sodipodi:cy="913.07648" sodipodi:cx="552.14288" inkscape:tile-y0="921.91982"/>
      <path id="path15494" sodipodi:rx="7.8571429" sodipodi:ry="7.8571429" style="color:#000000;stroke:#000000;stroke-width:3;fill:#ffff00" sodipodi:type="arc" d="m560 913.08c0 4.3394-3.5178 7.8571-7.8572 7.8571s-7.8571-3.5178-7.8571-7.8571c0-4.3394 3.5178-7.8572 7.8571-7.8572 4.3394 0 7.8572 3.5178 7.8572 7.8572z" inkscape:tile-x0="970.97721" transform="matrix(.75118 0 0 .75118 447.14 131.15)" sodipodi:cy="913.07648" sodipodi:cx="552.14288" inkscape:tile-y0="921.91982"/>
      <path id="path15652" sodipodi:rx="7.8571429" inkscape:tile-x0="970.97721" style="color:#000000;stroke:#000000;stroke-width:3;fill:#ffff00" sodipodi:type="arc" d="m560 913.08c0 4.3394-3.5178 7.8571-7.8572 7.8571s-7.8571-3.5178-7.8571-7.8571c0-4.3394 3.5178-7.8572 7.8571-7.8572 4.3394 0 7.8572 3.5178 7.8572 7.8572z" sodipodi:ry="7.8571429" transform="matrix(.75118 0 0 .75118 350.91 -219.97)" sodipodi:cy="913.07648" sodipodi:cx="552.14288" inkscape:tile-y0="921.91982"/>
      <path id="path15496" sodipodi:rx="7.8571429" sodipodi:ry="7.8571429" style="color:#000000;stroke:#000000;stroke-width:3;fill:#ffff00" sodipodi:type="arc" d="m560 913.08c0 4.3394-3.5178 7.8571-7.8572 7.8571s-7.8571-3.5178-7.8571-7.8571c0-4.3394 3.5178-7.8572 7.8571-7.8572 4.3394 0 7.8572 3.5178 7.8572 7.8572z" inkscape:tile-x0="970.97721" transform="matrix(.75118 0 0 .75118 454.23 144.37)" sodipodi:cy="913.07648" sodipodi:cx="552.14288" inkscape:tile-y0="921.91982"/>
      <path id="path15498" sodipodi:rx="7.8571429" sodipodi:ry="7.8571429" style="color:#000000;stroke:#000000;stroke-width:3;fill:#ffff00" sodipodi:type="arc" d="m560 913.08c0 4.3394-3.5178 7.8571-7.8572 7.8571s-7.8571-3.5178-7.8571-7.8571c0-4.3394 3.5178-7.8572 7.8571-7.8572 4.3394 0 7.8572 3.5178 7.8572 7.8572z" inkscape:tile-x0="970.97721" transform="matrix(.75118 0 0 .75118 461.31 157.59)" sodipodi:cy="913.07648" sodipodi:cx="552.14288" inkscape:tile-y0="921.91982"/>
      <path id="path15366" sodipodi:rx="7.8571429" inkscape:tile-x0="970.97721" style="color:#000000;stroke:#000000;stroke-width:3;fill:#ffff00" sodipodi:type="arc" d="m560 913.08c0 4.3394-3.5178 7.8571-7.8572 7.8571s-7.8571-3.5178-7.8571-7.8571c0-4.3394 3.5178-7.8572 7.8571-7.8572 4.3394 0 7.8572 3.5178 7.8572 7.8572z" sodipodi:ry="7.8571429" transform="matrix(.75118 0 0 .75118 418.22 51.825)" sodipodi:cy="913.07648" sodipodi:cx="552.14288" inkscape:tile-y0="921.91982"/>
      <path id="path15500" sodipodi:rx="7.8571429" sodipodi:ry="7.8571429" style="color:#000000;stroke:#000000;stroke-width:3;fill:#ffff00" sodipodi:type="arc" d="m560 913.08c0 4.3394-3.5178 7.8571-7.8572 7.8571s-7.8571-3.5178-7.8571-7.8571c0-4.3394 3.5178-7.8572 7.8571-7.8572 4.3394 0 7.8572 3.5178 7.8572 7.8572z" inkscape:tile-x0="970.97721" transform="matrix(.75118 0 0 .75118 425.31 65.045)" sodipodi:cy="913.07648" sodipodi:cx="552.14288" inkscape:tile-y0="921.91982"/>
      <path id="path15654" sodipodi:rx="7.8571429" inkscape:tile-x0="970.97721" style="color:#000000;stroke:#000000;stroke-width:3;fill:#ffff00" sodipodi:type="arc" d="m560 913.08c0 4.3394-3.5178 7.8571-7.8572 7.8571s-7.8571-3.5178-7.8571-7.8571c0-4.3394 3.5178-7.8572 7.8571-7.8572 4.3394 0 7.8572 3.5178 7.8572 7.8572z" sodipodi:ry="7.8571429" transform="matrix(.75118 0 0 .75118 329.07 -286.07)" sodipodi:cy="913.07648" sodipodi:cx="552.14288" inkscape:tile-y0="921.91982"/>
      <path id="path15598" sodipodi:rx="7.8571429" sodipodi:ry="7.8571429" style="color:#000000;stroke:#000000;stroke-width:3;fill:#ffff00" sodipodi:type="arc" d="m560 913.08c0 4.3394-3.5178 7.8571-7.8572 7.8571s-7.8571-3.5178-7.8571-7.8571c0-4.3394 3.5178-7.8572 7.8571-7.8572 4.3394 0 7.8572 3.5178 7.8572 7.8572z" inkscape:tile-x0="970.97721" transform="matrix(.75118 0 0 .75118 394.26 -104.92)" sodipodi:cy="913.07648" sodipodi:cx="552.14288" inkscape:tile-y0="921.91982"/>
      <path id="path15502" sodipodi:rx="7.8571429" sodipodi:ry="7.8571429" style="color:#000000;stroke:#000000;stroke-width:3;fill:#ffff00" sodipodi:type="arc" d="m560 913.08c0 4.3394-3.5178 7.8571-7.8572 7.8571s-7.8571-3.5178-7.8571-7.8571c0-4.3394 3.5178-7.8572 7.8571-7.8572 4.3394 0 7.8572 3.5178 7.8572 7.8572z" inkscape:tile-x0="970.97721" transform="matrix(.75118 0 0 .75118 432.39 78.266)" sodipodi:cy="913.07648" sodipodi:cx="552.14288" inkscape:tile-y0="921.91982"/>
      <path id="path15656" sodipodi:rx="7.8571429" inkscape:tile-x0="970.97721" style="color:#000000;stroke:#000000;stroke-width:3;fill:#ffff00" sodipodi:type="arc" d="m560 913.08c0 4.3394-3.5178 7.8571-7.8572 7.8571s-7.8571-3.5178-7.8571-7.8571c0-4.3394 3.5178-7.8572 7.8571-7.8572 4.3394 0 7.8572 3.5178 7.8572 7.8572z" sodipodi:ry="7.8571429" transform="matrix(.75118 0 0 .75118 336.15 -272.85)" sodipodi:cy="913.07648" sodipodi:cx="552.14288" inkscape:tile-y0="921.91982"/>
      <path id="path15600" sodipodi:rx="7.8571429" sodipodi:ry="7.8571429" style="color:#000000;stroke:#000000;stroke-width:3;fill:#ffff00" sodipodi:type="arc" d="m560 913.08c0 4.3394-3.5178 7.8571-7.8572 7.8571s-7.8571-3.5178-7.8571-7.8571c0-4.3394 3.5178-7.8572 7.8571-7.8572 4.3394 0 7.8572 3.5178 7.8572 7.8572z" inkscape:tile-x0="970.97721" transform="matrix(.75118 0 0 .75118 401.35 -91.695)" sodipodi:cy="913.07648" sodipodi:cx="552.14288" inkscape:tile-y0="921.91982"/>
      <path id="path15236" sodipodi:rx="7.8571429" sodipodi:ry="7.8571429" style="color:#000000;stroke:#000000;stroke-width:3;fill:#ffff00" sodipodi:type="arc" d="m560 913.08c0 4.3394-3.5178 7.8571-7.8572 7.8571s-7.8571-3.5178-7.8571-7.8571c0-4.3394 3.5178-7.8572 7.8571-7.8572 4.3394 0 7.8572 3.5178 7.8572 7.8572z" inkscape:tile-x0="970.97721" transform="matrix(.75118 0 0 .75118 87.033 -76.95)" sodipodi:cy="913.07648" sodipodi:cx="552.14288" inkscape:tile-y0="921.91982"/>
      <path id="path15504" sodipodi:rx="7.8571429" sodipodi:ry="7.8571429" style="color:#000000;stroke:#000000;stroke-width:3;fill:#ffff00" sodipodi:type="arc" d="m560 913.08c0 4.3394-3.5178 7.8571-7.8572 7.8571s-7.8571-3.5178-7.8571-7.8571c0-4.3394 3.5178-7.8572 7.8571-7.8572 4.3394 0 7.8572 3.5178 7.8572 7.8572z" inkscape:tile-x0="970.97721" transform="matrix(.75118 0 0 .75118 439.47 91.487)" sodipodi:cy="913.07648" sodipodi:cx="552.14288" inkscape:tile-y0="921.91982"/>
      <path id="path15658" sodipodi:rx="7.8571429" inkscape:tile-x0="970.97721" style="color:#000000;stroke:#000000;stroke-width:3;fill:#ffff00" sodipodi:type="arc" d="m560 913.08c0 4.3394-3.5178 7.8571-7.8572 7.8571s-7.8571-3.5178-7.8571-7.8571c0-4.3394 3.5178-7.8572 7.8571-7.8572 4.3394 0 7.8572 3.5178 7.8572 7.8572z" sodipodi:ry="7.8571429" transform="matrix(.75118 0 0 .75118 343.24 -259.63)" sodipodi:cy="913.07648" sodipodi:cx="552.14288" inkscape:tile-y0="921.91982"/>
      <path id="path15602" sodipodi:rx="7.8571429" sodipodi:ry="7.8571429" style="color:#000000;stroke:#000000;stroke-width:3;fill:#ffff00" sodipodi:type="arc" d="m560 913.08c0 4.3394-3.5178 7.8571-7.8572 7.8571s-7.8571-3.5178-7.8571-7.8571c0-4.3394 3.5178-7.8572 7.8571-7.8572 4.3394 0 7.8572 3.5178 7.8572 7.8572z" inkscape:tile-x0="970.97721" transform="matrix(.75118 0 0 .75118 408.43 -78.474)" sodipodi:cy="913.07648" sodipodi:cx="552.14288" inkscape:tile-y0="921.91982"/>
      <path id="path15238" sodipodi:rx="7.8571429" sodipodi:ry="7.8571429" style="color:#000000;stroke:#000000;stroke-width:3;fill:#ffff00" sodipodi:type="arc" d="m560 913.08c0 4.3394-3.5178 7.8571-7.8572 7.8571s-7.8571-3.5178-7.8571-7.8571c0-4.3394 3.5178-7.8572 7.8571-7.8572 4.3394 0 7.8572 3.5178 7.8572 7.8572z" inkscape:tile-x0="970.97721" transform="matrix(.75118 0 0 .75118 94.116 -63.729)" sodipodi:cy="913.07648" sodipodi:cx="552.14288" inkscape:tile-y0="921.91982"/>
      <path id="use8709" sodipodi:rx="7.8571429" inkscape:tile-x0="970.97721" style="color:#000000;stroke:#000000;stroke-width:3;fill:#ffff00" sodipodi:type="arc" d="m560 913.08c0 4.3394-3.5178 7.8571-7.8572 7.8571s-7.8571-3.5178-7.8571-7.8571c0-4.3394 3.5178-7.8572 7.8571-7.8572 4.3394 0 7.8572 3.5178 7.8572 7.8572z" sodipodi:ry="7.8571429" transform="matrix(.75118 0 0 .75118 239.24 27.848)" sodipodi:cy="913.07648" sodipodi:cx="552.14288" inkscape:tile-y0="921.91982"/>
      <path id="path15506" sodipodi:rx="7.8571429" sodipodi:ry="7.8571429" style="color:#000000;stroke:#000000;stroke-width:3;fill:#ffff00" sodipodi:type="arc" d="m560 913.08c0 4.3394-3.5178 7.8571-7.8572 7.8571s-7.8571-3.5178-7.8571-7.8571c0-4.3394 3.5178-7.8572 7.8571-7.8572 4.3394 0 7.8572 3.5178 7.8572 7.8572z" inkscape:tile-x0="970.97721" transform="matrix(.75118 0 0 .75118 446.55 104.71)" sodipodi:cy="913.07648" sodipodi:cx="552.14288" inkscape:tile-y0="921.91982"/>
      <path id="path15660" sodipodi:rx="7.8571429" inkscape:tile-x0="970.97721" style="color:#000000;stroke:#000000;stroke-width:3;fill:#ffff00" sodipodi:type="arc" d="m560 913.08c0 4.3394-3.5178 7.8571-7.8572 7.8571s-7.8571-3.5178-7.8571-7.8571c0-4.3394 3.5178-7.8572 7.8571-7.8572 4.3394 0 7.8572 3.5178 7.8572 7.8572z" sodipodi:ry="7.8571429" transform="matrix(.75118 0 0 .75118 350.32 -246.41)" sodipodi:cy="913.07648" sodipodi:cx="552.14288" inkscape:tile-y0="921.91982"/>
      <path id="path15240" sodipodi:rx="7.8571429" sodipodi:ry="7.8571429" style="color:#000000;stroke:#000000;stroke-width:3;fill:#ffff00" sodipodi:type="arc" d="m560 913.08c0 4.3394-3.5178 7.8571-7.8572 7.8571s-7.8571-3.5178-7.8571-7.8571c0-4.3394 3.5178-7.8572 7.8571-7.8572 4.3394 0 7.8572 3.5178 7.8572 7.8572z" inkscape:tile-x0="970.97721" transform="matrix(.75118 0 0 .75118 101.2 -50.508)" sodipodi:cy="913.07648" sodipodi:cx="552.14288" inkscape:tile-y0="921.91982"/>
      <path id="use8711" sodipodi:rx="7.8571429" inkscape:tile-x0="970.97721" style="color:#000000;stroke:#000000;stroke-width:3;fill:#ffff00" sodipodi:type="arc" d="m560 913.08c0 4.3394-3.5178 7.8571-7.8572 7.8571s-7.8571-3.5178-7.8571-7.8571c0-4.3394 3.5178-7.8572 7.8571-7.8572 4.3394 0 7.8572 3.5178 7.8572 7.8572z" sodipodi:ry="7.8571429" transform="matrix(.75118 0 0 .75118 246.33 41.069)" sodipodi:cy="913.07648" sodipodi:cx="552.14288" inkscape:tile-y0="921.91982"/>
      <path id="path15508" sodipodi:rx="7.8571429" sodipodi:ry="7.8571429" style="color:#000000;stroke:#000000;stroke-width:3;fill:#ffff00" sodipodi:type="arc" d="m560 913.08c0 4.3394-3.5178 7.8571-7.8572 7.8571s-7.8571-3.5178-7.8571-7.8571c0-4.3394 3.5178-7.8572 7.8571-7.8572 4.3394 0 7.8572 3.5178 7.8572 7.8572z" inkscape:tile-x0="970.97721" transform="matrix(.75118 0 0 .75118 453.64 117.93)" sodipodi:cy="913.07648" sodipodi:cx="552.14288" inkscape:tile-y0="921.91982"/>
      <path id="path15662" sodipodi:rx="7.8571429" inkscape:tile-x0="970.97721" style="color:#000000;stroke:#000000;stroke-width:3;fill:#ffff00" sodipodi:type="arc" d="m560 913.08c0 4.3394-3.5178 7.8571-7.8572 7.8571s-7.8571-3.5178-7.8571-7.8571c0-4.3394 3.5178-7.8572 7.8571-7.8572 4.3394 0 7.8572 3.5178 7.8572 7.8572z" sodipodi:ry="7.8571429" transform="matrix(.75118 0 0 .75118 357.4 -233.19)" sodipodi:cy="913.07648" sodipodi:cx="552.14288" inkscape:tile-y0="921.91982"/>
      <path id="path15510" sodipodi:rx="7.8571429" sodipodi:ry="7.8571429" style="color:#000000;stroke:#000000;stroke-width:3;fill:#ffff00" sodipodi:type="arc" d="m560 913.08c0 4.3394-3.5178 7.8571-7.8572 7.8571s-7.8571-3.5178-7.8571-7.8571c0-4.3394 3.5178-7.8572 7.8571-7.8572 4.3394 0 7.8572 3.5178 7.8572 7.8572z" inkscape:tile-x0="970.97721" transform="matrix(.75118 0 0 .75118 460.72 131.15)" sodipodi:cy="913.07648" sodipodi:cx="552.14288" inkscape:tile-y0="921.91982"/>
      <path id="path15512" sodipodi:rx="7.8571429" sodipodi:ry="7.8571429" style="color:#000000;stroke:#000000;stroke-width:3;fill:#ffff00" sodipodi:type="arc" d="m560 913.08c0 4.3394-3.5178 7.8571-7.8572 7.8571s-7.8571-3.5178-7.8571-7.8571c0-4.3394 3.5178-7.8572 7.8571-7.8572 4.3394 0 7.8572 3.5178 7.8572 7.8572z" inkscape:tile-x0="970.97721" transform="matrix(.75118 0 0 .75118 467.8 144.37)" sodipodi:cy="913.07648" sodipodi:cx="552.14288" inkscape:tile-y0="921.91982"/>
      <path id="path15514" sodipodi:rx="7.8571429" sodipodi:ry="7.8571429" style="color:#000000;stroke:#000000;stroke-width:3;fill:#ffff00" sodipodi:type="arc" d="m560 913.08c0 4.3394-3.5178 7.8571-7.8572 7.8571s-7.8571-3.5178-7.8571-7.8571c0-4.3394 3.5178-7.8572 7.8571-7.8572 4.3394 0 7.8572 3.5178 7.8572 7.8572z" inkscape:tile-x0="970.97721" transform="matrix(.75118 0 0 .75118 474.88 157.59)" sodipodi:cy="913.07648" sodipodi:cx="552.14288" inkscape:tile-y0="921.91982"/>
      <path id="path15384" sodipodi:rx="7.8571429" inkscape:tile-x0="970.97721" style="color:#000000;stroke:#000000;stroke-width:3;fill:#ffff00" sodipodi:type="arc" d="m560 913.08c0 4.3394-3.5178 7.8571-7.8572 7.8571s-7.8571-3.5178-7.8571-7.8571c0-4.3394 3.5178-7.8572 7.8571-7.8572 4.3394 0 7.8572 3.5178 7.8572 7.8572z" sodipodi:ry="7.8571429" transform="matrix(.75118 0 0 .75118 431.8 51.825)" sodipodi:cy="913.07648" sodipodi:cx="552.14288" inkscape:tile-y0="921.91982"/>
      <path id="path15516" sodipodi:rx="7.8571429" sodipodi:ry="7.8571429" style="color:#000000;stroke:#000000;stroke-width:3;fill:#ffff00" sodipodi:type="arc" d="m560 913.08c0 4.3394-3.5178 7.8571-7.8572 7.8571s-7.8571-3.5178-7.8571-7.8571c0-4.3394 3.5178-7.8572 7.8571-7.8572 4.3394 0 7.8572 3.5178 7.8572 7.8572z" inkscape:tile-x0="970.97721" transform="matrix(.75118 0 0 .75118 438.88 65.045)" sodipodi:cy="913.07648" sodipodi:cx="552.14288" inkscape:tile-y0="921.91982"/>
      <path id="path15664" sodipodi:rx="7.8571429" inkscape:tile-x0="970.97721" style="color:#000000;stroke:#000000;stroke-width:3;fill:#ffff00" sodipodi:type="arc" d="m560 913.08c0 4.3394-3.5178 7.8571-7.8572 7.8571s-7.8571-3.5178-7.8571-7.8571c0-4.3394 3.5178-7.8572 7.8571-7.8572 4.3394 0 7.8572 3.5178 7.8572 7.8572z" sodipodi:ry="7.8571429" transform="matrix(.75118 0 0 .75118 342.65 -286.07)" sodipodi:cy="913.07648" sodipodi:cx="552.14288" inkscape:tile-y0="921.91982"/>
      <path id="path15252" sodipodi:rx="7.8571429" sodipodi:ry="7.8571429" style="color:#000000;stroke:#000000;stroke-width:3;fill:#ffff00" sodipodi:type="arc" d="m560 913.08c0 4.3394-3.5178 7.8571-7.8572 7.8571s-7.8571-3.5178-7.8571-7.8571c0-4.3394 3.5178-7.8572 7.8571-7.8572 4.3394 0 7.8572 3.5178 7.8572 7.8572z" inkscape:tile-x0="970.97721" transform="matrix(.75118 0 0 .75118 93.526 -90.17)" sodipodi:cy="913.07648" sodipodi:cx="552.14288" inkscape:tile-y0="921.91982"/>
      <path id="path15518" sodipodi:rx="7.8571429" sodipodi:ry="7.8571429" style="color:#000000;stroke:#000000;stroke-width:3;fill:#ffff00" sodipodi:type="arc" d="m560 913.08c0 4.3394-3.5178 7.8571-7.8572 7.8571s-7.8571-3.5178-7.8571-7.8571c0-4.3394 3.5178-7.8572 7.8571-7.8572 4.3394 0 7.8572 3.5178 7.8572 7.8572z" inkscape:tile-x0="970.97721" transform="matrix(.75118 0 0 .75118 445.96 78.266)" sodipodi:cy="913.07648" sodipodi:cx="552.14288" inkscape:tile-y0="921.91982"/>
      <path id="path15666" sodipodi:rx="7.8571429" inkscape:tile-x0="970.97721" style="color:#000000;stroke:#000000;stroke-width:3;fill:#ffff00" sodipodi:type="arc" d="m560 913.08c0 4.3394-3.5178 7.8571-7.8572 7.8571s-7.8571-3.5178-7.8571-7.8571c0-4.3394 3.5178-7.8572 7.8571-7.8572 4.3394 0 7.8572 3.5178 7.8572 7.8572z" sodipodi:ry="7.8571429" transform="matrix(.75118 0 0 .75118 349.73 -272.85)" sodipodi:cy="913.07648" sodipodi:cx="552.14288" inkscape:tile-y0="921.91982"/>
      <path id="path15254" sodipodi:rx="7.8571429" sodipodi:ry="7.8571429" style="color:#000000;stroke:#000000;stroke-width:3;fill:#ffff00" sodipodi:type="arc" d="m560 913.08c0 4.3394-3.5178 7.8571-7.8572 7.8571s-7.8571-3.5178-7.8571-7.8571c0-4.3394 3.5178-7.8572 7.8571-7.8572 4.3394 0 7.8572 3.5178 7.8572 7.8572z" inkscape:tile-x0="970.97721" transform="matrix(.75118 0 0 .75118 100.61 -76.95)" sodipodi:cy="913.07648" sodipodi:cx="552.14288" inkscape:tile-y0="921.91982"/>
      <path id="use8733" sodipodi:rx="7.8571429" inkscape:tile-x0="970.97721" style="color:#000000;stroke:#000000;stroke-width:3;fill:#ffff00" sodipodi:type="arc" d="m560 913.08c0 4.3394-3.5178 7.8571-7.8572 7.8571s-7.8571-3.5178-7.8571-7.8571c0-4.3394 3.5178-7.8572 7.8571-7.8572 4.3394 0 7.8572 3.5178 7.8572 7.8572z" sodipodi:ry="7.8571429" transform="matrix(.75118 0 0 .75118 245.74 14.628)" sodipodi:cy="913.07648" sodipodi:cx="552.14288" inkscape:tile-y0="921.91982"/>
      <path id="path15520" sodipodi:rx="7.8571429" sodipodi:ry="7.8571429" style="color:#000000;stroke:#000000;stroke-width:3;fill:#ffff00" sodipodi:type="arc" d="m560 913.08c0 4.3394-3.5178 7.8571-7.8572 7.8571s-7.8571-3.5178-7.8571-7.8571c0-4.3394 3.5178-7.8572 7.8571-7.8572 4.3394 0 7.8572 3.5178 7.8572 7.8572z" inkscape:tile-x0="970.97721" transform="matrix(.75118 0 0 .75118 453.05 91.487)" sodipodi:cy="913.07648" sodipodi:cx="552.14288" inkscape:tile-y0="921.91982"/>
      <path id="path15668" sodipodi:rx="7.8571429" inkscape:tile-x0="970.97721" style="color:#000000;stroke:#000000;stroke-width:3;fill:#ffff00" sodipodi:type="arc" d="m560 913.08c0 4.3394-3.5178 7.8571-7.8572 7.8571s-7.8571-3.5178-7.8571-7.8571c0-4.3394 3.5178-7.8572 7.8571-7.8572 4.3394 0 7.8572 3.5178 7.8572 7.8572z" sodipodi:ry="7.8571429" transform="matrix(.75118 0 0 .75118 356.81 -259.63)" sodipodi:cy="913.07648" sodipodi:cx="552.14288" inkscape:tile-y0="921.91982"/>
      <path id="path15256" sodipodi:rx="7.8571429" sodipodi:ry="7.8571429" style="color:#000000;stroke:#000000;stroke-width:3;fill:#ffff00" sodipodi:type="arc" d="m560 913.08c0 4.3394-3.5178 7.8571-7.8572 7.8571s-7.8571-3.5178-7.8571-7.8571c0-4.3394 3.5178-7.8572 7.8571-7.8572 4.3394 0 7.8572 3.5178 7.8572 7.8572z" inkscape:tile-x0="970.97721" transform="matrix(.75118 0 0 .75118 107.69 -63.729)" sodipodi:cy="913.07648" sodipodi:cx="552.14288" inkscape:tile-y0="921.91982"/>
      <path id="use8735" sodipodi:rx="7.8571429" inkscape:tile-x0="970.97721" style="color:#000000;stroke:#000000;stroke-width:3;fill:#ffff00" sodipodi:type="arc" d="m560 913.08c0 4.3394-3.5178 7.8571-7.8572 7.8571s-7.8571-3.5178-7.8571-7.8571c0-4.3394 3.5178-7.8572 7.8571-7.8572 4.3394 0 7.8572 3.5178 7.8572 7.8572z" sodipodi:ry="7.8571429" transform="matrix(.75118 0 0 .75118 252.82 27.848)" sodipodi:cy="913.07648" sodipodi:cx="552.14288" inkscape:tile-y0="921.91982"/>
      <path id="path15522" sodipodi:rx="7.8571429" sodipodi:ry="7.8571429" style="color:#000000;stroke:#000000;stroke-width:3;fill:#ffff00" sodipodi:type="arc" d="m560 913.08c0 4.3394-3.5178 7.8571-7.8572 7.8571s-7.8571-3.5178-7.8571-7.8571c0-4.3394 3.5178-7.8572 7.8571-7.8572 4.3394 0 7.8572 3.5178 7.8572 7.8572z" inkscape:tile-x0="970.97721" transform="matrix(.75118 0 0 .75118 460.13 104.71)" sodipodi:cy="913.07648" sodipodi:cx="552.14288" inkscape:tile-y0="921.91982"/>
      <path id="path15670" sodipodi:rx="7.8571429" inkscape:tile-x0="970.97721" style="color:#000000;stroke:#000000;stroke-width:3;fill:#ffff00" sodipodi:type="arc" d="m560 913.08c0 4.3394-3.5178 7.8571-7.8572 7.8571s-7.8571-3.5178-7.8571-7.8571c0-4.3394 3.5178-7.8572 7.8571-7.8572 4.3394 0 7.8572 3.5178 7.8572 7.8572z" sodipodi:ry="7.8571429" transform="matrix(.75118 0 0 .75118 363.89 -246.41)" sodipodi:cy="913.07648" sodipodi:cx="552.14288" inkscape:tile-y0="921.91982"/>
      <path id="path15392" sodipodi:rx="7.8571429" inkscape:tile-x0="970.97721" style="color:#000000;stroke:#000000;stroke-width:3;fill:#ffff00" sodipodi:type="arc" d="m560 913.08c0 4.3394-3.5178 7.8571-7.8572 7.8571s-7.8571-3.5178-7.8571-7.8571c0-4.3394 3.5178-7.8572 7.8571-7.8572 4.3394 0 7.8572 3.5178 7.8572 7.8572z" sodipodi:ry="7.8571429" transform="matrix(.75118 0 0 .75118 257.69 -135.88)" sodipodi:cy="913.07648" sodipodi:cx="552.14288" inkscape:tile-y0="921.91982"/>
      <path id="path15258" sodipodi:rx="7.8571429" sodipodi:ry="7.8571429" style="color:#000000;stroke:#000000;stroke-width:3;fill:#ffff00" sodipodi:type="arc" d="m560 913.08c0 4.3394-3.5178 7.8571-7.8572 7.8571s-7.8571-3.5178-7.8571-7.8571c0-4.3394 3.5178-7.8572 7.8571-7.8572 4.3394 0 7.8572 3.5178 7.8572 7.8572z" inkscape:tile-x0="970.97721" transform="matrix(.75118 0 0 .75118 114.77 -50.508)" sodipodi:cy="913.07648" sodipodi:cx="552.14288" inkscape:tile-y0="921.91982"/>
      <path id="use8737" sodipodi:rx="7.8571429" inkscape:tile-x0="970.97721" style="color:#000000;stroke:#000000;stroke-width:3;fill:#ffff00" sodipodi:type="arc" d="m560 913.08c0 4.3394-3.5178 7.8571-7.8572 7.8571s-7.8571-3.5178-7.8571-7.8571c0-4.3394 3.5178-7.8572 7.8571-7.8572 4.3394 0 7.8572 3.5178 7.8572 7.8572z" sodipodi:ry="7.8571429" transform="matrix(.75118 0 0 .75118 259.9 41.069)" sodipodi:cy="913.07648" sodipodi:cx="552.14288" inkscape:tile-y0="921.91982"/>
      <path id="path15524" sodipodi:rx="7.8571429" sodipodi:ry="7.8571429" style="color:#000000;stroke:#000000;stroke-width:3;fill:#ffff00" sodipodi:type="arc" d="m560 913.08c0 4.3394-3.5178 7.8571-7.8572 7.8571s-7.8571-3.5178-7.8571-7.8571c0-4.3394 3.5178-7.8572 7.8571-7.8572 4.3394 0 7.8572 3.5178 7.8572 7.8572z" inkscape:tile-x0="970.97721" transform="matrix(.75118 0 0 .75118 467.21 117.93)" sodipodi:cy="913.07648" sodipodi:cx="552.14288" inkscape:tile-y0="921.91982"/>
      <path id="path15526" sodipodi:rx="7.8571429" sodipodi:ry="7.8571429" style="color:#000000;stroke:#000000;stroke-width:3;fill:#ffff00" sodipodi:type="arc" d="m560 913.08c0 4.3394-3.5178 7.8571-7.8572 7.8571s-7.8571-3.5178-7.8571-7.8571c0-4.3394 3.5178-7.8572 7.8571-7.8572 4.3394 0 7.8572 3.5178 7.8572 7.8572z" inkscape:tile-x0="970.97721" transform="matrix(.75118 0 0 .75118 474.29 131.15)" sodipodi:cy="913.07648" sodipodi:cx="552.14288" inkscape:tile-y0="921.91982"/>
      <path id="path15528" sodipodi:rx="7.8571429" sodipodi:ry="7.8571429" style="color:#000000;stroke:#000000;stroke-width:3;fill:#ffff00" sodipodi:type="arc" d="m560 913.08c0 4.3394-3.5178 7.8571-7.8572 7.8571s-7.8571-3.5178-7.8571-7.8571c0-4.3394 3.5178-7.8572 7.8571-7.8572 4.3394 0 7.8572 3.5178 7.8572 7.8572z" inkscape:tile-x0="970.97721" transform="matrix(.75118 0 0 .75118 481.38 144.37)" sodipodi:cy="913.07648" sodipodi:cx="552.14288" inkscape:tile-y0="921.91982"/>
      <path id="path15400" sodipodi:rx="7.8571429" inkscape:tile-x0="970.97721" style="color:#000000;stroke:#000000;stroke-width:3;fill:#ffff00" sodipodi:type="arc" d="m560 913.08c0 4.3394-3.5178 7.8571-7.8572 7.8571s-7.8571-3.5178-7.8571-7.8571c0-4.3394 3.5178-7.8572 7.8571-7.8572 4.3394 0 7.8572 3.5178 7.8572 7.8572z" sodipodi:ry="7.8571429" transform="matrix(.75118 0 0 .75118 445.37 51.825)" sodipodi:cy="913.07648" sodipodi:cx="552.14288" inkscape:tile-y0="921.91982"/>
      <path id="path15266" sodipodi:rx="7.8571429" sodipodi:ry="7.8571429" style="color:#000000;stroke:#000000;stroke-width:3;fill:#ffff00" sodipodi:type="arc" d="m560 913.08c0 4.3394-3.5178 7.8571-7.8572 7.8571s-7.8571-3.5178-7.8571-7.8571c0-4.3394 3.5178-7.8572 7.8571-7.8572 4.3394 0 7.8572 3.5178 7.8572 7.8572z" inkscape:tile-x0="970.97721" transform="matrix(.75118 0 0 .75118 100.02 -103.39)" sodipodi:cy="913.07648" sodipodi:cx="552.14288" inkscape:tile-y0="921.91982"/>
      <path id="use8755" sodipodi:rx="7.8571429" inkscape:tile-x0="970.97721" style="color:#000000;stroke:#000000;stroke-width:3;fill:#ffff00" sodipodi:type="arc" d="m560 913.08c0 4.3394-3.5178 7.8571-7.8572 7.8571s-7.8571-3.5178-7.8571-7.8571c0-4.3394 3.5178-7.8572 7.8571-7.8572 4.3394 0 7.8572 3.5178 7.8572 7.8572z" sodipodi:ry="7.8571429" transform="matrix(.75118 0 0 .75118 245.14 -11.814)" sodipodi:cy="913.07648" sodipodi:cx="552.14288" inkscape:tile-y0="921.91982"/>
      <path id="path15530" sodipodi:rx="7.8571429" sodipodi:ry="7.8571429" style="color:#000000;stroke:#000000;stroke-width:3;fill:#ffff00" sodipodi:type="arc" d="m560 913.08c0 4.3394-3.5178 7.8571-7.8572 7.8571s-7.8571-3.5178-7.8571-7.8571c0-4.3394 3.5178-7.8572 7.8571-7.8572 4.3394 0 7.8572 3.5178 7.8572 7.8572z" inkscape:tile-x0="970.97721" transform="matrix(.75118 0 0 .75118 452.46 65.045)" sodipodi:cy="913.07648" sodipodi:cx="552.14288" inkscape:tile-y0="921.91982"/>
      <path id="path15672" sodipodi:rx="7.8571429" inkscape:tile-x0="970.97721" style="color:#000000;stroke:#000000;stroke-width:3;fill:#ffff00" sodipodi:type="arc" d="m560 913.08c0 4.3394-3.5178 7.8571-7.8572 7.8571s-7.8571-3.5178-7.8571-7.8571c0-4.3394 3.5178-7.8572 7.8571-7.8572 4.3394 0 7.8572 3.5178 7.8572 7.8572z" sodipodi:ry="7.8571429" transform="matrix(.75118 0 0 .75118 356.22 -286.07)" sodipodi:cy="913.07648" sodipodi:cx="552.14288" inkscape:tile-y0="921.91982"/>
      <path id="path15268" sodipodi:rx="7.8571429" sodipodi:ry="7.8571429" style="color:#000000;stroke:#000000;stroke-width:3;fill:#ffff00" sodipodi:type="arc" d="m560 913.08c0 4.3394-3.5178 7.8571-7.8572 7.8571s-7.8571-3.5178-7.8571-7.8571c0-4.3394 3.5178-7.8572 7.8571-7.8572 4.3394 0 7.8572 3.5178 7.8572 7.8572z" inkscape:tile-x0="970.97721" transform="matrix(.75118 0 0 .75118 107.1 -90.17)" sodipodi:cy="913.07648" sodipodi:cx="552.14288" inkscape:tile-y0="921.91982"/>
      <path id="use8757" sodipodi:rx="7.8571429" inkscape:tile-x0="970.97721" style="color:#000000;stroke:#000000;stroke-width:3;fill:#ffff00" sodipodi:type="arc" d="m560 913.08c0 4.3394-3.5178 7.8571-7.8572 7.8571s-7.8571-3.5178-7.8571-7.8571c0-4.3394 3.5178-7.8572 7.8571-7.8572 4.3394 0 7.8572 3.5178 7.8572 7.8572z" sodipodi:ry="7.8571429" transform="matrix(.75118 0 0 .75118 252.23 1.4069)" sodipodi:cy="913.07648" sodipodi:cx="552.14288" inkscape:tile-y0="921.91982"/>
      <path id="path15532" sodipodi:rx="7.8571429" sodipodi:ry="7.8571429" style="color:#000000;stroke:#000000;stroke-width:3;fill:#ffff00" sodipodi:type="arc" d="m560 913.08c0 4.3394-3.5178 7.8571-7.8572 7.8571s-7.8571-3.5178-7.8571-7.8571c0-4.3394 3.5178-7.8572 7.8571-7.8572 4.3394 0 7.8572 3.5178 7.8572 7.8572z" inkscape:tile-x0="970.97721" transform="matrix(.75118 0 0 .75118 459.54 78.266)" sodipodi:cy="913.07648" sodipodi:cx="552.14288" inkscape:tile-y0="921.91982"/>
      <path id="path15674" sodipodi:rx="7.8571429" inkscape:tile-x0="970.97721" style="color:#000000;stroke:#000000;stroke-width:3;fill:#ffff00" sodipodi:type="arc" d="m560 913.08c0 4.3394-3.5178 7.8571-7.8572 7.8571s-7.8571-3.5178-7.8571-7.8571c0-4.3394 3.5178-7.8572 7.8571-7.8572 4.3394 0 7.8572 3.5178 7.8572 7.8572z" sodipodi:ry="7.8571429" transform="matrix(.75118 0 0 .75118 363.3 -272.85)" sodipodi:cy="913.07648" sodipodi:cx="552.14288" inkscape:tile-y0="921.91982"/>
      <path id="path15270" sodipodi:rx="7.8571429" sodipodi:ry="7.8571429" style="color:#000000;stroke:#000000;stroke-width:3;fill:#ffff00" sodipodi:type="arc" d="m560 913.08c0 4.3394-3.5178 7.8571-7.8572 7.8571s-7.8571-3.5178-7.8571-7.8571c0-4.3394 3.5178-7.8572 7.8571-7.8572 4.3394 0 7.8572 3.5178 7.8572 7.8572z" inkscape:tile-x0="970.97721" transform="matrix(.75118 0 0 .75118 114.18 -76.95)" sodipodi:cy="913.07648" sodipodi:cx="552.14288" inkscape:tile-y0="921.91982"/>
      <path id="use8759" sodipodi:rx="7.8571429" inkscape:tile-x0="970.97721" style="color:#000000;stroke:#000000;stroke-width:3;fill:#ffff00" sodipodi:type="arc" d="m560 913.08c0 4.3394-3.5178 7.8571-7.8572 7.8571s-7.8571-3.5178-7.8571-7.8571c0-4.3394 3.5178-7.8572 7.8571-7.8572 4.3394 0 7.8572 3.5178 7.8572 7.8572z" sodipodi:ry="7.8571429" transform="matrix(.75118 0 0 .75118 259.31 14.628)" sodipodi:cy="913.07648" sodipodi:cx="552.14288" inkscape:tile-y0="921.91982"/>
      <path id="path15534" sodipodi:rx="7.8571429" sodipodi:ry="7.8571429" style="color:#000000;stroke:#000000;stroke-width:3;fill:#ffff00" sodipodi:type="arc" d="m560 913.08c0 4.3394-3.5178 7.8571-7.8572 7.8571s-7.8571-3.5178-7.8571-7.8571c0-4.3394 3.5178-7.8572 7.8571-7.8572 4.3394 0 7.8572 3.5178 7.8572 7.8572z" inkscape:tile-x0="970.97721" transform="matrix(.75118 0 0 .75118 466.62 91.487)" sodipodi:cy="913.07648" sodipodi:cx="552.14288" inkscape:tile-y0="921.91982"/>
      <path id="path15676" sodipodi:rx="7.8571429" inkscape:tile-x0="970.97721" style="color:#000000;stroke:#000000;stroke-width:3;fill:#ffff00" sodipodi:type="arc" d="m560 913.08c0 4.3394-3.5178 7.8571-7.8572 7.8571s-7.8571-3.5178-7.8571-7.8571c0-4.3394 3.5178-7.8572 7.8571-7.8572 4.3394 0 7.8572 3.5178 7.8572 7.8572z" sodipodi:ry="7.8571429" transform="matrix(.75118 0 0 .75118 370.39 -259.63)" sodipodi:cy="913.07648" sodipodi:cx="552.14288" inkscape:tile-y0="921.91982"/>
      <path id="path15272" sodipodi:rx="7.8571429" sodipodi:ry="7.8571429" style="color:#000000;stroke:#000000;stroke-width:3;fill:#ffff00" sodipodi:type="arc" d="m560 913.08c0 4.3394-3.5178 7.8571-7.8572 7.8571s-7.8571-3.5178-7.8571-7.8571c0-4.3394 3.5178-7.8572 7.8571-7.8572 4.3394 0 7.8572 3.5178 7.8572 7.8572z" inkscape:tile-x0="970.97721" transform="matrix(.75118 0 0 .75118 121.27 -63.729)" sodipodi:cy="913.07648" sodipodi:cx="552.14288" inkscape:tile-y0="921.91982"/>
      <path id="use8761" sodipodi:rx="7.8571429" inkscape:tile-x0="970.97721" style="color:#000000;stroke:#000000;stroke-width:3;fill:#ffff00" sodipodi:type="arc" d="m560 913.08c0 4.3394-3.5178 7.8571-7.8572 7.8571s-7.8571-3.5178-7.8571-7.8571c0-4.3394 3.5178-7.8572 7.8571-7.8572 4.3394 0 7.8572 3.5178 7.8572 7.8572z" sodipodi:ry="7.8571429" transform="matrix(.75118 0 0 .75118 266.39 27.848)" sodipodi:cy="913.07648" sodipodi:cx="552.14288" inkscape:tile-y0="921.91982"/>
      <path id="path15536" sodipodi:rx="7.8571429" sodipodi:ry="7.8571429" style="color:#000000;stroke:#000000;stroke-width:3;fill:#ffff00" sodipodi:type="arc" d="m560 913.08c0 4.3394-3.5178 7.8571-7.8572 7.8571s-7.8571-3.5178-7.8571-7.8571c0-4.3394 3.5178-7.8572 7.8571-7.8572 4.3394 0 7.8572 3.5178 7.8572 7.8572z" inkscape:tile-x0="970.97721" transform="matrix(.75118 0 0 .75118 473.7 104.71)" sodipodi:cy="913.07648" sodipodi:cx="552.14288" inkscape:tile-y0="921.91982"/>
      <path id="path15678" sodipodi:rx="7.8571429" inkscape:tile-x0="970.97721" style="color:#000000;stroke:#000000;stroke-width:3;fill:#ffff00" sodipodi:type="arc" d="m560 913.08c0 4.3394-3.5178 7.8571-7.8572 7.8571s-7.8571-3.5178-7.8571-7.8571c0-4.3394 3.5178-7.8572 7.8571-7.8572 4.3394 0 7.8572 3.5178 7.8572 7.8572z" sodipodi:ry="7.8571429" transform="matrix(.75118 0 0 .75118 377.47 -246.41)" sodipodi:cy="913.07648" sodipodi:cx="552.14288" inkscape:tile-y0="921.91982"/>
      <path id="path15408" sodipodi:rx="7.8571429" inkscape:tile-x0="970.97721" style="color:#000000;stroke:#000000;stroke-width:3;fill:#ffff00" sodipodi:type="arc" d="m560 913.08c0 4.3394-3.5178 7.8571-7.8572 7.8571s-7.8571-3.5178-7.8571-7.8571c0-4.3394 3.5178-7.8572 7.8571-7.8572 4.3394 0 7.8572 3.5178 7.8572 7.8572z" sodipodi:ry="7.8571429" transform="matrix(.75118 0 0 .75118 271.27 -135.88)" sodipodi:cy="913.07648" sodipodi:cx="552.14288" inkscape:tile-y0="921.91982"/>
      <path id="path15274" sodipodi:rx="7.8571429" sodipodi:ry="7.8571429" style="color:#000000;stroke:#000000;stroke-width:3;fill:#ffff00" sodipodi:type="arc" d="m560 913.08c0 4.3394-3.5178 7.8571-7.8572 7.8571s-7.8571-3.5178-7.8571-7.8571c0-4.3394 3.5178-7.8572 7.8571-7.8572 4.3394 0 7.8572 3.5178 7.8572 7.8572z" inkscape:tile-x0="970.97721" transform="matrix(.75118 0 0 .75118 128.35 -50.508)" sodipodi:cy="913.07648" sodipodi:cx="552.14288" inkscape:tile-y0="921.91982"/>
      <path id="use8763" sodipodi:rx="7.8571429" inkscape:tile-x0="970.97721" style="color:#000000;stroke:#000000;stroke-width:3;fill:#ffff00" sodipodi:type="arc" d="m560 913.08c0 4.3394-3.5178 7.8571-7.8572 7.8571s-7.8571-3.5178-7.8571-7.8571c0-4.3394 3.5178-7.8572 7.8571-7.8572 4.3394 0 7.8572 3.5178 7.8572 7.8572z" sodipodi:ry="7.8571429" transform="matrix(.75118 0 0 .75118 273.48 41.069)" sodipodi:cy="913.07648" sodipodi:cx="552.14288" inkscape:tile-y0="921.91982"/>
      <path id="path15538" sodipodi:rx="7.8571429" sodipodi:ry="7.8571429" style="color:#000000;stroke:#000000;stroke-width:3;fill:#ffff00" sodipodi:type="arc" d="m560 913.08c0 4.3394-3.5178 7.8571-7.8572 7.8571s-7.8571-3.5178-7.8571-7.8571c0-4.3394 3.5178-7.8572 7.8571-7.8572 4.3394 0 7.8572 3.5178 7.8572 7.8572z" inkscape:tile-x0="970.97721" transform="matrix(.75118 0 0 .75118 480.79 117.93)" sodipodi:cy="913.07648" sodipodi:cx="552.14288" inkscape:tile-y0="921.91982"/>
      <path id="path15540" sodipodi:rx="7.8571429" sodipodi:ry="7.8571429" style="color:#000000;stroke:#000000;stroke-width:3;fill:#ffff00" sodipodi:type="arc" d="m560 913.08c0 4.3394-3.5178 7.8571-7.8572 7.8571s-7.8571-3.5178-7.8571-7.8571c0-4.3394 3.5178-7.8572 7.8571-7.8572 4.3394 0 7.8572 3.5178 7.8572 7.8572z" inkscape:tile-x0="970.97721" transform="matrix(.75118 0 0 .75118 487.87 131.15)" sodipodi:cy="913.07648" sodipodi:cx="552.14288" inkscape:tile-y0="921.91982"/>
      <path id="path15414" sodipodi:rx="7.8571429" inkscape:tile-x0="970.97721" style="color:#000000;stroke:#000000;stroke-width:3;fill:#ffff00" sodipodi:type="arc" d="m560 913.08c0 4.3394-3.5178 7.8571-7.8572 7.8571s-7.8571-3.5178-7.8571-7.8571c0-4.3394 3.5178-7.8572 7.8571-7.8572 4.3394 0 7.8572 3.5178 7.8572 7.8572z" sodipodi:ry="7.8571429" transform="matrix(.75118 0 0 .75118 458.95 51.825)" sodipodi:cy="913.07648" sodipodi:cx="552.14288" inkscape:tile-y0="921.91982"/>
      <path id="path15280" sodipodi:rx="7.8571429" sodipodi:ry="7.8571429" style="color:#000000;stroke:#000000;stroke-width:3;fill:#ffff00" sodipodi:type="arc" d="m560 913.08c0 4.3394-3.5178 7.8571-7.8572 7.8571s-7.8571-3.5178-7.8571-7.8571c0-4.3394 3.5178-7.8572 7.8571-7.8572 4.3394 0 7.8572 3.5178 7.8572 7.8572z" inkscape:tile-x0="970.97721" transform="matrix(.75118 0 0 .75118 113.59 -103.39)" sodipodi:cy="913.07648" sodipodi:cx="552.14288" inkscape:tile-y0="921.91982"/>
      <path id="use8781" sodipodi:rx="7.8571429" inkscape:tile-x0="970.97721" style="color:#000000;stroke:#000000;stroke-width:3;fill:#ffff00" sodipodi:type="arc" d="m560 913.08c0 4.3394-3.5178 7.8571-7.8572 7.8571s-7.8571-3.5178-7.8571-7.8571c0-4.3394 3.5178-7.8572 7.8571-7.8572 4.3394 0 7.8572 3.5178 7.8572 7.8572z" sodipodi:ry="7.8571429" transform="matrix(.75118 0 0 .75118 258.72 -11.814)" sodipodi:cy="913.07648" sodipodi:cx="552.14288" inkscape:tile-y0="921.91982"/>
      <path id="path15542" sodipodi:rx="7.8571429" sodipodi:ry="7.8571429" style="color:#000000;stroke:#000000;stroke-width:3;fill:#ffff00" sodipodi:type="arc" d="m560 913.08c0 4.3394-3.5178 7.8571-7.8572 7.8571s-7.8571-3.5178-7.8571-7.8571c0-4.3394 3.5178-7.8572 7.8571-7.8572 4.3394 0 7.8572 3.5178 7.8572 7.8572z" inkscape:tile-x0="970.97721" transform="matrix(.75118 0 0 .75118 466.03 65.045)" sodipodi:cy="913.07648" sodipodi:cx="552.14288" inkscape:tile-y0="921.91982"/>
      <path id="path15282" sodipodi:rx="7.8571429" sodipodi:ry="7.8571429" style="color:#000000;stroke:#000000;stroke-width:3;fill:#ffff00" sodipodi:type="arc" d="m560 913.08c0 4.3394-3.5178 7.8571-7.8572 7.8571s-7.8571-3.5178-7.8571-7.8571c0-4.3394 3.5178-7.8572 7.8571-7.8572 4.3394 0 7.8572 3.5178 7.8572 7.8572z" inkscape:tile-x0="970.97721" transform="matrix(.75118 0 0 .75118 120.68 -90.17)" sodipodi:cy="913.07648" sodipodi:cx="552.14288" inkscape:tile-y0="921.91982"/>
      <path id="use8783" sodipodi:rx="7.8571429" inkscape:tile-x0="970.97721" style="color:#000000;stroke:#000000;stroke-width:3;fill:#ffff00" sodipodi:type="arc" d="m560 913.08c0 4.3394-3.5178 7.8571-7.8572 7.8571s-7.8571-3.5178-7.8571-7.8571c0-4.3394 3.5178-7.8572 7.8571-7.8572 4.3394 0 7.8572 3.5178 7.8572 7.8572z" sodipodi:ry="7.8571429" transform="matrix(.75118 0 0 .75118 265.8 1.4069)" sodipodi:cy="913.07648" sodipodi:cx="552.14288" inkscape:tile-y0="921.91982"/>
      <path id="path15544" sodipodi:rx="7.8571429" sodipodi:ry="7.8571429" style="color:#000000;stroke:#000000;stroke-width:3;fill:#ffff00" sodipodi:type="arc" d="m560 913.08c0 4.3394-3.5178 7.8571-7.8572 7.8571s-7.8571-3.5178-7.8571-7.8571c0-4.3394 3.5178-7.8572 7.8571-7.8572 4.3394 0 7.8572 3.5178 7.8572 7.8572z" inkscape:tile-x0="970.97721" transform="matrix(.75118 0 0 .75118 473.11 78.266)" sodipodi:cy="913.07648" sodipodi:cx="552.14288" inkscape:tile-y0="921.91982"/>
      <path id="path15284" sodipodi:rx="7.8571429" sodipodi:ry="7.8571429" style="color:#000000;stroke:#000000;stroke-width:3;fill:#ffff00" sodipodi:type="arc" d="m560 913.08c0 4.3394-3.5178 7.8571-7.8572 7.8571s-7.8571-3.5178-7.8571-7.8571c0-4.3394 3.5178-7.8572 7.8571-7.8572 4.3394 0 7.8572 3.5178 7.8572 7.8572z" inkscape:tile-x0="970.97721" transform="matrix(.75118 0 0 .75118 127.76 -76.95)" sodipodi:cy="913.07648" sodipodi:cx="552.14288" inkscape:tile-y0="921.91982"/>
      <path id="use8785" sodipodi:rx="7.8571429" inkscape:tile-x0="970.97721" style="color:#000000;stroke:#000000;stroke-width:3;fill:#ffff00" sodipodi:type="arc" d="m560 913.08c0 4.3394-3.5178 7.8571-7.8572 7.8571s-7.8571-3.5178-7.8571-7.8571c0-4.3394 3.5178-7.8572 7.8571-7.8572 4.3394 0 7.8572 3.5178 7.8572 7.8572z" sodipodi:ry="7.8571429" transform="matrix(.75118 0 0 .75118 272.88 14.628)" sodipodi:cy="913.07648" sodipodi:cx="552.14288" inkscape:tile-y0="921.91982"/>
      <path id="path15546" sodipodi:rx="7.8571429" sodipodi:ry="7.8571429" style="color:#000000;stroke:#000000;stroke-width:3;fill:#ffff00" sodipodi:type="arc" d="m560 913.08c0 4.3394-3.5178 7.8571-7.8572 7.8571s-7.8571-3.5178-7.8571-7.8571c0-4.3394 3.5178-7.8572 7.8571-7.8572 4.3394 0 7.8572 3.5178 7.8572 7.8572z" inkscape:tile-x0="970.97721" transform="matrix(.75118 0 0 .75118 480.2 91.487)" sodipodi:cy="913.07648" sodipodi:cx="552.14288" inkscape:tile-y0="921.91982"/>
      <path id="path15286" sodipodi:rx="7.8571429" sodipodi:ry="7.8571429" style="color:#000000;stroke:#000000;stroke-width:3;fill:#ffff00" sodipodi:type="arc" d="m560 913.08c0 4.3394-3.5178 7.8571-7.8572 7.8571s-7.8571-3.5178-7.8571-7.8571c0-4.3394 3.5178-7.8572 7.8571-7.8572 4.3394 0 7.8572 3.5178 7.8572 7.8572z" inkscape:tile-x0="970.97721" transform="matrix(.75118 0 0 .75118 134.84 -63.729)" sodipodi:cy="913.07648" sodipodi:cx="552.14288" inkscape:tile-y0="921.91982"/>
      <path id="use8787" sodipodi:rx="7.8571429" inkscape:tile-x0="970.97721" style="color:#000000;stroke:#000000;stroke-width:3;fill:#ffff00" sodipodi:type="arc" d="m560 913.08c0 4.3394-3.5178 7.8571-7.8572 7.8571s-7.8571-3.5178-7.8571-7.8571c0-4.3394 3.5178-7.8572 7.8571-7.8572 4.3394 0 7.8572 3.5178 7.8572 7.8572z" sodipodi:ry="7.8571429" transform="matrix(.75118 0 0 .75118 279.97 27.848)" sodipodi:cy="913.07648" sodipodi:cx="552.14288" inkscape:tile-y0="921.91982"/>
      <path id="path15548" sodipodi:rx="7.8571429" sodipodi:ry="7.8571429" style="color:#000000;stroke:#000000;stroke-width:3;fill:#ffff00" sodipodi:type="arc" d="m560 913.08c0 4.3394-3.5178 7.8571-7.8572 7.8571s-7.8571-3.5178-7.8571-7.8571c0-4.3394 3.5178-7.8572 7.8571-7.8572 4.3394 0 7.8572 3.5178 7.8572 7.8572z" inkscape:tile-x0="970.97721" transform="matrix(.75118 0 0 .75118 487.28 104.71)" sodipodi:cy="913.07648" sodipodi:cx="552.14288" inkscape:tile-y0="921.91982"/>
      <path id="path15288" sodipodi:rx="7.8571429" sodipodi:ry="7.8571429" style="color:#000000;stroke:#000000;stroke-width:3;fill:#ffff00" sodipodi:type="arc" d="m560 913.08c0 4.3394-3.5178 7.8571-7.8572 7.8571s-7.8571-3.5178-7.8571-7.8571c0-4.3394 3.5178-7.8572 7.8571-7.8572 4.3394 0 7.8572 3.5178 7.8572 7.8572z" inkscape:tile-x0="970.97721" transform="matrix(.75118 0 0 .75118 141.92 -50.508)" sodipodi:cy="913.07648" sodipodi:cx="552.14288" inkscape:tile-y0="921.91982"/>
      <path id="use8789" sodipodi:rx="7.8571429" inkscape:tile-x0="970.97721" style="color:#000000;stroke:#000000;stroke-width:3;fill:#ffff00" sodipodi:type="arc" d="m560 913.08c0 4.3394-3.5178 7.8571-7.8572 7.8571s-7.8571-3.5178-7.8571-7.8571c0-4.3394 3.5178-7.8572 7.8571-7.8572 4.3394 0 7.8572 3.5178 7.8572 7.8572z" sodipodi:ry="7.8571429" transform="matrix(.75118 0 0 .75118 287.05 41.069)" sodipodi:cy="913.07648" sodipodi:cx="552.14288" inkscape:tile-y0="921.91982"/>
      <path id="path15550" sodipodi:rx="7.8571429" sodipodi:ry="7.8571429" style="color:#000000;stroke:#000000;stroke-width:3;fill:#ffff00" sodipodi:type="arc" d="m560 913.08c0 4.3394-3.5178 7.8571-7.8572 7.8571s-7.8571-3.5178-7.8571-7.8571c0-4.3394 3.5178-7.8572 7.8571-7.8572 4.3394 0 7.8572 3.5178 7.8572 7.8572z" inkscape:tile-x0="970.97721" transform="matrix(.75118 0 0 .75118 494.36 117.93)" sodipodi:cy="913.07648" sodipodi:cx="552.14288" inkscape:tile-y0="921.91982"/>
      <path id="path15426" sodipodi:rx="7.8571429" inkscape:tile-x0="970.97721" style="color:#000000;stroke:#000000;stroke-width:3;fill:#ffff00" sodipodi:type="arc" d="m560 913.08c0 4.3394-3.5178 7.8571-7.8572 7.8571s-7.8571-3.5178-7.8571-7.8571c0-4.3394 3.5178-7.8572 7.8571-7.8572 4.3394 0 7.8572 3.5178 7.8572 7.8572z" sodipodi:ry="7.8571429" transform="matrix(.75118 0 0 .75118 472.52 51.825)" sodipodi:cy="913.07648" sodipodi:cx="552.14288" inkscape:tile-y0="921.91982"/>
      <path id="path15292" sodipodi:rx="7.8571429" sodipodi:ry="7.8571429" style="color:#000000;stroke:#000000;stroke-width:3;fill:#ffff00" sodipodi:type="arc" d="m560 913.08c0 4.3394-3.5178 7.8571-7.8572 7.8571s-7.8571-3.5178-7.8571-7.8571c0-4.3394 3.5178-7.8572 7.8571-7.8572 4.3394 0 7.8572 3.5178 7.8572 7.8572z" inkscape:tile-x0="970.97721" transform="matrix(.75118 0 0 .75118 127.17 -103.39)" sodipodi:cy="913.07648" sodipodi:cx="552.14288" inkscape:tile-y0="921.91982"/>
      <path id="use8807" sodipodi:rx="7.8571429" inkscape:tile-x0="970.97721" style="color:#000000;stroke:#000000;stroke-width:3;fill:#ffff00" sodipodi:type="arc" d="m560 913.08c0 4.3394-3.5178 7.8571-7.8572 7.8571s-7.8571-3.5178-7.8571-7.8571c0-4.3394 3.5178-7.8572 7.8571-7.8572 4.3394 0 7.8572 3.5178 7.8572 7.8572z" sodipodi:ry="7.8571429" transform="matrix(.75118 0 0 .75118 272.29 -11.814)" sodipodi:cy="913.07648" sodipodi:cx="552.14288" inkscape:tile-y0="921.91982"/>
      <path id="path15552" sodipodi:rx="7.8571429" sodipodi:ry="7.8571429" style="color:#000000;stroke:#000000;stroke-width:3;fill:#ffff00" sodipodi:type="arc" d="m560 913.08c0 4.3394-3.5178 7.8571-7.8572 7.8571s-7.8571-3.5178-7.8571-7.8571c0-4.3394 3.5178-7.8572 7.8571-7.8572 4.3394 0 7.8572 3.5178 7.8572 7.8572z" inkscape:tile-x0="970.97721" transform="matrix(.75118 0 0 .75118 479.61 65.045)" sodipodi:cy="913.07648" sodipodi:cx="552.14288" inkscape:tile-y0="921.91982"/>
      <path id="path15294" sodipodi:rx="7.8571429" sodipodi:ry="7.8571429" style="color:#000000;stroke:#000000;stroke-width:3;fill:#ffff00" sodipodi:type="arc" d="m560 913.08c0 4.3394-3.5178 7.8571-7.8572 7.8571s-7.8571-3.5178-7.8571-7.8571c0-4.3394 3.5178-7.8572 7.8571-7.8572 4.3394 0 7.8572 3.5178 7.8572 7.8572z" inkscape:tile-x0="970.97721" transform="matrix(.75118 0 0 .75118 134.25 -90.17)" sodipodi:cy="913.07648" sodipodi:cx="552.14288" inkscape:tile-y0="921.91982"/>
      <path id="use8809" sodipodi:rx="7.8571429" inkscape:tile-x0="970.97721" style="color:#000000;stroke:#000000;stroke-width:3;fill:#ffff00" sodipodi:type="arc" d="m560 913.08c0 4.3394-3.5178 7.8571-7.8572 7.8571s-7.8571-3.5178-7.8571-7.8571c0-4.3394 3.5178-7.8572 7.8571-7.8572 4.3394 0 7.8572 3.5178 7.8572 7.8572z" sodipodi:ry="7.8571429" transform="matrix(.75118 0 0 .75118 279.38 1.4069)" sodipodi:cy="913.07648" sodipodi:cx="552.14288" inkscape:tile-y0="921.91982"/>
      <path id="path15554" sodipodi:rx="7.8571429" sodipodi:ry="7.8571429" style="color:#000000;stroke:#000000;stroke-width:3;fill:#ffff00" sodipodi:type="arc" d="m560 913.08c0 4.3394-3.5178 7.8571-7.8572 7.8571s-7.8571-3.5178-7.8571-7.8571c0-4.3394 3.5178-7.8572 7.8571-7.8572 4.3394 0 7.8572 3.5178 7.8572 7.8572z" inkscape:tile-x0="970.97721" transform="matrix(.75118 0 0 .75118 486.69 78.266)" sodipodi:cy="913.07648" sodipodi:cx="552.14288" inkscape:tile-y0="921.91982"/>
      <path id="path15296" sodipodi:rx="7.8571429" sodipodi:ry="7.8571429" style="color:#000000;stroke:#000000;stroke-width:3;fill:#ffff00" sodipodi:type="arc" d="m560 913.08c0 4.3394-3.5178 7.8571-7.8572 7.8571s-7.8571-3.5178-7.8571-7.8571c0-4.3394 3.5178-7.8572 7.8571-7.8572 4.3394 0 7.8572 3.5178 7.8572 7.8572z" inkscape:tile-x0="970.97721" transform="matrix(.75118 0 0 .75118 141.33 -76.95)" sodipodi:cy="913.07648" sodipodi:cx="552.14288" inkscape:tile-y0="921.91982"/>
      <path id="use8811" sodipodi:rx="7.8571429" inkscape:tile-x0="970.97721" style="color:#000000;stroke:#000000;stroke-width:3;fill:#ffff00" sodipodi:type="arc" d="m560 913.08c0 4.3394-3.5178 7.8571-7.8572 7.8571s-7.8571-3.5178-7.8571-7.8571c0-4.3394 3.5178-7.8572 7.8571-7.8572 4.3394 0 7.8572 3.5178 7.8572 7.8572z" sodipodi:ry="7.8571429" transform="matrix(.75118 0 0 .75118 286.46 14.628)" sodipodi:cy="913.07648" sodipodi:cx="552.14288" inkscape:tile-y0="921.91982"/>
      <path id="path15556" sodipodi:rx="7.8571429" sodipodi:ry="7.8571429" style="color:#000000;stroke:#000000;stroke-width:3;fill:#ffff00" sodipodi:type="arc" d="m560 913.08c0 4.3394-3.5178 7.8571-7.8572 7.8571s-7.8571-3.5178-7.8571-7.8571c0-4.3394 3.5178-7.8572 7.8571-7.8572 4.3394 0 7.8572 3.5178 7.8572 7.8572z" inkscape:tile-x0="970.97721" transform="matrix(.75118 0 0 .75118 493.77 91.487)" sodipodi:cy="913.07648" sodipodi:cx="552.14288" inkscape:tile-y0="921.91982"/>
      <path id="path15298" sodipodi:rx="7.8571429" sodipodi:ry="7.8571429" style="color:#000000;stroke:#000000;stroke-width:3;fill:#ffff00" sodipodi:type="arc" d="m560 913.08c0 4.3394-3.5178 7.8571-7.8572 7.8571s-7.8571-3.5178-7.8571-7.8571c0-4.3394 3.5178-7.8572 7.8571-7.8572 4.3394 0 7.8572 3.5178 7.8572 7.8572z" inkscape:tile-x0="970.97721" transform="matrix(.75118 0 0 .75118 148.42 -63.729)" sodipodi:cy="913.07648" sodipodi:cx="552.14288" inkscape:tile-y0="921.91982"/>
      <path id="use8813" sodipodi:rx="7.8571429" inkscape:tile-x0="970.97721" style="color:#000000;stroke:#000000;stroke-width:3;fill:#ffff00" sodipodi:type="arc" d="m560 913.08c0 4.3394-3.5178 7.8571-7.8572 7.8571s-7.8571-3.5178-7.8571-7.8571c0-4.3394 3.5178-7.8572 7.8571-7.8572 4.3394 0 7.8572 3.5178 7.8572 7.8572z" sodipodi:ry="7.8571429" transform="matrix(.75118 0 0 .75118 293.54 27.848)" sodipodi:cy="913.07648" sodipodi:cx="552.14288" inkscape:tile-y0="921.91982"/>
      <path id="path15558" sodipodi:rx="7.8571429" sodipodi:ry="7.8571429" style="color:#000000;stroke:#000000;stroke-width:3;fill:#ffff00" sodipodi:type="arc" d="m560 913.08c0 4.3394-3.5178 7.8571-7.8572 7.8571s-7.8571-3.5178-7.8571-7.8571c0-4.3394 3.5178-7.8572 7.8571-7.8572 4.3394 0 7.8572 3.5178 7.8572 7.8572z" inkscape:tile-x0="970.97721" transform="matrix(.75118 0 0 .75118 500.85 104.71)" sodipodi:cy="913.07648" sodipodi:cx="552.14288" inkscape:tile-y0="921.91982"/>
      <path id="path15436" sodipodi:rx="7.8571429" inkscape:tile-x0="970.97721" style="color:#000000;stroke:#000000;stroke-width:3;fill:#ffff00" sodipodi:type="arc" d="m560 913.08c0 4.3394-3.5178 7.8571-7.8572 7.8571s-7.8571-3.5178-7.8571-7.8571c0-4.3394 3.5178-7.8572 7.8571-7.8572 4.3394 0 7.8572 3.5178 7.8572 7.8572z" sodipodi:ry="7.8571429" transform="matrix(.75118 0 0 .75118 486.1 51.825)" sodipodi:cy="913.07648" sodipodi:cx="552.14288" inkscape:tile-y0="921.91982"/>
      <path id="path15302" sodipodi:rx="7.8571429" sodipodi:ry="7.8571429" style="color:#000000;stroke:#000000;stroke-width:3;fill:#ffff00" sodipodi:type="arc" d="m560 913.08c0 4.3394-3.5178 7.8571-7.8572 7.8571s-7.8571-3.5178-7.8571-7.8571c0-4.3394 3.5178-7.8572 7.8571-7.8572 4.3394 0 7.8572 3.5178 7.8572 7.8572z" inkscape:tile-x0="970.97721" transform="matrix(.75118 0 0 .75118 140.74 -103.39)" sodipodi:cy="913.07648" sodipodi:cx="552.14288" inkscape:tile-y0="921.91982"/>
      <path id="use8833" sodipodi:rx="7.8571429" inkscape:tile-x0="970.97721" style="color:#000000;stroke:#000000;stroke-width:3;fill:#ffff00" sodipodi:type="arc" d="m560 913.08c0 4.3394-3.5178 7.8571-7.8572 7.8571s-7.8571-3.5178-7.8571-7.8571c0-4.3394 3.5178-7.8572 7.8571-7.8572 4.3394 0 7.8572 3.5178 7.8572 7.8572z" sodipodi:ry="7.8571429" transform="matrix(.75118 0 0 .75118 285.87 -11.814)" sodipodi:cy="913.07648" sodipodi:cx="552.14288" inkscape:tile-y0="921.91982"/>
      <path id="path15560" sodipodi:rx="7.8571429" sodipodi:ry="7.8571429" style="color:#000000;stroke:#000000;stroke-width:3;fill:#ffff00" sodipodi:type="arc" d="m560 913.08c0 4.3394-3.5178 7.8571-7.8572 7.8571s-7.8571-3.5178-7.8571-7.8571c0-4.3394 3.5178-7.8572 7.8571-7.8572 4.3394 0 7.8572 3.5178 7.8572 7.8572z" inkscape:tile-x0="970.97721" transform="matrix(.75118 0 0 .75118 493.18 65.045)" sodipodi:cy="913.07648" sodipodi:cx="552.14288" inkscape:tile-y0="921.91982"/>
      <path id="path15304" sodipodi:rx="7.8571429" sodipodi:ry="7.8571429" style="color:#000000;stroke:#000000;stroke-width:3;fill:#ffff00" sodipodi:type="arc" d="m560 913.08c0 4.3394-3.5178 7.8571-7.8572 7.8571s-7.8571-3.5178-7.8571-7.8571c0-4.3394 3.5178-7.8572 7.8571-7.8572 4.3394 0 7.8572 3.5178 7.8572 7.8572z" inkscape:tile-x0="970.97721" transform="matrix(.75118 0 0 .75118 147.83 -90.17)" sodipodi:cy="913.07648" sodipodi:cx="552.14288" inkscape:tile-y0="921.91982"/>
      <path id="use8835" sodipodi:rx="7.8571429" inkscape:tile-x0="970.97721" style="color:#000000;stroke:#000000;stroke-width:3;fill:#ffff00" sodipodi:type="arc" d="m560 913.08c0 4.3394-3.5178 7.8571-7.8572 7.8571s-7.8571-3.5178-7.8571-7.8571c0-4.3394 3.5178-7.8572 7.8571-7.8572 4.3394 0 7.8572 3.5178 7.8572 7.8572z" sodipodi:ry="7.8571429" transform="matrix(.75118 0 0 .75118 292.95 1.4069)" sodipodi:cy="913.07648" sodipodi:cx="552.14288" inkscape:tile-y0="921.91982"/>
      <path id="path15562" sodipodi:rx="7.8571429" sodipodi:ry="7.8571429" style="color:#000000;stroke:#000000;stroke-width:3;fill:#ffff00" sodipodi:type="arc" d="m560 913.08c0 4.3394-3.5178 7.8571-7.8572 7.8571s-7.8571-3.5178-7.8571-7.8571c0-4.3394 3.5178-7.8572 7.8571-7.8572 4.3394 0 7.8572 3.5178 7.8572 7.8572z" inkscape:tile-x0="970.97721" transform="matrix(.75118 0 0 .75118 500.26 78.266)" sodipodi:cy="913.07648" sodipodi:cx="552.14288" inkscape:tile-y0="921.91982"/>
      <path id="path15306" sodipodi:rx="7.8571429" sodipodi:ry="7.8571429" style="color:#000000;stroke:#000000;stroke-width:3;fill:#ffff00" sodipodi:type="arc" d="m560 913.08c0 4.3394-3.5178 7.8571-7.8572 7.8571s-7.8571-3.5178-7.8571-7.8571c0-4.3394 3.5178-7.8572 7.8571-7.8572 4.3394 0 7.8572 3.5178 7.8572 7.8572z" inkscape:tile-x0="970.97721" transform="matrix(.75118 0 0 .75118 154.91 -76.95)" sodipodi:cy="913.07648" sodipodi:cx="552.14288" inkscape:tile-y0="921.91982"/>
      <path id="use8837" sodipodi:rx="7.8571429" inkscape:tile-x0="970.97721" style="color:#000000;stroke:#000000;stroke-width:3;fill:#ffff00" sodipodi:type="arc" d="m560 913.08c0 4.3394-3.5178 7.8571-7.8572 7.8571s-7.8571-3.5178-7.8571-7.8571c0-4.3394 3.5178-7.8572 7.8571-7.8572 4.3394 0 7.8572 3.5178 7.8572 7.8572z" sodipodi:ry="7.8571429" transform="matrix(.75118 0 0 .75118 300.03 14.628)" sodipodi:cy="913.07648" sodipodi:cx="552.14288" inkscape:tile-y0="921.91982"/>
      <path id="path15564" sodipodi:rx="7.8571429" sodipodi:ry="7.8571429" style="color:#000000;stroke:#000000;stroke-width:3;fill:#ffff00" sodipodi:type="arc" d="m560 913.08c0 4.3394-3.5178 7.8571-7.8572 7.8571s-7.8571-3.5178-7.8571-7.8571c0-4.3394 3.5178-7.8572 7.8571-7.8572 4.3394 0 7.8572 3.5178 7.8572 7.8572z" inkscape:tile-x0="970.97721" transform="matrix(.75118 0 0 .75118 507.35 91.487)" sodipodi:cy="913.07648" sodipodi:cx="552.14288" inkscape:tile-y0="921.91982"/>
      <path id="path15308" sodipodi:rx="7.8571429" sodipodi:ry="7.8571429" style="color:#000000;stroke:#000000;stroke-width:3;fill:#ffff00" sodipodi:type="arc" d="m560 913.08c0 4.3394-3.5178 7.8571-7.8572 7.8571s-7.8571-3.5178-7.8571-7.8571c0-4.3394 3.5178-7.8572 7.8571-7.8572 4.3394 0 7.8572 3.5178 7.8572 7.8572z" inkscape:tile-x0="970.97721" transform="matrix(.75118 0 0 .75118 161.99 -63.729)" sodipodi:cy="913.07648" sodipodi:cx="552.14288" inkscape:tile-y0="921.91982"/>
      <path id="use8839" sodipodi:rx="7.8571429" inkscape:tile-x0="970.97721" style="color:#000000;stroke:#000000;stroke-width:3;fill:#ffff00" sodipodi:type="arc" d="m560 913.08c0 4.3394-3.5178 7.8571-7.8572 7.8571s-7.8571-3.5178-7.8571-7.8571c0-4.3394 3.5178-7.8572 7.8571-7.8572 4.3394 0 7.8572 3.5178 7.8572 7.8572z" sodipodi:ry="7.8571429" transform="matrix(.75118 0 0 .75118 307.12 27.848)" sodipodi:cy="913.07648" sodipodi:cx="552.14288" inkscape:tile-y0="921.91982"/>
      <path id="path15566" sodipodi:rx="7.8571429" sodipodi:ry="7.8571429" style="color:#000000;stroke:#000000;stroke-width:3;fill:#ffff00" sodipodi:type="arc" d="m560 913.08c0 4.3394-3.5178 7.8571-7.8572 7.8571s-7.8571-3.5178-7.8571-7.8571c0-4.3394 3.5178-7.8572 7.8571-7.8572 4.3394 0 7.8572 3.5178 7.8572 7.8572z" inkscape:tile-x0="970.97721" transform="matrix(.75118 0 0 .75118 514.43 104.71)" sodipodi:cy="913.07648" sodipodi:cx="552.14288" inkscape:tile-y0="921.91982"/>
    </g>
  </g>
  <metadata>
    <rdf:RDF>
      <cc:Work>
        <dc:format>image/svg+xml</dc:format>
        <dc:type rdf:resource="http://purl.org/dc/dcmitype/StillImage"/>
        <cc:license rdf:resource="http://creativecommons.org/licenses/publicdomain/"/>
        <dc:publisher>
          <cc:Agent rdf:about="http://openclipart.org/">
            <dc:title>Openclipart</dc:title>
          </cc:Agent>
        </dc:publisher>
        <dc:title>network</dc:title>
        <dc:date>2010-11-12T20:13:52</dc:date>
        <dc:description/>
        <dc:source>https://openclipart.org/detail/95287/network-by-yves_guillou</dc:source>
        <dc:creator>
          <cc:Agent>
            <dc:title>yves_guillou</dc:title>
          </cc:Agent>
        </dc:creator>
        <dc:subject>
          <rdf:Bag>
            <rdf:li>graph</rdf:li>
          </rdf:Bag>
        </dc:subject>
      </cc:Work>
      <cc:License rdf:about="http://creativecommons.org/licenses/publicdomain/">
        <cc:permits rdf:resource="http://creativecommons.org/ns#Reproduction"/>
        <cc:permits rdf:resource="http://creativecommons.org/ns#Distribution"/>
        <cc:permits rdf:resource="http://creativecommons.org/ns#DerivativeWorks"/>
      </cc:License>
    </rdf:RDF>
  </metadata>
</svg>