<?xml version="1.0" encoding="UTF-8" standalone="no"?>
<svg
   version="1.1"
   viewBox="0.0 0.0 960.0 540.0"
   fill="none"
   stroke="none"
   stroke-linecap="square"
   stroke-miterlimit="10"
   id="svg78"
   sodipodi:docname="distributed-memory-processes_fr.svg"
   inkscape:version="1.4 (86a8ad7, 2024-10-11)"
   xmlns:inkscape="http://www.inkscape.org/namespaces/inkscape"
   xmlns:sodipodi="http://sodipodi.sourceforge.net/DTD/sodipodi-0.dtd"
   xmlns="http://www.w3.org/2000/svg"
   xmlns:svg="http://www.w3.org/2000/svg">
  <defs
     id="defs78" />
  <sodipodi:namedview
     id="namedview78"
     pagecolor="#ffffff"
     bordercolor="#000000"
     borderopacity="0.25"
     inkscape:showpageshadow="2"
     inkscape:pageopacity="0.0"
     inkscape:pagecheckerboard="0"
     inkscape:deskcolor="#d1d1d1"
     inkscape:current-layer="svg78"
     showguides="true">
    <sodipodi:guide
       position="174,540"
       orientation="-1,0"
       id="guide78"
       inkscape:locked="false"
       inkscape:label=""
       inkscape:color="rgb(0,134,229)" />
    <sodipodi:guide
       position="0,448"
       orientation="0,1"
       id="guide79"
       inkscape:locked="false"
       inkscape:label=""
       inkscape:color="rgb(0,134,229)" />
    <sodipodi:guide
       position="0,28"
       orientation="0,1"
       id="guide80"
       inkscape:locked="false"
       inkscape:label=""
       inkscape:color="rgb(0,134,229)" />
    <sodipodi:guide
       position="308,540"
       orientation="-1,0"
       id="guide81"
       inkscape:locked="false"
       inkscape:label=""
       inkscape:color="rgb(0,134,229)" />
    <sodipodi:guide
       position="566,540"
       orientation="-1,0"
       id="guide82"
       inkscape:locked="false"
       inkscape:label=""
       inkscape:color="rgb(0,134,229)" />
    <sodipodi:guide
       position="664,540"
       orientation="-1,0"
       id="guide83"
       inkscape:locked="false"
       inkscape:label=""
       inkscape:color="rgb(0,134,229)" />
    <sodipodi:guide
       position="920,540"
       orientation="-1,0"
       id="guide84"
       inkscape:locked="false"
       inkscape:label=""
       inkscape:color="rgb(0,134,229)" />
  </sodipodi:namedview>
  <rect
     style="fill:none;fill-opacity:1;stroke:#000000;stroke-width:1;stroke-opacity:1"
     id="rect84"
     width="258"
     height="420"
     x="308"
     y="92" />
  <rect
     style="fill:none;fill-opacity:1;stroke:#000000;stroke-width:1;stroke-opacity:1"
     id="rect85"
     width="256"
     height="420"
     x="664"
     y="92" />
  <path
     fill="#000000"
     fill-opacity="0"
     d="M 48,-0.36220473 H 912 V 540.36217 H 48 Z"
     fill-rule="evenodd"
     id="path4" />
  <path
     fill="#ffffff"
     d="m 71.109375,51.197792 -6.1875,-20.15625 h -0.15625 q 0.04687,0.71875 0.125,2.171875 0.07813,1.4375 0.140625,3.078125 0.07813,1.640625 0.07813,2.953125 v 11.953125 h -4.875 V 25.494667 h 7.421875 l 6.078125,19.65625 h 0.109375 l 6.453125,-19.65625 h 7.40625 V 51.197792 H 82.625 V 39.025917 q 0,-1.203125 0.04687,-2.78125 0.04687,-1.59375 0.109375,-3.015625 0.07813,-1.4375 0.109375,-2.15625 h -0.15625 l -6.625,20.125 z m 30.693365,-20.0625 q 3.95312,0 6.0625,1.734375 2.10937,1.71875 2.10937,5.234375 v 13.09375 h -3.73437 l -1.04688,-2.671875 h -0.14062 q -0.84375,1.046875 -1.71875,1.71875 -0.875,0.671875 -2.01563,0.984375 -1.14062,0.328125 -2.78125,0.328125 -1.734375,0 -3.125,-0.671875 -1.375,-0.671875 -2.171875,-2.046875 -0.78125,-1.390625 -0.78125,-3.515625 0,-3.125 2.1875,-4.609375 2.203125,-1.484375 6.593755,-1.640625 l 3.42187,-0.109375 v -0.859375 q 0,-1.546875 -0.8125,-2.265625 -0.8125,-0.71875 -2.25,-0.71875 -1.42187,0 -2.796875,0.40625 -1.375,0.390625 -2.75,1.015625 l -1.765625,-3.625 q 1.5625,-0.828125 3.5,-1.296875 1.953125,-0.484375 4.01563,-0.484375 z m 2.85937,10.953125 -2.07812,0.07813 q -2.60938,0.0625 -3.625005,0.921875 -1,0.859375 -1,2.265625 0,1.234375 0.71875,1.765625 0.71875,0.515625 1.875005,0.515625 1.73437,0 2.92187,-1.015625 1.1875,-1.03125 1.1875,-2.90625 z m 18.82227,9.46875 q -2.92188,0 -4.98438,-1.0625 -2.04687,-1.078125 -3.125,-3.296875 -1.0625,-2.234375 -1.0625,-5.71875 0,-3.609375 1.21875,-5.875 1.21875,-2.28125 3.39063,-3.34375 2.17187,-1.078125 5.03125,-1.078125 2.04687,0 3.53125,0.390625 1.48437,0.390625 2.59375,0.9375 l -1.59375,4.15625 q -1.26563,-0.515625 -2.35938,-0.84375 -1.07812,-0.328125 -2.17187,-0.328125 -1.40625,0 -2.34375,0.671875 -0.92188,0.65625 -1.39063,1.96875 -0.45312,1.3125 -0.45312,3.3125 0,1.9375 0.48437,3.234375 0.5,1.28125 1.4375,1.90625 0.9375,0.625 2.26563,0.625 1.67187,0 2.96875,-0.453125 1.3125,-0.453125 2.53125,-1.265625 v 4.59375 q -1.21875,0.78125 -2.57813,1.125 -1.34375,0.34375 -3.39062,0.34375 z m 15.88476,-27.71875 v 5.578125 q 0,1.453125 -0.0937,2.78125 -0.0937,1.3125 -0.15625,1.859375 h 0.28125 q 0.64063,-1.015625 1.5,-1.640625 0.875,-0.640625 1.92188,-0.9375 1.0625,-0.296875 2.28125,-0.296875 2.125,0 3.70312,0.75 1.59375,0.734375 2.46875,2.328125 0.875,1.59375 0.875,4.125 v 12.8125 h -5.35937 V 39.713417 q 0,-2.109375 -0.78125,-3.171875 -0.76563,-1.078125 -2.39063,-1.078125 -1.60937,0 -2.54687,0.75 -0.92188,0.75 -1.3125,2.203125 -0.39063,1.4375 -0.39063,3.53125 v 9.25 h -5.35937 V 23.838417 Z m 23.66016,7.703125 v 19.65625 h -5.35938 v -19.65625 z m -2.67188,-7.703125 q 1.20313,0 2.0625,0.5625 0.85938,0.546875 0.85938,2.0625 0,1.5 -0.85938,2.078125 -0.85937,0.5625 -2.0625,0.5625 -1.20312,0 -2.0625,-0.5625 -0.85937,-0.578125 -0.85937,-2.078125 0,-1.515625 0.85937,-2.0625 0.85938,-0.5625 2.0625,-0.5625 z m 19.45508,7.34375 q 3.15625,0 5.0625,1.71875 1.92188,1.703125 1.92188,5.484375 v 12.8125 H 181.4375 V 39.713417 q 0,-2.109375 -0.76562,-3.171875 -0.76563,-1.078125 -2.40625,-1.078125 -2.45313,0 -3.35938,1.671875 -0.89062,1.671875 -0.89062,4.8125 v 9.25 h -5.35938 V 31.541542 H 172.75 l 0.71875,2.515625 h 0.29688 q 0.64062,-1.015625 1.57812,-1.640625 0.9375,-0.640625 2.09375,-0.9375 1.15625,-0.296875 2.375,-0.296875 z m 20.61328,0 q 2.71875,0 4.6875,1.046875 1.96875,1.03125 3.03125,3.03125 1.07813,1.984375 1.07813,4.84375 v 2.609375 h -12.67188 q 0.0937,2.265625 1.35938,3.5625 1.28125,1.28125 3.54687,1.28125 1.875,0 3.4375,-0.375 1.57813,-0.390625 3.21875,-1.171875 v 4.15625 q -1.45312,0.71875 -3.04687,1.046875 -1.59375,0.34375 -3.85938,0.34375 -2.95312,0 -5.23437,-1.09375 -2.26563,-1.09375 -3.5625,-3.328125 -1.28125,-2.234375 -1.28125,-5.625 0,-3.4375 1.15625,-5.734375 1.17187,-2.296875 3.26562,-3.4375 2.09375,-1.15625 4.875,-1.15625 z m 0.0312,3.8125 q -1.5625,0 -2.59375,1 -1.03125,1 -1.1875,3.140625 h 7.53125 q -0.0312,-1.1875 -0.4375,-2.125 -0.40625,-0.9375 -1.23437,-1.46875 -0.8125,-0.546875 -2.07813,-0.546875 z m 30.52735,-3.859375 q 3.95312,0 6.0625,1.734375 2.10937,1.71875 2.10937,5.234375 v 13.09375 h -3.73437 L 234.375,48.525917 h -0.14062 q -0.84375,1.046875 -1.71875,1.71875 -0.875,0.671875 -2.01563,0.984375 -1.14062,0.328125 -2.78125,0.328125 -1.73437,0 -3.125,-0.671875 -1.375,-0.671875 -2.17187,-2.046875 -0.78125,-1.390625 -0.78125,-3.515625 0,-3.125 2.1875,-4.609375 2.20312,-1.484375 6.59375,-1.640625 l 3.42187,-0.109375 v -0.859375 q 0,-1.546875 -0.8125,-2.265625 -0.8125,-0.71875 -2.25,-0.71875 -1.42187,0 -2.79687,0.40625 -1.375,0.390625 -2.75,1.015625 l -1.76563,-3.625 q 1.5625,-0.828125 3.5,-1.296875 1.95313,-0.484375 4.01563,-0.484375 z m 2.85937,10.953125 -2.07812,0.07813 q -2.60938,0.0625 -3.625,0.921875 -1,0.859375 -1,2.265625 0,1.234375 0.71875,1.765625 0.71875,0.515625 1.875,0.515625 1.73437,0 2.92187,-1.015625 1.1875,-1.03125 1.1875,-2.90625 z m -3.7187,-18.46875 q 0.53125,0.8125 1.26563,1.796875 0.75,0.984375 1.51562,1.90625 0.78125,0.921875 1.34375,1.578125 v 0.484375 h -3.54687 q -0.6875,-0.484375 -1.60938,-1.1875 -0.90625,-0.71875 -1.85937,-1.5 -0.95313,-0.78125 -1.78125,-1.5 -0.82813,-0.71875 -1.34375,-1.21875 v -0.359375 z m 46.98633,7.5625 q 3.34375,0 5.04688,1.71875 1.71875,1.703125 1.71875,5.484375 v 12.8125 h -5.375 V 39.713417 q 0,-2.109375 -0.71875,-3.171875 -0.71875,-1.078125 -2.23438,-1.078125 -2.125,0 -3.03125,1.53125 -0.89062,1.515625 -0.89062,4.34375 v 9.859375 h -5.35938 V 39.713417 q 0,-1.40625 -0.3125,-2.34375 -0.3125,-0.953125 -0.96875,-1.421875 -0.65625,-0.484375 -1.67187,-0.484375 -1.5,0 -2.35938,0.75 -0.84375,0.75 -1.20312,2.203125 -0.35938,1.4375 -0.35938,3.53125 v 9.25 h -5.35937 v -19.65625 h 4.09375 l 0.71875,2.515625 h 0.29687 q 0.60938,-1.015625 1.51563,-1.640625 0.90625,-0.640625 1.98437,-0.9375 1.09375,-0.296875 2.21875,-0.296875 2.15625,0 3.65625,0.703125 1.51563,0.703125 2.32813,2.171875 h 0.46875 q 0.875,-1.515625 2.48437,-2.1875 1.60938,-0.6875 3.3125,-0.6875 z m 20.38086,0 q 2.71875,0 4.6875,1.046875 1.96875,1.03125 3.03125,3.03125 1.07813,1.984375 1.07813,4.84375 v 2.609375 h -12.67188 q 0.0937,2.265625 1.35938,3.5625 1.28125,1.28125 3.54687,1.28125 1.875,0 3.4375,-0.375 1.57813,-0.390625 3.21875,-1.171875 v 4.15625 q -1.45312,0.71875 -3.04687,1.046875 -1.59375,0.34375 -3.85938,0.34375 -2.95312,0 -5.23437,-1.09375 -2.26563,-1.09375 -3.5625,-3.328125 -1.28125,-2.234375 -1.28125,-5.625 0,-3.4375 1.15625,-5.734375 1.17187,-2.296875 3.26562,-3.4375 2.09375,-1.15625 4.875,-1.15625 z m 0.0312,3.8125 q -1.5625,0 -2.59375,1 -1.03125,1 -1.1875,3.140625 h 7.53125 q -0.0312,-1.1875 -0.4375,-2.125 -0.40625,-0.9375 -1.23437,-1.46875 -0.8125,-0.546875 -2.07813,-0.546875 z m 6.60938,-11.375 v 0.359375 q -0.5,0.5 -1.32813,1.21875 -0.82812,0.71875 -1.78125,1.5 -0.9375,0.78125 -1.85937,1.5 -0.90625,0.703125 -1.59375,1.1875 h -3.57813 v -0.484375 q 0.57813,-0.65625 1.34375,-1.578125 0.76563,-0.921875 1.51563,-1.90625 0.76562,-0.984375 1.28125,-1.796875 z m 29.59765,7.5625 q 3.34375,0 5.04688,1.71875 1.71875,1.703125 1.71875,5.484375 v 12.8125 h -5.375 V 39.713417 q 0,-2.109375 -0.71875,-3.171875 -0.71875,-1.078125 -2.23438,-1.078125 -2.125,0 -3.03125,1.53125 -0.89062,1.515625 -0.89062,4.34375 v 9.859375 h -5.35938 V 39.713417 q 0,-1.40625 -0.3125,-2.34375 -0.3125,-0.953125 -0.96875,-1.421875 -0.65625,-0.484375 -1.67187,-0.484375 -1.5,0 -2.35938,0.75 -0.84375,0.75 -1.20312,2.203125 -0.35938,1.4375 -0.35938,3.53125 v 9.25 h -5.35937 v -19.65625 h 4.09375 l 0.71875,2.515625 h 0.29687 q 0.60938,-1.015625 1.51563,-1.640625 0.90625,-0.640625 1.98437,-0.9375 1.09375,-0.296875 2.21875,-0.296875 2.15625,0 3.65625,0.703125 1.51563,0.703125 2.32813,2.171875 h 0.46875 q 0.875,-1.515625 2.48437,-2.1875 1.60938,-0.6875 3.3125,-0.6875 z m 30.13086,10.15625 q 0,2.453125 -0.65625,4.359375 -0.65625,1.890625 -1.92187,3.203125 -1.25,1.3125 -3.01563,1.984375 -1.76562,0.671875 -3.98437,0.671875 -2.07813,0 -3.8125,-0.671875 -1.71875,-0.671875 -3,-1.984375 -1.28125,-1.3125 -1.96875,-3.203125 -0.6875,-1.90625 -0.6875,-4.359375 0,-3.265625 1.15625,-5.53125 1.15625,-2.28125 3.29687,-3.453125 2.15625,-1.171875 5.125,-1.171875 2.75,0 4.89063,1.171875 2.14062,1.171875 3.35937,3.453125 1.21875,2.265625 1.21875,5.53125 z m -13.59375,0 q 0,1.9375 0.42188,3.25 0.42187,1.3125 1.3125,1.984375 0.90625,0.671875 2.34375,0.671875 1.4375,0 2.3125,-0.671875 0.89062,-0.671875 1.29687,-1.984375 0.42188,-1.3125 0.42188,-3.25 0,-1.953125 -0.42188,-3.234375 -0.40625,-1.296875 -1.3125,-1.953125 -0.89062,-0.65625 -2.32812,-0.65625 -2.125,0 -3.09375,1.46875 -0.95313,1.453125 -0.95313,4.375 z m 23.38281,-9.796875 v 19.65625 h -5.35937 v -19.65625 z m -2.67187,-7.703125 q 1.20312,0 2.0625,0.5625 0.85937,0.546875 0.85937,2.0625 0,1.5 -0.85937,2.078125 -0.85938,0.5625 -2.0625,0.5625 -1.20313,0 -2.0625,-0.5625 -0.85938,-0.578125 -0.85938,-2.078125 0,-1.515625 0.85938,-2.0625 0.85937,-0.5625 2.0625,-0.5625 z m 19.26758,7.34375 q 0.40625,0 0.9375,0.04687 0.54687,0.03125 0.875,0.109375 l -0.40625,5.015625 q -0.26563,-0.07813 -0.75,-0.125 -0.48438,-0.04687 -0.82813,-0.04687 -1.04687,0 -2.01562,0.265625 -0.96875,0.265625 -1.75,0.859375 -0.76563,0.578125 -1.21875,1.546875 -0.45313,0.953125 -0.45313,2.34375 v 10 h -5.35937 v -19.65625 h 4.0625 l 0.79687,3.3125 h 0.25 q 0.59375,-1 1.45313,-1.828125 0.875,-0.84375 1.98437,-1.34375 1.125,-0.5 2.42188,-0.5 z m 13.48828,0 q 2.71875,0 4.6875,1.046875 1.96875,1.03125 3.03125,3.03125 1.07812,1.984375 1.07812,4.84375 v 2.609375 h -12.67187 q 0.0937,2.265625 1.35937,3.5625 1.28125,1.28125 3.54688,1.28125 1.875,0 3.4375,-0.375 1.57812,-0.390625 3.21875,-1.171875 v 4.15625 q -1.45313,0.71875 -3.04688,1.046875 -1.59375,0.34375 -3.85937,0.34375 -2.95313,0 -5.23438,-1.09375 -2.26562,-1.09375 -3.5625,-3.328125 -1.28125,-2.234375 -1.28125,-5.625 0,-3.4375 1.15625,-5.734375 1.17188,-2.296875 3.26563,-3.4375 2.09375,-1.15625 4.875,-1.15625 z m 0.0312,3.8125 q -1.5625,0 -2.59375,1 -1.03125,1 -1.1875,3.140625 h 7.53125 q -0.0312,-1.1875 -0.4375,-2.125 -0.40625,-0.9375 -1.23438,-1.46875 -0.8125,-0.546875 -2.07812,-0.546875 z m 28.69922,16.5625 q -3.28125,0 -5.34375,-2.578125 -2.0625,-2.578125 -2.0625,-7.578125 0,-5.046875 2.07812,-7.625 2.09375,-2.59375 5.46875,-2.59375 1.40625,0 2.48438,0.390625 1.07812,0.375 1.85937,1.03125 0.78125,0.640625 1.32813,1.453125 h 0.17187 q -0.10937,-0.5625 -0.26562,-1.65625 -0.14063,-1.109375 -0.14063,-2.265625 v -6.296875 h 5.375 v 27.359375 h -4.10937 l -1.03125,-2.546875 h -0.23438 q -0.51562,0.8125 -1.28125,1.46875 -0.76562,0.65625 -1.82812,1.046875 -1.04688,0.390625 -2.46875,0.390625 z m 1.89062,-4.28125 q 2.1875,0 3.09375,-1.3125 0.90625,-1.3125 0.96875,-3.9375 v -0.578125 q 0,-2.875 -0.89062,-4.390625 -0.875,-1.515625 -3.26563,-1.515625 -1.78125,0 -2.78125,1.53125 -1,1.515625 -1,4.40625 0,2.875 1.01563,4.34375 1.01562,1.453125 2.85937,1.453125 z m 20.03125,-15.734375 v 19.65625 h -5.35937 v -19.65625 z m -2.67187,-7.703125 q 1.20312,0 2.0625,0.5625 0.85937,0.546875 0.85937,2.0625 0,1.5 -0.85937,2.078125 -0.85938,0.5625 -2.0625,0.5625 -1.20313,0 -2.0625,-0.5625 -0.85938,-0.578125 -0.85938,-2.078125 0,-1.515625 0.85938,-2.0625 0.85937,-0.5625 2.0625,-0.5625 z m 22.01757,21.515625 q 0,2.015625 -0.95312,3.390625 -0.9375,1.375 -2.79688,2.09375 -1.85937,0.71875 -4.64062,0.71875 -2.0625,0 -3.53125,-0.265625 -1.46875,-0.265625 -2.95313,-0.890625 v -4.421875 q 1.59375,0.71875 3.42188,1.1875 1.84375,0.46875 3.23437,0.46875 1.5625,0 2.23438,-0.46875 0.6875,-0.46875 0.6875,-1.21875 0,-0.5 -0.28125,-0.890625 -0.26563,-0.40625 -1.17188,-0.90625 -0.89062,-0.5 -2.79687,-1.296875 -1.84375,-0.78125 -3.03125,-1.5625 -1.1875,-0.796875 -1.76563,-1.875 -0.5625,-1.09375 -0.5625,-2.75 0,-2.734375 2.10938,-4.109375 2.125,-1.375 5.67187,-1.375 1.82813,0 3.48438,0.375 1.67187,0.359375 3.42187,1.171875 l -1.60937,3.859375 q -1.46875,-0.625 -2.76563,-1.03125 -1.28125,-0.40625 -2.625,-0.40625 -1.17187,0 -1.78125,0.3125 -0.59375,0.3125 -0.59375,0.96875 0,0.46875 0.3125,0.84375 0.3125,0.375 1.1875,0.828125 0.89063,0.4375 2.625,1.140625 1.67188,0.6875 2.89063,1.4375 1.23437,0.734375 1.90625,1.84375 0.67187,1.09375 0.67187,2.828125 z m 12.45704,1.921875 q 0.875,0 1.70312,-0.171875 0.84375,-0.171875 1.67188,-0.4375 v 3.984375 q -0.85938,0.390625 -2.14063,0.640625 -1.26562,0.265625 -2.78125,0.265625 -1.76562,0 -3.15625,-0.578125 -1.39062,-0.578125 -2.20312,-1.984375 -0.79688,-1.421875 -0.79688,-3.953125 v -9.46875 h -2.5625 v -2.265625 l 2.95313,-1.796875 1.54687,-4.15625 h 3.42188 v 4.1875 h 5.5 v 4.03125 h -5.5 v 9.46875 q 0,1.125 0.64062,1.6875 0.64063,0.546875 1.70313,0.546875 z m 18.31445,-16.09375 q 0.40625,0 0.9375,0.04687 0.54687,0.03125 0.875,0.109375 l -0.40625,5.015625 q -0.26563,-0.07813 -0.75,-0.125 -0.48438,-0.04687 -0.82813,-0.04687 -1.04687,0 -2.01562,0.265625 -0.96875,0.265625 -1.75,0.859375 -0.76563,0.578125 -1.21875,1.546875 -0.45313,0.953125 -0.45313,2.34375 v 10 h -5.35937 v -19.65625 h 4.0625 l 0.79687,3.3125 h 0.25 q 0.59375,-1 1.45313,-1.828125 0.875,-0.84375 1.98437,-1.34375 1.125,-0.5 2.42188,-0.5 z m 10.73828,0.359375 v 19.65625 h -5.35938 v -19.65625 z m -2.67188,-7.703125 q 1.20313,0 2.0625,0.5625 0.85938,0.546875 0.85938,2.0625 0,1.5 -0.85938,2.078125 -0.85937,0.5625 -2.0625,0.5625 -1.20312,0 -2.0625,-0.5625 -0.85937,-0.578125 -0.85937,-2.078125 0,-1.515625 0.85937,-2.0625 0.85938,-0.5625 2.0625,-0.5625 z m 13.65821,0 v 6.375 q 0,1.109375 -0.0625,2.203125 -0.0625,1.078125 -0.14063,1.671875 h 0.20313 q 0.78125,-1.203125 2.10937,-2.046875 1.34375,-0.859375 3.46875,-0.859375 3.29688,0 5.35938,2.578125 2.0625,2.578125 2.0625,7.578125 0,3.359375 -0.95313,5.640625 -0.95312,2.265625 -2.65625,3.421875 -1.70312,1.15625 -3.95312,1.15625 -2.17188,0 -3.42188,-0.78125 -1.23437,-0.78125 -2.01562,-1.734375 h -0.35938 l -0.90625,2.15625 h -4.09375 V 23.838417 Z m 3.85937,11.625 q -1.40625,0 -2.23437,0.578125 -0.82813,0.578125 -1.21875,1.75 -0.375,1.15625 -0.40625,2.921875 v 0.59375 q 0,2.859375 0.84375,4.390625 0.84375,1.515625 3.07812,1.515625 1.65625,0 2.625,-1.53125 0.98438,-1.53125 0.98438,-4.421875 0,-2.875 -0.98438,-4.328125 -0.98437,-1.46875 -2.6875,-1.46875 z m 31.59375,-3.921875 v 19.65625 h -4.10937 l -0.71875,-2.515625 h -0.28125 q -0.64063,1 -1.59375,1.640625 -0.9375,0.625 -2.07813,0.921875 -1.14062,0.3125 -2.375,0.3125 -2.10937,0 -3.67187,-0.75 -1.5625,-0.75 -2.4375,-2.328125 -0.875,-1.59375 -0.875,-4.125 v -12.8125 h 5.35937 v 11.484375 q 0,2.109375 0.75,3.1875 0.76563,1.0625 2.42188,1.0625 1.64062,0 2.5625,-0.75 0.9375,-0.75 1.3125,-2.1875 0.375,-1.453125 0.375,-3.546875 v -9.25 z m 13.73828,-0.359375 q 2.71875,0 4.6875,1.046875 1.96875,1.03125 3.03125,3.03125 1.07813,1.984375 1.07813,4.84375 v 2.609375 h -12.67188 q 0.0937,2.265625 1.35938,3.5625 1.28125,1.28125 3.54687,1.28125 1.875,0 3.4375,-0.375 1.57813,-0.390625 3.21875,-1.171875 v 4.15625 q -1.45312,0.71875 -3.04687,1.046875 -1.59375,0.34375 -3.85938,0.34375 -2.95312,0 -5.23437,-1.09375 -2.26563,-1.09375 -3.5625,-3.328125 -1.28125,-2.234375 -1.28125,-5.625 0,-3.4375 1.15625,-5.734375 1.17187,-2.296875 3.26562,-3.4375 2.09375,-1.15625 4.875,-1.15625 z m 0.0312,3.8125 q -1.5625,0 -2.59375,1 -1.03125,1 -1.1875,3.140625 h 7.53125 q -0.0312,-1.1875 -0.4375,-2.125 -0.40625,-0.9375 -1.23437,-1.46875 -0.8125,-0.546875 -2.07813,-0.546875 z m 6.60938,-11.375 v 0.359375 q -0.5,0.5 -1.32813,1.21875 -0.82812,0.71875 -1.78125,1.5 -0.9375,0.78125 -1.85937,1.5 -0.90625,0.703125 -1.59375,1.1875 h -3.57813 v -0.484375 q 0.57813,-0.65625 1.34375,-1.578125 0.76563,-0.921875 1.51563,-1.90625 0.76562,-0.984375 1.28125,-1.796875 z m 14.6289,7.5625 q 2.71875,0 4.6875,1.046875 1.96875,1.03125 3.03125,3.03125 1.07813,1.984375 1.07813,4.84375 v 2.609375 H 592.8143 q 0.0937,2.265625 1.35938,3.5625 1.28125,1.28125 3.54687,1.28125 1.875,0 3.4375,-0.375 1.57813,-0.390625 3.21875,-1.171875 v 4.15625 q -1.45312,0.71875 -3.04687,1.046875 -1.59375,0.34375 -3.85938,0.34375 -2.95312,0 -5.23437,-1.09375 -2.26563,-1.09375 -3.5625,-3.328125 -1.28125,-2.234375 -1.28125,-5.625 0,-3.4375 1.15625,-5.734375 1.17187,-2.296875 3.26562,-3.4375 2.09375,-1.15625 4.875,-1.15625 z m 0.0312,3.8125 q -1.5625,0 -2.59375,1 -1.03125,1 -1.1875,3.140625 h 7.53125 q -0.0312,-1.1875 -0.4375,-2.125 -0.40625,-0.9375 -1.23437,-1.46875 -0.8125,-0.546875 -2.07813,-0.546875 z"
     fill-rule="nonzero"
     id="path5"
     style="fill:#013d5b;fill-opacity:1" />
  <path
     fill="#fce5cd"
     d="m 317.1496,100.44226 h 62.23624 V 504.00131 H 317.1496 Z"
     fill-rule="evenodd"
     id="path6" />
  <path
     stroke="#666666"
     stroke-width="2"
     stroke-linejoin="round"
     stroke-linecap="butt"
     d="m 317.1496,100.44226 h 62.23624 V 504.00131 H 317.1496 Z"
     fill-rule="evenodd"
     id="path7" />
  <path
     fill="#000000"
     fill-opacity="0"
     d="M 348.26773,100.44226 V 504.00131"
     fill-rule="evenodd"
     id="path8" />
  <path
     stroke="#3a81ba"
     stroke-width="4"
     stroke-linejoin="round"
     stroke-linecap="butt"
     d="M 348.26773,100.44226 V 480.00131"
     fill-rule="evenodd"
     id="path9" />
  <path
     fill="#3a81ba"
     stroke="#3a81ba"
     stroke-width="4"
     stroke-linecap="butt"
     d="m 341.6608,480.0013 6.60693,18.1524 6.60691,-18.1524 z"
     fill-rule="evenodd"
     id="path10" />
  <path
     fill="#fce5cd"
     d="m 406.03674,100.44226 h 62.23624 v 403.55905 h -62.23624 z"
     fill-rule="evenodd"
     id="path11" />
  <path
     stroke="#666666"
     stroke-width="2"
     stroke-linejoin="round"
     stroke-linecap="butt"
     d="m 406.03674,100.44226 h 62.23624 v 403.55905 h -62.23624 z"
     fill-rule="evenodd"
     id="path12" />
  <path
     fill="#000000"
     fill-opacity="0"
     d="M 437.15485,100.44226 V 504.00131"
     fill-rule="evenodd"
     id="path13" />
  <path
     stroke="#3a81ba"
     stroke-width="4"
     stroke-linejoin="round"
     stroke-linecap="butt"
     d="M 437.15485,100.44226 V 480.00131"
     fill-rule="evenodd"
     id="path14" />
  <path
     fill="#3a81ba"
     stroke="#3a81ba"
     stroke-width="4"
     stroke-linecap="butt"
     d="m 430.5479,480.0013 6.60693,18.1524 6.60694,-18.1524 z"
     fill-rule="evenodd"
     id="path15" />
  <path
     fill="#fce5cd"
     d="m 494.9239,100.44226 h 62.23621 V 504.00131 H 494.9239 Z"
     fill-rule="evenodd"
     id="path16" />
  <path
     stroke="#666666"
     stroke-width="2"
     stroke-linejoin="round"
     stroke-linecap="butt"
     d="m 494.9239,100.44226 h 62.23621 V 504.00131 H 494.9239 Z"
     fill-rule="evenodd"
     id="path17" />
  <path
     fill="#000000"
     fill-opacity="0"
     d="M 526.042,100.44226 V 504.00131"
     fill-rule="evenodd"
     id="path18" />
  <path
     stroke="#3a81ba"
     stroke-width="4"
     stroke-linejoin="round"
     stroke-linecap="butt"
     d="M 526.042,100.44226 V 480.00131"
     fill-rule="evenodd"
     id="path19" />
  <path
     fill="#3a81ba"
     stroke="#3a81ba"
     stroke-width="4"
     stroke-linecap="butt"
     d="m 519.43506,480.0013 6.60693,18.1524 6.60694,-18.1524 z"
     fill-rule="evenodd"
     id="path20" />
  <path
     fill="#ffff00"
     d="M 583.81104,531.0827 V 74.13778 h 62.29919 V 531.0827 Z"
     fill-rule="evenodd"
     id="path21"
     style="fill:#ffff33;fill-opacity:1" />
  <path
     stroke="#666666"
     stroke-width="2"
     stroke-linejoin="round"
     stroke-linecap="butt"
     d="M 583.81104,531.0827 V 74.13778 h 62.29919 V 531.0827 Z"
     fill-rule="evenodd"
     id="path22" />
  <path
     fill="#000000"
     d="m 600.7981,352.92664 q 0,-3.73437 1.98437,-6.10937 1.96875,-2.39063 5.5,-2.39063 2.8125,0 4.67188,1.23438 1.85937,1.21875 2.5625,3.71875 h 0.0781 q 0.42188,-2.15625 2.01563,-3.1875 1.59375,-1.03125 5.45312,-1.1875 2.5,-0.0937 3.9375,-0.45313 1.42188,-0.375 2.35938,-1.125 v 4.23438 q -0.46875,0.35937 -0.92188,0.46875 -0.46875,0.10937 -1.26562,0.20312 l -3.14063,0.15625 q -2.21875,0.0625 -4.5,0.95313 -2.28125,0.875 -2.375,3.90625 v 9.39062 h 12.20313 v 3.79688 h -28.5625 z m 13.17187,1.6875 q 0,-3.15625 -1.23437,-4.78125 -1.25,-1.625 -3.85938,-1.625 -2.3125,0 -3.59375,1.3125 -1.28125,1.29688 -1.28125,3.64063 v 9.57812 h 9.96875 z m -5.76562,-23.51172 q 0,-4.45312 3.20312,-6.90625 3.20313,-2.46875 8.21875,-2.46875 h 0.42188 v 15.48438 h 0.25 q 2.95312,0 4.75,-1.71875 1.79687,-1.71875 1.79687,-4.71875 0,-2.26563 -1.04687,-3.59375 -1.0625,-1.34375 -3,-1.76563 v -3.35937 q 3.4375,0.6875 5.25,3.01562 1.79687,2.32813 1.79687,5.8125 0,3.26563 -1.46875,5.53125 -1.48437,2.25 -4.10937,3.32813 -2.625,1.0625 -5.375,1.0625 -4.57813,0 -7.625,-2.75 -3.0625,-2.75 -3.0625,-6.95313 z m 8.82812,6.10938 v -11.875 q -2.51562,0.15625 -4.17187,1.82812 -1.67188,1.67188 -1.67188,4.17188 0,2.34375 1.59375,4.01562 1.57813,1.65625 4.25,1.85938 z m -16.95312,-12.01563 5.71875,5.26563 v 2.54687 l -5.71875,-3.45312 z m 8.125,-13.85937 q 0,-4.17188 1.625,-6.20313 1.625,-2.03125 4.84375,-2.23437 v 3.40625 h -0.0469 q -1.64062,0.125 -2.53125,1.4375 -0.90625,1.29687 -0.90625,3.34375 0,2.04687 0.70313,3.23437 0.6875,1.17188 1.9375,1.17188 1.14062,0 1.85937,-1.03125 0.71875,-1.04688 1.17188,-3.15625 l 0.71875,-3.20313 q 0.67187,-3.01562 2.04687,-4.57812 1.375,-1.5625 3.70313,-1.5625 3.04687,0 4.78125,2.375 1.73437,2.35937 1.73437,6.4375 0,3.96875 -1.76562,6.29687 -1.78125,2.3125 -5.25,2.46875 v -3.42187 q 1.9375,-0.0469 2.98437,-1.51563 1.03125,-1.46875 1.03125,-4.03125 0,-2.45312 -0.78125,-3.71875 -0.78125,-1.28125 -2.3125,-1.28125 -1.39062,0 -2.1875,1.26563 -0.8125,1.26562 -1.59375,5.17187 -0.76562,3.90625 -2.15625,5.5 -1.40625,1.57813 -3.73437,1.57813 -2.70313,0 -4.28125,-2.20313 -1.59375,-2.20312 -1.59375,-5.54687 z m 0,-21.71875 q 0,-4.45313 3.20312,-6.90625 3.20313,-2.46875 8.21875,-2.46875 h 0.42188 v 15.48437 h 0.25 q 2.95312,0 4.75,-1.71875 1.79687,-1.71875 1.79687,-4.71875 0,-2.26562 -1.04687,-3.59375 -1.0625,-1.34375 -3,-1.76562 v -3.35938 q 3.4375,0.6875 5.25,3.01563 1.79687,2.32812 1.79687,5.8125 0,3.26562 -1.46875,5.53125 -1.48437,2.25 -4.10937,3.32812 -2.625,1.0625 -5.375,1.0625 -4.57813,0 -7.625,-2.75 -3.0625,-2.75 -3.0625,-6.95312 z m 8.82812,6.10937 v -11.875 q -2.51562,0.15625 -4.17187,1.82813 -1.67188,1.67187 -1.67188,4.17187 0,2.34375 1.59375,4.01563 1.57813,1.65625 4.25,1.85937 z m -8.82812,-27.45312 q 0,-4.21875 1.51562,-5.98438 1.5,-1.76562 4.01563,-1.76562 10.76562,0 11.9375,0 1.17187,0 1.17187,-1.07813 0,-0.23437 -0.0625,-0.5 -0.0625,-0.28125 -0.14062,-0.53125 h 2.64062 q 0.28125,0.46875 0.42188,1.07813 0.14062,0.60937 0.14062,1.34375 0,1.40625 -0.78125,2.15625 -0.79687,0.73437 -2.42187,0.73437 1.60937,1.34375 2.40625,3.1875 0.79687,1.82813 0.79687,4.09375 0,3.20313 -1.51562,5.01563 -1.51563,1.8125 -4.28125,1.8125 -2.79688,0 -4.42188,-1.76563 -1.64062,-1.78125 -2.45312,-8.35937 -0.29688,-2.23438 -0.85938,-3.01563 -0.5625,-0.79687 -1.70312,-0.79687 -1.71875,0 -2.5625,1.10937 -0.85938,1.09375 -0.85938,3.5 0,2.51563 0.96875,3.78125 0.95313,1.25 2.96875,1.35938 v 3.39062 q -3.4375,-0.15625 -5.17187,-2.42187 -1.75,-2.26563 -1.75,-6.34375 z m 15.59375,5.96875 q 1.4375,0 2.25,-1.04688 0.79687,-1.0625 0.79687,-2.95312 0,-2.875 -1.42187,-4.59375 -1.4375,-1.71875 -3.1875,-1.71875 h -3.5625 q 0.60937,0.85937 0.82812,2.23437 0.20313,1.35938 0.51563,3.625 0.34375,2.26563 1.25,3.35938 0.89062,1.09375 2.53125,1.09375 z m -15.125,-22.39063 h 14.10937 q 1.75,0 2.90625,-1.125 1.15625,-1.125 1.15625,-3.09375 0,-2.9375 -1.78125,-4.53125 -1.79687,-1.59375 -4.57812,-1.59375 h -11.8125 v -3.39062 h 20.6875 v 3.20312 h -3.28125 v 0.0781 q 1.96875,1.125 2.875,2.82812 0.89062,1.70313 0.89062,3.90625 0,3.60938 -1.85937,5.35938 -1.875,1.75 -5.51563,1.75 H 608.6731 Z"
     fill-rule="nonzero"
     id="path23" />
  <path
     fill="#fce5cd"
     d="m 672.76117,100.44226 h 62.23621 v 403.55905 h -62.23621 z"
     fill-rule="evenodd"
     id="path24" />
  <path
     stroke="#666666"
     stroke-width="2"
     stroke-linejoin="round"
     stroke-linecap="butt"
     d="m 672.76117,100.44226 h 62.23621 v 403.55905 h -62.23621 z"
     fill-rule="evenodd"
     id="path25" />
  <path
     fill="#000000"
     fill-opacity="0"
     d="M 703.8793,100.44226 V 504.00131"
     fill-rule="evenodd"
     id="path26" />
  <path
     stroke="#3a81ba"
     stroke-width="4"
     stroke-linejoin="round"
     stroke-linecap="butt"
     d="M 703.8793,100.44226 V 480.00131"
     fill-rule="evenodd"
     id="path27" />
  <path
     fill="#3a81ba"
     stroke="#3a81ba"
     stroke-width="4"
     stroke-linecap="butt"
     d="m 697.27234,480.0013 6.60693,18.1524 6.60694,-18.1524 z"
     fill-rule="evenodd"
     id="path28" />
  <path
     fill="#fce5cd"
     d="m 761.6483,100.44226 h 62.23621 V 504.00131 H 761.6483 Z"
     fill-rule="evenodd"
     id="path29" />
  <path
     stroke="#666666"
     stroke-width="2"
     stroke-linejoin="round"
     stroke-linecap="butt"
     d="m 761.6483,100.44226 h 62.23621 V 504.00131 H 761.6483 Z"
     fill-rule="evenodd"
     id="path30" />
  <path
     fill="#000000"
     fill-opacity="0"
     d="M 792.7664,100.44226 V 504.00131"
     fill-rule="evenodd"
     id="path31" />
  <path
     stroke="#3a81ba"
     stroke-width="4"
     stroke-linejoin="round"
     stroke-linecap="butt"
     d="M 792.7664,100.44226 V 480.00131"
     fill-rule="evenodd"
     id="path32" />
  <path
     fill="#3a81ba"
     stroke="#3a81ba"
     stroke-width="4"
     stroke-linecap="butt"
     d="m 786.1595,480.0013 6.60693,18.1524 6.60694,-18.1524 z"
     fill-rule="evenodd"
     id="path33" />
  <path
     fill="#fce5cd"
     d="m 850.53546,100.44226 h 62.23621 v 403.55905 h -62.23621 z"
     fill-rule="evenodd"
     id="path34" />
  <path
     stroke="#666666"
     stroke-width="2"
     stroke-linejoin="round"
     stroke-linecap="butt"
     d="m 850.53546,100.44226 h 62.23621 v 403.55905 h -62.23621 z"
     fill-rule="evenodd"
     id="path35" />
  <path
     fill="#000000"
     fill-opacity="0"
     d="M 881.65356,100.44226 V 504.00131"
     fill-rule="evenodd"
     id="path36" />
  <path
     stroke="#3a81ba"
     stroke-width="4"
     stroke-linejoin="round"
     stroke-linecap="butt"
     d="M 881.65356,100.44226 V 480.00131"
     fill-rule="evenodd"
     id="path37" />
  <path
     fill="#3a81ba"
     stroke="#3a81ba"
     stroke-width="4"
     stroke-linecap="butt"
     d="m 875.04663,480.0013 6.60693,18.1524 6.60694,-18.1524 z"
     fill-rule="evenodd"
     id="path38" />
  <path
     fill="#000000"
     fill-opacity="0"
     d="m 347.61154,141.43701 89.16537,18.89763"
     fill-rule="evenodd"
     id="path39" />
  <path
     stroke="#00ff00"
     stroke-width="4"
     stroke-linejoin="round"
     stroke-linecap="butt"
     d="m 347.61154,141.43701 89.16537,18.89763"
     fill-rule="evenodd"
     id="path40"
     style="stroke:#00d400" />
  <path
     fill="#000000"
     fill-opacity="0"
     d="m 347.61154,130.14043 179.08664,19.74803"
     fill-rule="evenodd"
     id="path41" />
  <path
     stroke="#00ff00"
     stroke-width="4"
     stroke-linejoin="round"
     stroke-linecap="butt"
     d="m 347.61154,130.14043 179.08664,19.74803"
     fill-rule="evenodd"
     id="path42"
     style="stroke:#00d400" />
  <path
     fill="#000000"
     fill-opacity="0"
     d="m 347.7743,179.6811 357.51178,53.82677"
     fill-rule="evenodd"
     id="path43" />
  <path
     stroke="#00ff00"
     stroke-width="4"
     stroke-linejoin="round"
     stroke-linecap="butt"
     d="m 347.7743,179.6811 357.51178,53.82677"
     fill-rule="evenodd"
     id="path44"
     style="stroke:#00d400" />
  <path
     fill="#000000"
     fill-opacity="0"
     d="m 348.32416,451.1063 533.3858,-75.49606"
     fill-rule="evenodd"
     id="path45" />
  <path
     stroke="#00ff00"
     stroke-width="4"
     stroke-linejoin="round"
     stroke-linecap="butt"
     d="m 348.32416,451.1063 533.3858,-75.49606"
     fill-rule="evenodd"
     id="path46"
     style="stroke:#00d400" />
  <path
     fill="#fce5cd"
     d="M 64.944885,74.04068 H 251.43307 V 260.52887 H 64.944885 Z"
     fill-rule="evenodd"
     id="path47" />
  <path
     stroke="#666666"
     stroke-width="2"
     stroke-linejoin="round"
     stroke-linecap="butt"
     d="M 64.944885,74.04068 H 251.43307 V 260.52887 H 64.944885 Z"
     fill-rule="evenodd"
     id="path48" />
  <path
     fill="#000000"
     d="m 81.319885,87.64818 q 1.828125,0 2.90625,1 1.09375,0.984375 1.09375,2.9375 0,1.953125 -1.09375,2.9375 -1.078125,0.984375 -2.78125,0.984375 h -4.28125 v 5.453125 H 75.39801 v -13.3125 z m -0.484375,6.375 q 1.265625,0 1.984375,-0.59375 0.734375,-0.609375 0.734375,-1.84375 0,-1.234375 -0.71875,-1.84375 -0.71875,-0.609375 -2.109375,-0.609375 h -3.5625 v 4.890625 z m 10.823975,-2.9375 q 0.04687,0 0.09375,0 0.04687,0 0.125,0.01563 v 1.671875 q -1.796875,0 -2.65625,0.953125 -0.84375,0.9375 -0.84375,2.921875 v 4.312495 H 86.80011 v -9.64062 h 1.484375 v 2.03125 h 0.04687 q 0.546875,-1.15625 1.359375,-1.703125 0.828125,-0.5625 1.96875,-0.5625 z m 5.234818,0.01563 q 2.1875,0 3.421877,1.40625 1.25,1.40625 1.25,3.640625 0,2.25 -1.28125,3.65625 -1.265627,1.390615 -3.390627,1.390615 -2.09375,0 -3.390625,-1.37499 -1.296875,-1.375 -1.296875,-3.671875 0,-2.296875 1.265625,-3.671875 1.265625,-1.375 3.421875,-1.375 z m -3.015625,5.046875 q 0,1.65625 0.84375,2.65625 0.859375,0.984375 2.171875,0.984375 1.296875,0 2.140625,-0.984375 0.859375,-1 0.859375,-2.65625 0,-1.640625 -0.84375,-2.640625 -0.84375,-1.015625 -2.171875,-1.015625 -1.28125,0 -2.140625,0.984375 -0.859375,0.984375 -0.859375,2.671875 z M 107.46645,91.10131 q 1.76562,0 2.85937,0.84375 1.10938,0.828125 1.29688,2.46875 h -1.625 q -0.20313,-0.9375 -0.82813,-1.421875 -0.625,-0.5 -1.5625,-0.5 -1.48437,0 -2.25,0.984375 -0.76562,0.984375 -0.76562,2.78125 0,1.609375 0.75,2.578125 0.76562,0.953125 2.07812,0.953125 1.15625,0 1.8125,-0.625 0.67188,-0.625 0.82813,-1.734375 h 1.625 q -0.26563,1.8125 -1.35938,2.796865 -1.09375,0.96875 -2.89062,0.96875 -2.10938,0 -3.3125,-1.328115 -1.20313,-1.328125 -1.20313,-3.609375 0,-2.359375 1.21875,-3.75 1.21875,-1.40625 3.32813,-1.40625 z m 10.00482,0 q 2.07812,0 3.21875,1.5 1.15625,1.484375 1.15625,3.828125 v 0.1875 h -7.23438 v 0.109375 q 0,1.390625 0.79688,2.234375 0.8125,0.828125 2.21875,0.828125 1.04687,0 1.67187,-0.484375 0.625,-0.5 0.82813,-1.40625 h 1.5625 q -0.32813,1.609375 -1.40625,2.453115 -1.07813,0.84375 -2.71875,0.84375 -1.51563,0 -2.57813,-0.6875 -1.04687,-0.68749 -1.54687,-1.90624 -0.5,-1.234375 -0.5,-2.515625 0,-2.140625 1.28125,-3.5625 1.29687,-1.421875 3.25,-1.421875 z m -2.85938,4.109375 h 5.54688 q -0.0781,-1.171875 -0.85938,-1.9375 -0.76562,-0.78125 -1.9375,-0.78125 -1.09375,0 -1.875,0.734375 -0.76562,0.734375 -0.875,1.984375 z m 12.08295,-4.109375 q 1.9375,0 2.89063,0.75 0.95312,0.75 1.03125,2.265625 h -1.57813 v -0.03125 q -0.0625,-0.765625 -0.67187,-1.171875 -0.60938,-0.421875 -1.5625,-0.421875 -0.95313,0 -1.51563,0.328125 -0.54687,0.3125 -0.54687,0.90625 0,0.515625 0.48437,0.859375 0.5,0.328125 1.48438,0.546875 l 1.48437,0.328125 q 1.40625,0.3125 2.125,0.953125 0.73438,0.640625 0.73438,1.734375 0,1.421875 -1.10938,2.234365 -1.09375,0.8125 -2.98437,0.8125 -1.85938,0 -2.95313,-0.82812 -1.07812,-0.843745 -1.14062,-2.45312 h 1.59375 q 0.0312,0.90625 0.70312,1.390625 0.6875,0.484375 1.875,0.484375 1.15625,0 1.75,-0.359375 0.59375,-0.375 0.59375,-1.078125 0,-0.65625 -0.59375,-1.03125 -0.59375,-0.375 -2.40625,-0.734375 -1.82812,-0.359375 -2.57812,-1.015625 -0.73438,-0.65625 -0.73438,-1.734375 0,-1.265625 1.03125,-2 1.03125,-0.734375 2.59375,-0.734375 z m 9.32813,0 q 1.9375,0 2.89062,0.75 0.95313,0.75 1.03125,2.265625 h -1.57812 v -0.03125 q -0.0625,-0.765625 -0.67188,-1.171875 -0.60937,-0.421875 -1.5625,-0.421875 -0.95312,0 -1.51562,0.328125 -0.54688,0.3125 -0.54688,0.90625 0,0.515625 0.48438,0.859375 0.5,0.328125 1.48437,0.546875 l 1.48438,0.328125 q 1.40625,0.3125 2.125,0.953125 0.73437,0.640625 0.73437,1.734375 0,1.421875 -1.10937,2.234365 -1.09375,0.8125 -2.98438,0.8125 -1.85937,0 -2.95312,-0.82812 -1.07813,-0.843745 -1.14063,-2.45312 h 1.59375 q 0.0312,0.90625 0.70313,1.390625 0.6875,0.484375 1.875,0.484375 1.15625,0 1.75,-0.359375 0.59375,-0.375 0.59375,-1.078125 0,-0.65625 -0.59375,-1.03125 -0.59375,-0.375 -2.40625,-0.734375 -1.82813,-0.359375 -2.57813,-1.015625 -0.73437,-0.65625 -0.73437,-1.734375 0,-1.265625 1.03125,-2 1.03125,-0.734375 2.59375,-0.734375 z m 7.70312,0.21875 v 6.578125 q 0,0.8125 0.51563,1.359375 0.53125,0.53125 1.45312,0.53125 1.35938,0 2.09375,-0.828125 0.75,-0.84375 0.75,-2.140625 v -5.5 h 1.59375 v 9.64062 h -1.5 v -1.531245 h -0.0312 q -0.53125,0.921865 -1.32812,1.343745 -0.79688,0.42187 -1.8125,0.42187 -1.6875,0 -2.51563,-0.875 -0.8125,-0.87499 -0.8125,-2.578115 V 91.32006 Z m 12.00072,-0.21875 q 1.9375,0 2.89062,0.75 0.95313,0.75 1.03125,2.265625 h -1.57812 v -0.03125 q -0.0625,-0.765625 -0.67188,-1.171875 -0.60937,-0.421875 -1.5625,-0.421875 -0.95312,0 -1.51562,0.328125 -0.54688,0.3125 -0.54688,0.90625 0,0.515625 0.48438,0.859375 0.5,0.328125 1.48437,0.546875 l 1.48438,0.328125 q 1.40625,0.3125 2.125,0.953125 0.73437,0.640625 0.73437,1.734375 0,1.421875 -1.10937,2.234365 -1.09375,0.8125 -2.98438,0.8125 -1.85937,0 -2.95312,-0.82812 -1.07813,-0.843745 -1.14063,-2.45312 h 1.59375 q 0.0312,0.90625 0.70313,1.390625 0.6875,0.484375 1.875,0.484375 1.15625,0 1.75,-0.359375 0.59375,-0.375 0.59375,-1.078125 0,-0.65625 -0.59375,-1.03125 -0.59375,-0.375 -2.40625,-0.734375 -1.82813,-0.359375 -2.57813,-1.015625 -0.73437,-0.65625 -0.73437,-1.734375 0,-1.265625 1.03125,-2 1.03125,-0.734375 2.59375,-0.734375 z m 16.7458,-3.375 v 13.23437 h -1.57812 v -9.468745 h -3.4375 v -1.28125 h 0.0469 q 1.6875,0 2.59375,-0.59375 0.92188,-0.609375 1.15625,-1.890625 z"
     fill-rule="nonzero"
     id="path49" />
  <path
     fill="#a4c2f4"
     d="m 140.47244,141.43701 h 66.67717 v 49.38582 h -66.67717 z"
     fill-rule="evenodd"
     id="path50" />
  <path
     stroke="#666666"
     stroke-width="2"
     stroke-linejoin="round"
     stroke-linecap="butt"
     d="m 140.47244,141.43701 h 66.67717 v 49.38582 h -66.67717 z"
     fill-rule="evenodd"
     id="path51" />
  <path
     fill="#fce5cd"
     d="M 64.944885,344.6929 H 251.43307 V 531.18109 H 64.944885 Z"
     fill-rule="evenodd"
     id="path53" />
  <path
     stroke="#666666"
     stroke-width="2"
     stroke-linejoin="round"
     stroke-linecap="butt"
     d="M 64.944885,344.6929 H 251.43307 V 531.18109 H 64.944885 Z"
     fill-rule="evenodd"
     id="path54" />
  <path
     fill="#000000"
     d="m 81.319885,504.7886 q 1.828125,0 2.90625,1 1.09375,0.98437 1.09375,2.9375 0,1.95312 -1.09375,2.9375 -1.078125,0.98434 -2.78125,0.98434 h -4.28125 v 5.45313 H 75.39801 V 504.7886 Z m -0.484375,6.375 q 1.265625,0 1.984375,-0.59375 0.734375,-0.60938 0.734375,-1.84375 0,-1.23438 -0.71875,-1.84375 -0.71875,-0.60938 -2.109375,-0.60938 h -3.5625 v 4.89063 z m 10.823975,-2.9375 q 0.04687,0 0.09375,0 0.04687,0 0.125,0.0156 v 1.67188 q -1.796875,0 -2.65625,0.95312 -0.84375,0.9375 -0.84375,2.92185 v 4.3125 H 86.80011 v -9.6406 h 1.484375 v 2.03125 h 0.04687 q 0.546875,-1.15625 1.359375,-1.70312 0.828125,-0.5625 1.96875,-0.5625 z m 5.234818,0.0156 q 2.1875,0 3.421877,1.40625 1.25,1.40625 1.25,3.6406 0,2.25 -1.28125,3.65625 -1.265627,1.39062 -3.390627,1.39062 -2.09375,0 -3.390625,-1.375 -1.296875,-1.375 -1.296875,-3.67187 0,-2.29685 1.265625,-3.67185 1.265625,-1.375 3.421875,-1.375 z m -3.015625,5.04685 q 0,1.65625 0.84375,2.65625 0.859375,0.98437 2.171875,0.98437 1.296875,0 2.140625,-0.98437 0.859375,-1 0.859375,-2.65625 0,-1.6406 -0.84375,-2.6406 -0.84375,-1.01562 -2.171875,-1.01562 -1.28125,0 -2.140625,0.98437 -0.859375,0.98438 -0.859375,2.67185 z m 13.587772,-5.04685 q 1.76562,0 2.85937,0.84375 1.10938,0.82813 1.29688,2.46875 h -1.625 q -0.20313,-0.9375 -0.82813,-1.42187 -0.625,-0.5 -1.5625,-0.5 -1.48437,0 -2.25,0.98437 -0.76562,0.98438 -0.76562,2.78122 0,1.60938 0.75,2.57813 0.76562,0.95312 2.07812,0.95312 1.15625,0 1.8125,-0.625 0.67188,-0.625 0.82813,-1.73437 h 1.625 q -0.26563,1.8125 -1.35938,2.79687 -1.09375,0.96875 -2.89062,0.96875 -2.10938,0 -3.3125,-1.32812 -1.20313,-1.32813 -1.20313,-3.60938 0,-2.35934 1.21875,-3.74997 1.21875,-1.40625 3.32813,-1.40625 z m 10.00482,0 q 2.07812,0 3.21875,1.5 1.15625,1.48438 1.15625,3.8281 v 0.1875 h -7.23438 v 0.10937 q 0,1.39063 0.79688,2.23438 0.8125,0.82812 2.21875,0.82812 1.04687,0 1.67187,-0.48437 0.625,-0.5 0.82813,-1.40625 h 1.5625 q -0.32813,1.60937 -1.40625,2.45312 -1.07813,0.84375 -2.71875,0.84375 -1.51563,0 -2.57813,-0.6875 -1.04687,-0.6875 -1.54687,-1.90625 -0.5,-1.23437 -0.5,-2.51562 0,-2.1406 1.28125,-3.56247 1.29687,-1.42188 3.25,-1.42188 z m -2.85938,4.10935 h 5.54688 q -0.0781,-1.17185 -0.85938,-1.93747 -0.76562,-0.78125 -1.9375,-0.78125 -1.09375,0 -1.875,0.73437 -0.76562,0.73438 -0.875,1.98435 z m 12.08295,-4.10935 q 1.9375,0 2.89063,0.75 0.95312,0.75 1.03125,2.26563 h -1.57813 v -0.0312 q -0.0625,-0.76563 -0.67187,-1.17188 -0.60938,-0.42187 -1.5625,-0.42187 -0.95313,0 -1.51563,0.32812 -0.54687,0.3125 -0.54687,0.90625 0,0.51563 0.48437,0.85938 0.5,0.32809 1.48438,0.54684 l 1.48437,0.32813 q 1.40625,0.3125 2.125,0.95312 0.73438,0.64063 0.73438,1.73438 0,1.42187 -1.10938,2.23437 -1.09375,0.8125 -2.98437,0.8125 -1.85938,0 -2.95313,-0.82812 -1.07812,-0.84375 -1.14062,-2.45313 h 1.59375 q 0.0312,0.90625 0.70312,1.39063 0.6875,0.48437 1.875,0.48437 1.15625,0 1.75,-0.35937 0.59375,-0.375 0.59375,-1.07813 0,-0.65625 -0.59375,-1.03125 -0.59375,-0.375 -2.40625,-0.73437 -1.82812,-0.35938 -2.57812,-1.01563 -0.73438,-0.65625 -0.73438,-1.73434 0,-1.26563 1.03125,-2 1.03125,-0.73438 2.59375,-0.73438 z m 9.32813,0 q 1.9375,0 2.89062,0.75 0.95313,0.75 1.03125,2.26563 h -1.57812 v -0.0312 q -0.0625,-0.76563 -0.67188,-1.17188 -0.60937,-0.42187 -1.5625,-0.42187 -0.95312,0 -1.51562,0.32812 -0.54688,0.3125 -0.54688,0.90625 0,0.51563 0.48438,0.85938 0.5,0.32809 1.48437,0.54684 l 1.48438,0.32813 q 1.40625,0.3125 2.125,0.95312 0.73437,0.64063 0.73437,1.73438 0,1.42187 -1.10937,2.23437 -1.09375,0.8125 -2.98438,0.8125 -1.85937,0 -2.95312,-0.82812 -1.07813,-0.84375 -1.14063,-2.45313 h 1.59375 q 0.0312,0.90625 0.70313,1.39063 0.6875,0.48437 1.875,0.48437 1.15625,0 1.75,-0.35937 0.59375,-0.375 0.59375,-1.07813 0,-0.65625 -0.59375,-1.03125 -0.59375,-0.375 -2.40625,-0.73437 -1.82813,-0.35938 -2.57813,-1.01563 -0.73437,-0.65625 -0.73437,-1.73434 0,-1.26563 1.03125,-2 1.03125,-0.73438 2.59375,-0.73438 z m 7.70312,0.21875 v 6.5781 q 0,0.8125 0.51563,1.35937 0.53125,0.53125 1.45312,0.53125 1.35938,0 2.09375,-0.82812 0.75,-0.84375 0.75,-2.14063 v -5.49997 h 1.59375 v 9.6406 h -1.5 v -1.53125 h -0.0312 q -0.53125,0.92187 -1.32812,1.34375 -0.79688,0.42187 -1.8125,0.42187 -1.6875,0 -2.51563,-0.875 -0.8125,-0.875 -0.8125,-2.57812 v -6.42185 z m 12.00072,-0.21875 q 1.9375,0 2.89062,0.75 0.95313,0.75 1.03125,2.26563 h -1.57812 v -0.0312 q -0.0625,-0.76563 -0.67188,-1.17188 -0.60937,-0.42187 -1.5625,-0.42187 -0.95312,0 -1.51562,0.32812 -0.54688,0.3125 -0.54688,0.90625 0,0.51563 0.48438,0.85938 0.5,0.32809 1.48437,0.54684 l 1.48438,0.32813 q 1.40625,0.3125 2.125,0.95312 0.73437,0.64063 0.73437,1.73438 0,1.42187 -1.10937,2.23437 -1.09375,0.8125 -2.98438,0.8125 -1.85937,0 -2.95312,-0.82812 -1.07813,-0.84375 -1.14063,-2.45313 h 1.59375 q 0.0312,0.90625 0.70313,1.39063 0.6875,0.48437 1.875,0.48437 1.15625,0 1.75,-0.35937 0.59375,-0.375 0.59375,-1.07813 0,-0.65625 -0.59375,-1.03125 -0.59375,-0.375 -2.40625,-0.73437 -1.82813,-0.35938 -2.57813,-1.01563 -0.73437,-0.65625 -0.73437,-1.73434 0,-1.26563 1.03125,-2 1.03125,-0.73438 2.59375,-0.73438 z m 15.1833,-3.375 q 1.82813,0 2.98438,1.04688 1.15625,1.03125 1.15625,2.76562 0,1.375 -0.76563,2.48438 -0.76562,1.09372 -3.25,2.51559 -1.5,0.875 -2.14062,1.57813 -0.625,0.6875 -0.76563,1.4375 h 6.78125 v 1.40625 h -8.625 q 0.125,-1.65625 0.84375,-2.89063 0.71875,-1.23437 2.67188,-2.40625 2.3125,-1.40622 2.9375,-2.20309 0.625,-0.8125 0.625,-1.92188 0,-1.04687 -0.73438,-1.71875 -0.71875,-0.6875 -1.8125,-0.6875 -1.1875,0 -1.89062,0.89063 -0.6875,0.89062 -0.6875,2.26562 v 0.125 h -1.59375 v -0.32812 q 0,-1.96875 1.15625,-3.15625 1.17187,-1.20313 3.10937,-1.20313 z"
     fill-rule="nonzero"
     id="path55" />
  <path
     fill="#a4c2f4"
     d="m 140.47244,402.7349 h 66.67717 v 49.38583 h -66.67717 z"
     fill-rule="evenodd"
     id="path56" />
  <path
     stroke="#666666"
     stroke-width="2"
     stroke-linejoin="round"
     stroke-linecap="butt"
     d="m 140.47244,402.7349 h 66.67717 v 49.38583 h -66.67717 z"
     fill-rule="evenodd"
     id="path57" />
  <path
     fill="#ff9900"
     d="M 47.228348,283.1614 H 269.1496 v 38.89764 H 47.228348 Z"
     fill-rule="evenodd"
     id="path59" />
  <path
     fill="#000000"
     d="m 67.71923,296.76892 2.96875,9.35937 h 0.03125 l 3,-9.35937 h 3.03125 l -4.421875,13.3125 H 69.03173 l -4.328125,-13.3125 z m 13.56636,3.40625 q 2.140625,0 3.1875,0.70312 1.046875,0.70313 1.046875,1.98438 v 5.17187 q 0,0.57813 0.0625,1.17188 0.07813,0.57812 0.265625,0.875 h -2.6875 q -0.07813,-0.21875 -0.125,-0.45313 -0.04687,-0.23437 -0.0625,-0.46875 -0.5625,0.57813 -1.390625,0.89063 -0.8125,0.29687 -1.859375,0.29687 -1.484375,0 -2.390625,-0.75 -0.890625,-0.75 -0.890625,-2.14062 0,-1.35938 0.84375,-2.0625 0.84375,-0.71875 3.046875,-0.96875 1.546875,-0.14063 2.03125,-0.375 0.5,-0.23438 0.5,-0.8125 0,-0.64063 -0.375,-0.96875 -0.375,-0.32813 -1.328125,-0.32813 -0.828125,0 -1.265625,0.35938 -0.4375,0.34375 -0.5,1.10937 h -2.65625 q 0.109375,-1.59375 1.296875,-2.40625 1.203125,-0.82812 3.25,-0.82812 z m -2.1875,7.17187 q 0,0.5625 0.390625,0.89063 0.390625,0.32812 1.234375,0.32812 1.0625,0 1.59375,-0.54687 0.546875,-0.5625 0.546875,-1.625 v -1.03125 q -0.234375,0.1875 -0.625,0.28125 -0.390625,0.0937 -1.40625,0.25 -0.890625,0.10937 -1.3125,0.46875 -0.421875,0.34375 -0.421875,0.98437 z m 14.087769,-7.17187 q 0.1875,0 0.328125,0.0312 0.140625,0.0156 0.265625,0.0625 v 2.46875 q -0.21875,-0.0469 -0.4375,-0.0625 -0.21875,-0.0312 -0.5,-0.0312 -1.34375,0 -1.984375,0.82812 -0.640625,0.8125 -0.640625,2.1875 v 4.42188 h -2.640625 v -9.64063 h 2.515625 v 1.78125 h 0.03125 q 0.421875,-0.9375 1.25,-1.48437 0.828125,-0.5625 1.8125,-0.5625 z m 4.369644,-3.40625 v 2.17187 h -2.65625 v -2.17187 z m 0,3.67187 v 9.64063 h -2.65625 v -9.64063 z m 6.512937,-0.26562 q 2.14063,0 3.1875,0.70312 1.04688,0.70313 1.04688,1.98438 v 5.17187 q 0,0.57813 0.0625,1.17188 0.0781,0.57812 0.26562,0.875 h -2.6875 q -0.0781,-0.21875 -0.125,-0.45313 -0.0469,-0.23437 -0.0625,-0.46875 -0.5625,0.57813 -1.39062,0.89063 -0.8125,0.29687 -1.85938,0.29687 -1.48437,0 -2.39062,-0.75 -0.890628,-0.75 -0.890628,-2.14062 0,-1.35938 0.843748,-2.0625 0.84375,-0.71875 3.04688,-0.96875 1.54687,-0.14063 2.03125,-0.375 0.5,-0.23438 0.5,-0.8125 0,-0.64063 -0.375,-0.96875 -0.375,-0.32813 -1.32813,-0.32813 -0.82812,0 -1.26562,0.35938 -0.4375,0.34375 -0.5,1.10937 h -2.656253 q 0.109375,-1.59375 1.296873,-2.40625 1.20313,-0.82812 3.25,-0.82812 z m -2.1875,7.17187 q 0,0.5625 0.39063,0.89063 0.39062,0.32812 1.23437,0.32812 1.0625,0 1.59375,-0.54687 0.54688,-0.5625 0.54688,-1.625 v -1.03125 q -0.23438,0.1875 -0.625,0.28125 -0.39063,0.0937 -1.40625,0.25 -0.89063,0.10937 -1.3125,0.46875 -0.42188,0.34375 -0.42188,0.98437 z m 11.11902,-10.57812 v 4.84375 h 0.0469 q 0.42187,-0.65625 1.21875,-1.04688 0.8125,-0.39062 1.8125,-0.39062 1.6875,0 2.84375,1.375 1.15625,1.375 1.15625,3.70312 0,2.3125 -1.15625,3.70313 -1.15625,1.39062 -2.85938,1.39062 -1.15625,0 -1.96875,-0.39062 -0.79687,-0.39063 -1.1875,-1.10938 h -0.0312 v 1.23438 h -2.51562 v -13.3125 z m -0.0937,8.5 q 0,1.39062 0.60938,2.23437 0.60937,0.84375 1.65625,0.84375 1.03125,0 1.64062,-0.84375 0.60938,-0.84375 0.60938,-2.23437 0,-1.39063 -0.59375,-2.23438 -0.59375,-0.85937 -1.6875,-0.85937 -1,0 -1.625,0.84375 -0.60938,0.82812 -0.60938,2.25 z m 11.56786,-8.5 v 13.3125 h -2.65625 v -13.3125 z m 6.54418,3.40625 q 2.14062,0 3.42187,1.48437 1.28125,1.46875 1.28125,3.75 l -0.0312,0.48438 H 128.737 q 0.0625,1.25 0.65625,1.85937 0.59375,0.59375 1.70312,0.59375 0.71875,0 1.32813,-0.35937 0.60937,-0.375 0.78125,-0.89063 h 2.32812 q -0.53125,1.64063 -1.65625,2.45313 -1.125,0.79687 -2.85937,0.79687 -2.23438,0 -3.59374,-1.40625 -1.34375,-1.42187 -1.34375,-3.67187 0,-2.15625 1.375,-3.625 1.39061,-1.46875 3.56249,-1.46875 z m -2.28125,4.04687 h 4.3125 q -0.1875,-1.0625 -0.6875,-1.54687 -0.5,-0.5 -1.4375,-0.5 -0.96875,0 -1.53125,0.54687 -0.5625,0.54688 -0.65625,1.5 z m 12.49402,-4.04687 q 1.96875,0 3.03125,0.78125 1.07812,0.78125 1.21875,2.29687 h -2.51563 q -0.0625,-0.6875 -0.51562,-1 -0.45313,-0.3125 -1.3125,-0.3125 -0.75,0 -1.10938,0.23438 -0.34375,0.23437 -0.34375,0.67187 0,0.4375 0.45313,0.73438 0.46875,0.28125 1.85937,0.54687 2.21875,0.42188 2.96875,1.09375 0.76563,0.67188 0.76563,1.76563 0,1.64062 -1.20313,2.5 -1.1875,0.85937 -3.1875,0.85937 -2.01562,0 -3.23437,-0.84375 -1.21875,-0.85937 -1.3125,-2.5625 h 2.53125 q 0,0.76563 0.57812,1.20313 0.57813,0.42187 1.45313,0.42187 0.76562,0 1.25,-0.32812 0.48437,-0.32813 0.48437,-0.89063 0,-0.51562 -0.625,-0.82812 -0.625,-0.3125 -2.29687,-0.67188 -1.67188,-0.32812 -2.40625,-0.9375 -0.73438,-0.60937 -0.73438,-1.64062 0,-1.53125 1.07813,-2.3125 1.09375,-0.78125 3.125,-0.78125 z m 20.64125,-3.40625 v 13.3125 h -2.51563 v -1.23438 h -0.0312 q -0.4375,0.75 -1.1875,1.125 -0.75,0.375 -1.75,0.375 -1.96875,0 -3.15625,-1.45312 -1.17187,-1.45313 -1.17187,-3.71875 0,-2.15625 1.15625,-3.57813 1.17187,-1.42187 3.125,-1.42187 0.90625,0 1.64062,0.375 0.75,0.35937 1.20313,1.0625 h 0.0469 v -4.84375 z m -7.15625,8.46875 q 0,1.35937 0.625,2.23437 0.625,0.875 1.70312,0.875 1.09375,0 1.6875,-0.8125 0.59375,-0.8125 0.59375,-2.29687 0,-1.42188 -0.57812,-2.23438 -0.57813,-0.82812 -1.71875,-0.82812 -1.09375,0 -1.70313,0.82812 -0.60937,0.8125 -0.60937,2.23438 z m 11.88035,-8.46875 v 2.17187 h -2.65625 v -2.17187 z m 0,3.67187 v 9.64063 h -2.65625 v -9.64063 z m 5.88794,-3.67187 q 0.26563,0 0.71875,0.0312 0.46875,0.0156 0.6875,0.0312 v 1.98437 q -0.26562,-0.0312 -0.51562,-0.0469 -0.23438,-0.0156 -0.45313,-0.0156 -0.54687,0 -0.78125,0.25 -0.23437,0.25 -0.23437,0.76563 v 0.67187 h 3 v -0.67187 q 0,-1.5625 0.87501,-2.28125 0.89063,-0.71875 2.35938,-0.71875 0.28125,0 0.78125,0.0312 0.5,0.0312 0.625,0.0312 v 1.98437 q -0.26563,-0.0312 -0.51563,-0.0469 -0.23437,-0.0156 -0.45312,-0.0156 -0.57813,0 -0.79688,0.28125 -0.21875,0.26563 -0.21875,0.73438 v 0.67187 h 1.82813 v 1.76563 h -1.82813 v 7.875 h -2.65626 v -7.875 h -3 v 7.875 h -2.65625 v -7.875 h -1.57813 v -1.76563 h 1.57813 v -0.67187 q 0,-1.5 0.875,-2.25 0.875,-0.75 2.35937,-0.75 z m 12.52593,3.40625 q 2.14062,0 3.42187,1.48437 1.28125,1.46875 1.28125,3.75 l -0.0312,0.48438 h -6.95312 q 0.0625,1.25 0.65625,1.85937 0.59375,0.59375 1.70312,0.59375 0.71875,0 1.32813,-0.35937 0.60937,-0.375 0.78125,-0.89063 h 2.32812 q -0.53125,1.64063 -1.65625,2.45313 -1.125,0.79687 -2.85937,0.79687 -2.23438,0 -3.59375,-1.40625 -1.34375,-1.42187 -1.34375,-3.67187 0,-2.15625 1.375,-3.625 1.39062,-1.46875 3.5625,-1.46875 z m -2.28125,4.04687 h 4.3125 q -0.1875,-1.0625 -0.6875,-1.54687 -0.5,-0.5 -1.4375,-0.5 -0.96875,0 -1.53125,0.54687 -0.5625,0.54688 -0.65625,1.5 z m 5.84375,-7.78125 -2.89063,2.65625 h -1.82812 l 1.78125,-2.65625 z m 8.30652,3.73438 q 0.1875,0 0.32812,0.0312 0.14063,0.0156 0.26563,0.0625 v 2.46875 q -0.21875,-0.0469 -0.4375,-0.0625 -0.21875,-0.0312 -0.5,-0.0312 -1.34375,0 -1.98438,0.82812 -0.64062,0.8125 -0.64062,2.1875 v 4.42188 h -2.64063 v -9.64063 h 2.51563 v 1.78125 h 0.0312 q 0.42187,-0.9375 1.25,-1.48437 0.82812,-0.5625 1.8125,-0.5625 z m 5.95819,0 q 2.14062,0 3.42187,1.48437 1.28125,1.46875 1.28125,3.75 l -0.0312,0.48438 h -6.95312 q 0.0625,1.25 0.65625,1.85937 0.59375,0.59375 1.70312,0.59375 0.71875,0 1.32813,-0.35937 0.60937,-0.375 0.78125,-0.89063 h 2.32812 q -0.53125,1.64063 -1.65625,2.45313 -1.125,0.79687 -2.85937,0.79687 -2.23438,0 -3.59375,-1.40625 -1.34375,-1.42187 -1.34375,-3.67187 0,-2.15625 1.375,-3.625 1.39062,-1.46875 3.5625,-1.46875 z m -2.28125,4.04687 h 4.3125 q -0.1875,-1.0625 -0.6875,-1.54687 -0.5,-0.5 -1.4375,-0.5 -0.96875,0 -1.53125,0.54687 -0.5625,0.54688 -0.65625,1.5 z m 14.07214,-4.04687 q 1.84375,0 2.67188,0.9375 0.84375,0.9375 0.84375,2.9375 v 6.03125 h -2.65625 v -5.53125 q 0,-1.125 -0.39063,-1.70313 -0.39062,-0.57812 -1.29687,-0.57812 -1.10938,0 -1.59375,0.65625 -0.46875,0.65625 -0.46875,2.01562 v 5.14063 h -2.64063 v -9.64063 h 2.51563 v 1.34375 h 0.0469 q 0.48438,-0.78125 1.25,-1.1875 0.78125,-0.42187 1.71875,-0.42187 z m 8.87143,-2.625 v 2.89062 h 1.9375 v 1.76563 h -1.9375 v 4.84375 q 0,0.59375 0.21875,0.82812 0.23438,0.21875 0.90625,0.21875 0.23438,0 0.4375,-0.0156 0.20313,-0.0156 0.375,-0.0469 v 2.0625 q -0.32812,0.0625 -0.73437,0.0781 -0.39063,0.0156 -0.79688,0.0156 -1.71875,0 -2.39062,-0.57812 -0.65625,-0.59375 -0.65625,-1.65625 v -5.75 h -1.60938 v -1.76563 h 1.60938 v -2.89062 z m 7.58618,2.625 q 2.14063,0 3.42188,1.48437 1.28125,1.46875 1.28125,3.75 l -0.0312,0.48438 h -6.95313 q 0.0625,1.25 0.65625,1.85937 0.59375,0.59375 1.70313,0.59375 0.71875,0 1.32812,-0.35937 0.60938,-0.375 0.78125,-0.89063 h 2.32813 q -0.53125,1.64063 -1.65625,2.45313 -1.125,0.79687 -2.85938,0.79687 -2.23437,0 -3.59375,-1.40625 -1.34375,-1.42187 -1.34375,-3.67187 0,-2.15625 1.375,-3.625 1.39063,-1.46875 3.5625,-1.46875 z m -2.28125,4.04687 h 4.3125 q -0.1875,-1.0625 -0.6875,-1.54687 -0.5,-0.5 -1.4375,-0.5 -0.96875,0 -1.53125,0.54687 -0.5625,0.54688 -0.65625,1.5 z m 12.49402,-4.04687 q 1.96875,0 3.03125,0.78125 1.07813,0.78125 1.21875,2.29687 h -2.51562 q -0.0625,-0.6875 -0.51563,-1 -0.45312,-0.3125 -1.3125,-0.3125 -0.75,0 -1.10937,0.23438 -0.34375,0.23437 -0.34375,0.67187 0,0.4375 0.45312,0.73438 0.46875,0.28125 1.85938,0.54687 2.21875,0.42188 2.96875,1.09375 0.76562,0.67188 0.76562,1.76563 0,1.64062 -1.20312,2.5 -1.1875,0.85937 -3.1875,0.85937 -2.01563,0 -3.23438,-0.84375 -1.21875,-0.85937 -1.3125,-2.5625 h 2.53125 q 0,0.76563 0.57813,1.20313 0.57812,0.42187 1.45312,0.42187 0.76563,0 1.25,-0.32812 0.48438,-0.32813 0.48438,-0.89063 0,-0.51562 -0.625,-0.82812 -0.625,-0.3125 -2.29688,-0.67188 -1.67187,-0.32812 -2.40625,-0.9375 -0.73437,-0.60937 -0.73437,-1.64062 0,-1.53125 1.07812,-2.3125 1.09375,-0.78125 3.125,-0.78125 z m 9.02045,-3.40625 v 3.57812 l -0.71875,5.75 h -1.32813 l -0.70312,-5.75 v -3.57812 z m 0.0937,10.4375 v 2.875 h -2.92188 v -2.875 z"
     fill-rule="nonzero"
     id="path60" />
  <path
     fill="#000000"
     fill-opacity="0"
     d="m 158.18898,283.1614 15.62204,-92.34645"
     fill-rule="evenodd"
     id="path61" />
  <path
     stroke="#666666"
     stroke-width="2"
     stroke-linejoin="round"
     stroke-linecap="butt"
     d="m 158.18898,283.1614 13.62047,-80.51454"
     fill-rule="evenodd"
     id="path62" />
  <path
     fill="#666666"
     stroke="#666666"
     stroke-width="2"
     stroke-linecap="butt"
     d="m 175.06664,203.19786 -1.7433,-9.50006 -4.77107,8.39804 z"
     fill-rule="evenodd"
     id="path63" />
  <path
     fill="#000000"
     fill-opacity="0"
     d="m 158.18898,322.05905 15.62204,80.66141"
     fill-rule="evenodd"
     id="path64" />
  <path
     stroke="#666666"
     stroke-width="2"
     stroke-linejoin="round"
     stroke-linecap="butt"
     d="m 158.18898,322.05905 13.34035,68.88034"
     fill-rule="evenodd"
     id="path65" />
  <path
     fill="#666666"
     stroke="#666666"
     stroke-width="2"
     stroke-linecap="butt"
     d="m 168.28613,391.5675 4.96895,8.2825 1.51744,-9.53873 z"
     fill-rule="evenodd"
     id="path66" />
  <path
     fill="#000000"
     fill-opacity="0"
     d="m 436.2047,179.6811 357.51184,53.82677"
     fill-rule="evenodd"
     id="path67" />
  <path
     stroke="#00ff00"
     stroke-width="4"
     stroke-linejoin="round"
     stroke-linecap="butt"
     d="m 436.2047,179.6811 357.51184,53.82677"
     fill-rule="evenodd"
     id="path68"
     style="stroke:#00d400" />
  <path
     fill="#000000"
     fill-opacity="0"
     d="m 526.50134,181.10498 356,53.00787"
     fill-rule="evenodd"
     id="path69" />
  <path
     stroke="#00ff00"
     stroke-width="4"
     stroke-linejoin="round"
     stroke-linecap="butt"
     d="m 526.50134,181.10498 356,53.00787"
     fill-rule="evenodd"
     id="path70"
     style="stroke:#00d400" />
  <path
     fill="#000000"
     fill-opacity="0"
     d="M 348.70996,446.60367 793.21393,366.09973"
     fill-rule="evenodd"
     id="path71" />
  <path
     stroke="#00ff00"
     stroke-width="4"
     stroke-linejoin="round"
     stroke-linecap="butt"
     d="M 348.70996,446.60367 793.21393,366.09973"
     fill-rule="evenodd"
     id="path72"
     style="stroke:#00d400" />
  <path
     fill="#000000"
     fill-opacity="0"
     d="m 348.21127,441.10498 356.00003,-76"
     fill-rule="evenodd"
     id="path73" />
  <path
     stroke="#00ff00"
     stroke-width="4"
     stroke-linejoin="round"
     stroke-linecap="butt"
     d="m 348.21127,441.10498 356.00003,-76"
     fill-rule="evenodd"
     id="path74"
     style="stroke:#00d400" />
  <path
     fill="#000000"
     fill-opacity="0"
     d="M 348.5013,365.10498 526.51708,321.60892"
     fill-rule="evenodd"
     id="path75" />
  <path
     stroke="#00ff00"
     stroke-width="4"
     stroke-linejoin="round"
     stroke-linecap="butt"
     d="M 348.5013,365.10498 526.51708,321.60892"
     fill-rule="evenodd"
     id="path76"
     style="stroke:#00d400" />
  <path
     fill="#000000"
     fill-opacity="0"
     d="m 348.5013,351.10498 89.51181,-27.49606"
     fill-rule="evenodd"
     id="path77" />
  <path
     stroke="#00ff00"
     stroke-width="4"
     stroke-linejoin="round"
     stroke-linecap="butt"
     d="m 348.5013,351.10498 89.51181,-27.49606"
     fill-rule="evenodd"
     id="path78"
     style="stroke:#00d400" />
  <text
     xml:space="preserve"
     style="font-size:18.6667px;font-family:'Liberation Sans';-inkscape-font-specification:'Liberation Sans';text-align:center;writing-mode:lr-tb;direction:ltr;text-anchor:middle;fill:#000000;fill-opacity:1;stroke:none;stroke-width:1.88976"
     x="174"
     y="171.42856"
     id="text78"><tspan
       sodipodi:role="line"
       id="tspan78"
       x="174"
       y="171.42856"
       style="font-style:normal;font-variant:normal;font-weight:bold;font-stretch:normal;font-size:18.6667px;font-family:'Courier New';-inkscape-font-specification:'Courier New Bold'">a[10]</tspan></text>
  <text
     xml:space="preserve"
     style="font-size:18.6667px;font-family:'Liberation Sans';-inkscape-font-specification:'Liberation Sans';text-align:center;writing-mode:lr-tb;direction:ltr;text-anchor:middle;fill:#000000;fill-opacity:1;stroke:none;stroke-width:1.88976"
     x="174"
     y="433.18304"
     id="text78-0"><tspan
       sodipodi:role="line"
       id="tspan78-9"
       x="174"
       y="433.18304"
       style="font-style:normal;font-variant:normal;font-weight:bold;font-stretch:normal;font-size:18.6667px;font-family:'Courier New';-inkscape-font-specification:'Courier New Bold'">a[10]</tspan></text>
</svg>
